<svg width="79" height="193" viewBox="0 0 79 193" fill="none" xmlns="http://www.w3.org/2000/svg">
<circle cx="1.47278" cy="1.32593" r="1" fill="#D9D9D9"/>
<circle cx="11.4728" cy="1.32593" r="1" fill="#D9D9D9"/>
<circle cx="21.4728" cy="1.32593" r="1" fill="#D9D9D9"/>
<circle cx="31.4728" cy="1.32593" r="1" fill="#D9D9D9"/>
<circle cx="41.4728" cy="1.32593" r="1" fill="#D9D9D9"/>
<circle cx="51.4728" cy="1.32593" r="1" fill="#D9D9D9"/>
<circle cx="61.4728" cy="1.32593" r="1" fill="#D9D9D9"/>
<circle cx="71.4728" cy="1.32593" r="1" fill="#D9D9D9"/>
<circle cx="1.47278" cy="11.3259" r="1" fill="#D9D9D9"/>
<circle cx="11.4728" cy="11.3259" r="1" fill="#D9D9D9"/>
<circle cx="21.4728" cy="11.3259" r="1" fill="#D9D9D9"/>
<circle cx="31.4728" cy="11.3259" r="1" fill="#D9D9D9"/>
<circle cx="41.4728" cy="11.3259" r="1" fill="#D9D9D9"/>
<circle cx="51.4728" cy="11.3259" r="1" fill="#D9D9D9"/>
<circle cx="61.4728" cy="11.3259" r="1" fill="#D9D9D9"/>
<circle cx="71.4728" cy="11.3259" r="1" fill="#D9D9D9"/>
<circle cx="1.47278" cy="21.3259" r="1" fill="#D9D9D9"/>
<circle cx="11.4728" cy="21.3259" r="1" fill="#D9D9D9"/>
<circle cx="21.4728" cy="21.3259" r="1" fill="#D9D9D9"/>
<circle cx="31.4728" cy="21.3259" r="1" fill="#D9D9D9"/>
<circle cx="41.4728" cy="21.3259" r="1" fill="#D9D9D9"/>
<circle cx="51.4728" cy="21.3259" r="1" fill="#D9D9D9"/>
<circle cx="61.4728" cy="21.3259" r="1" fill="#D9D9D9"/>
<circle cx="71.4728" cy="21.3259" r="1" fill="#D9D9D9"/>
<circle cx="1.47278" cy="31.3259" r="1" fill="#D9D9D9"/>
<circle cx="11.4728" cy="31.3259" r="1" fill="#D9D9D9"/>
<circle cx="21.4728" cy="31.3259" r="1" fill="#D9D9D9"/>
<circle cx="31.4728" cy="31.3259" r="1" fill="#D9D9D9"/>
<circle cx="41.4728" cy="31.3259" r="1" fill="#D9D9D9"/>
<circle cx="51.4728" cy="31.3259" r="1" fill="#D9D9D9"/>
<circle cx="61.4728" cy="31.3259" r="1" fill="#D9D9D9"/>
<circle cx="71.4728" cy="31.3259" r="1" fill="#D9D9D9"/>
<circle cx="1.47278" cy="41.3259" r="1" fill="#D9D9D9"/>
<circle cx="11.4728" cy="41.3259" r="1" fill="#D9D9D9"/>
<circle cx="21.4728" cy="41.3259" r="1" fill="#D9D9D9"/>
<circle cx="31.4728" cy="41.3259" r="1" fill="#D9D9D9"/>
<circle cx="41.4728" cy="41.3259" r="1" fill="#D9D9D9"/>
<circle cx="51.4728" cy="41.3259" r="1" fill="#D9D9D9"/>
<circle cx="61.4728" cy="41.3259" r="1" fill="#D9D9D9"/>
<circle cx="71.4728" cy="41.3259" r="1" fill="#D9D9D9"/>
<circle cx="1.47278" cy="51.3259" r="1" fill="#D9D9D9"/>
<circle cx="11.4728" cy="51.3259" r="1" fill="#D9D9D9"/>
<circle cx="21.4728" cy="51.3259" r="1" fill="#D9D9D9"/>
<circle cx="31.4728" cy="51.3259" r="1" fill="#D9D9D9"/>
<circle cx="41.4728" cy="51.3259" r="1" fill="#D9D9D9"/>
<circle cx="51.4728" cy="51.3259" r="1" fill="#D9D9D9"/>
<circle cx="61.4728" cy="51.3259" r="1" fill="#D9D9D9"/>
<circle cx="71.4728" cy="51.3259" r="1" fill="#D9D9D9"/>
<circle cx="1.47278" cy="61.3259" r="1" fill="#D9D9D9"/>
<circle cx="11.4728" cy="61.3259" r="1" fill="#D9D9D9"/>
<circle cx="21.4728" cy="61.3259" r="1" fill="#D9D9D9"/>
<circle cx="31.4728" cy="61.3259" r="1" fill="#D9D9D9"/>
<circle cx="41.4728" cy="61.3259" r="1" fill="#D9D9D9"/>
<circle cx="51.4728" cy="61.3259" r="1" fill="#D9D9D9"/>
<circle cx="61.4728" cy="61.3259" r="1" fill="#D9D9D9"/>
<circle cx="71.4728" cy="61.3259" r="1" fill="#D9D9D9"/>
<circle cx="1.47278" cy="71.3259" r="1" fill="#D9D9D9"/>
<circle cx="11.4728" cy="71.3259" r="1" fill="#D9D9D9"/>
<circle cx="21.4728" cy="71.3259" r="1" fill="#D9D9D9"/>
<circle cx="31.4728" cy="71.3259" r="1" fill="#D9D9D9"/>
<circle cx="41.4728" cy="71.3259" r="1" fill="#D9D9D9"/>
<circle cx="51.4728" cy="71.3259" r="1" fill="#D9D9D9"/>
<circle cx="61.4728" cy="71.3259" r="1" fill="#D9D9D9"/>
<circle cx="71.4728" cy="71.3259" r="1" fill="#D9D9D9"/>
<circle cx="1.47278" cy="81.3259" r="1" fill="#D9D9D9"/>
<circle cx="11.4728" cy="81.3259" r="1" fill="#D9D9D9"/>
<circle cx="21.4728" cy="81.3259" r="1" fill="#D9D9D9"/>
<circle cx="31.4728" cy="81.3259" r="1" fill="#D9D9D9"/>
<circle cx="41.4728" cy="81.3259" r="1" fill="#D9D9D9"/>
<circle cx="51.4728" cy="81.3259" r="1" fill="#D9D9D9"/>
<circle cx="61.4728" cy="81.3259" r="1" fill="#D9D9D9"/>
<circle cx="71.4728" cy="81.3259" r="1" fill="#D9D9D9"/>
<circle cx="1.47278" cy="91.3259" r="1" fill="#D9D9D9"/>
<circle cx="11.4728" cy="91.3259" r="1" fill="#D9D9D9"/>
<circle cx="21.4728" cy="91.3259" r="1" fill="#D9D9D9"/>
<circle cx="31.4728" cy="91.3259" r="1" fill="#D9D9D9"/>
<circle cx="41.4728" cy="91.3259" r="1" fill="#D9D9D9"/>
<circle cx="51.4728" cy="91.3259" r="1" fill="#D9D9D9"/>
<circle cx="61.4728" cy="91.3259" r="1" fill="#D9D9D9"/>
<circle cx="71.4728" cy="91.3259" r="1" fill="#D9D9D9"/>
<circle cx="1.47278" cy="101.326" r="1" fill="#D9D9D9"/>
<circle cx="11.4728" cy="101.326" r="1" fill="#D9D9D9"/>
<circle cx="21.4728" cy="101.326" r="1" fill="#D9D9D9"/>
<circle cx="31.4728" cy="101.326" r="1" fill="#D9D9D9"/>
<circle cx="41.4728" cy="101.326" r="1" fill="#D9D9D9"/>
<circle cx="51.4728" cy="101.326" r="1" fill="#D9D9D9"/>
<circle cx="61.4728" cy="101.326" r="1" fill="#D9D9D9"/>
<circle cx="71.4728" cy="101.326" r="1" fill="#D9D9D9"/>
<circle cx="1.47278" cy="111.326" r="1" fill="#D9D9D9"/>
<circle cx="11.4728" cy="111.326" r="1" fill="#D9D9D9"/>
<circle cx="21.4728" cy="111.326" r="1" fill="#D9D9D9"/>
<circle cx="31.4728" cy="111.326" r="1" fill="#D9D9D9"/>
<circle cx="41.4728" cy="111.326" r="1" fill="#D9D9D9"/>
<circle cx="51.4728" cy="111.326" r="1" fill="#D9D9D9"/>
<circle cx="61.4728" cy="111.326" r="1" fill="#D9D9D9"/>
<circle cx="71.4728" cy="111.326" r="1" fill="#D9D9D9"/>
<circle cx="1.47278" cy="121.326" r="1" fill="#D9D9D9"/>
<circle cx="11.4728" cy="121.326" r="1" fill="#D9D9D9"/>
<circle cx="21.4728" cy="121.326" r="1" fill="#D9D9D9"/>
<circle cx="31.4728" cy="121.326" r="1" fill="#D9D9D9"/>
<circle cx="41.4728" cy="121.326" r="1" fill="#D9D9D9"/>
<circle cx="51.4728" cy="121.326" r="1" fill="#D9D9D9"/>
<circle cx="61.4728" cy="121.326" r="1" fill="#D9D9D9"/>
<circle cx="71.4728" cy="121.326" r="1" fill="#D9D9D9"/>
<circle cx="1.47278" cy="131.326" r="1" fill="#D9D9D9"/>
<circle cx="11.4728" cy="131.326" r="1" fill="#D9D9D9"/>
<circle cx="21.4728" cy="131.326" r="1" fill="#D9D9D9"/>
<circle cx="31.4728" cy="131.326" r="1" fill="#D9D9D9"/>
<circle cx="41.4728" cy="131.326" r="1" fill="#D9D9D9"/>
<circle cx="51.4728" cy="131.326" r="1" fill="#D9D9D9"/>
<circle cx="61.4728" cy="131.326" r="1" fill="#D9D9D9"/>
<circle cx="71.4728" cy="131.326" r="1" fill="#D9D9D9"/>
<circle cx="1.47278" cy="141.326" r="1" fill="#D9D9D9"/>
<circle cx="11.4728" cy="141.326" r="1" fill="#D9D9D9"/>
<circle cx="21.4728" cy="141.326" r="1" fill="#D9D9D9"/>
<circle cx="31.4728" cy="141.326" r="1" fill="#D9D9D9"/>
<circle cx="41.4728" cy="141.326" r="1" fill="#D9D9D9"/>
<circle cx="51.4728" cy="141.326" r="1" fill="#D9D9D9"/>
<circle cx="61.4728" cy="141.326" r="1" fill="#D9D9D9"/>
<circle cx="71.4728" cy="141.326" r="1" fill="#D9D9D9"/>
<circle cx="1.47278" cy="151.326" r="1" fill="#D9D9D9"/>
<circle cx="11.4728" cy="151.326" r="1" fill="#D9D9D9"/>
<circle cx="21.4728" cy="151.326" r="1" fill="#D9D9D9"/>
<circle cx="31.4728" cy="151.326" r="1" fill="#D9D9D9"/>
<circle cx="41.4728" cy="151.326" r="1" fill="#D9D9D9"/>
<circle cx="51.4728" cy="151.326" r="1" fill="#D9D9D9"/>
<circle cx="61.4728" cy="151.326" r="1" fill="#D9D9D9"/>
<circle cx="71.4728" cy="151.326" r="1" fill="#D9D9D9"/>
<circle cx="1.47278" cy="161.326" r="1" fill="#D9D9D9"/>
<circle cx="11.4728" cy="161.326" r="1" fill="#D9D9D9"/>
<circle cx="21.4728" cy="161.326" r="1" fill="#D9D9D9"/>
<circle cx="31.4728" cy="161.326" r="1" fill="#D9D9D9"/>
<circle cx="41.4728" cy="161.326" r="1" fill="#D9D9D9"/>
<circle cx="51.4728" cy="161.326" r="1" fill="#D9D9D9"/>
<circle cx="61.4728" cy="161.326" r="1" fill="#D9D9D9"/>
<circle cx="71.4728" cy="161.326" r="1" fill="#D9D9D9"/>
<circle cx="1.47278" cy="171.326" r="1" fill="#D9D9D9"/>
<circle cx="11.4728" cy="171.326" r="1" fill="#D9D9D9"/>
<circle cx="21.4728" cy="171.326" r="1" fill="#D9D9D9"/>
<circle cx="31.4728" cy="171.326" r="1" fill="#D9D9D9"/>
<circle cx="41.4728" cy="171.326" r="1" fill="#D9D9D9"/>
<circle cx="51.4728" cy="171.326" r="1" fill="#D9D9D9"/>
<circle cx="61.4728" cy="171.326" r="1" fill="#D9D9D9"/>
<circle cx="71.4728" cy="171.326" r="1" fill="#D9D9D9"/>
<circle cx="1.47278" cy="181.326" r="1" fill="#D9D9D9"/>
<circle cx="11.4728" cy="181.326" r="1" fill="#D9D9D9"/>
<circle cx="21.4728" cy="181.326" r="1" fill="#D9D9D9"/>
<circle cx="31.4728" cy="181.326" r="1" fill="#D9D9D9"/>
<circle cx="41.4728" cy="181.326" r="1" fill="#D9D9D9"/>
<circle cx="51.4728" cy="181.326" r="1" fill="#D9D9D9"/>
<circle cx="61.4728" cy="181.326" r="1" fill="#D9D9D9"/>
<circle cx="71.4728" cy="181.326" r="1" fill="#D9D9D9"/>
<circle cx="1.47278" cy="191.326" r="1" fill="#D9D9D9"/>
<circle cx="11.4728" cy="191.326" r="1" fill="#D9D9D9"/>
<circle cx="21.4728" cy="191.326" r="1" fill="#D9D9D9"/>
<circle cx="31.4728" cy="191.326" r="1" fill="#D9D9D9"/>
<circle cx="41.4728" cy="191.326" r="1" fill="#D9D9D9"/>
<circle cx="51.4728" cy="191.326" r="1" fill="#D9D9D9"/>
<circle cx="61.4728" cy="191.326" r="1" fill="#D9D9D9"/>
<circle cx="71.4728" cy="191.326" r="1" fill="#D9D9D9"/>
</svg>
