<svg width="85" height="85" viewBox="0 0 85 85" fill="none" xmlns="http://www.w3.org/2000/svg">
<path fill-rule="evenodd" clip-rule="evenodd" d="M61.8354 21.7176C68.7426 27.3363 77.8645 32.572 77.8178 41.4448C77.7681 50.8712 69.237 57.2832 61.6191 62.7829C53.0493 68.9698 43.4084 77.1261 33.4176 73.4992C23.4664 69.8868 21.1573 57.437 18.6072 47.1688C16.4529 38.4944 15.4104 29.0509 20.5819 21.8152C25.4756 14.9681 34.5188 13.112 42.9626 13.092C50.2203 13.0748 56.1857 17.1218 61.8354 21.7176Z" fill="white"/>
<path d="M35.6439 55.8845V52.4045L46.7639 41.8445C47.6972 40.9645 48.3906 40.1912 48.8439 39.5245C49.2972 38.8579 49.5906 38.2445 49.7239 37.6845C49.8839 37.0979 49.9639 36.5512 49.9639 36.0445C49.9639 34.7645 49.5239 33.7779 48.6439 33.0845C47.7639 32.3645 46.4706 32.0045 44.7639 32.0045C43.4039 32.0045 42.1639 32.2445 41.0439 32.7245C39.9506 33.2045 39.0039 33.9379 38.2039 34.9245L34.5639 32.1245C35.6572 30.6579 37.1239 29.5245 38.9639 28.7245C40.8306 27.8979 42.9106 27.4845 45.2039 27.4845C47.2306 27.4845 48.9906 27.8179 50.4839 28.4845C52.0039 29.1245 53.1639 30.0445 53.9639 31.2445C54.7906 32.4445 55.2039 33.8712 55.2039 35.5245C55.2039 36.4312 55.0839 37.3379 54.8439 38.2445C54.6039 39.1245 54.1506 40.0579 53.4839 41.0445C52.8172 42.0312 51.8439 43.1379 50.5639 44.3645L41.0039 53.4445L39.9239 51.4845H56.2839V55.8845H35.6439Z" fill="#040F2B"/>
</svg>
