<svg width="575" height="384" viewBox="0 0 575 384" fill="none" xmlns="http://www.w3.org/2000/svg">
<path d="M536.429 367.842C536.429 367.949 424.971 368.041 287.515 368.041C150.06 368.041 38.5786 367.949 38.5786 367.842C38.5786 367.734 150.014 367.642 287.515 367.642C425.017 367.642 536.429 367.734 536.429 367.842Z" fill="#263238"/>
<path d="M338.407 216.78H328.402V366.883H338.407V216.78Z" fill="#455A64"/>
<path d="M404.9 202.171H160.026V216.78H404.9V202.171Z" fill="#455A64"/>
<path d="M219.566 216.78H209.561V366.883H219.566V216.78Z" fill="#455A64"/>
<path d="M342.202 216.442C342.202 216.549 301.614 216.641 251.551 216.641C201.488 216.641 160.893 216.549 160.893 216.442C160.893 216.335 201.472 216.242 251.551 216.242C301.63 216.242 342.202 216.335 342.202 216.442Z" fill="#263238"/>
<path d="M246.361 165.349C244.697 165.732 243.332 167.037 242.88 168.686C242.382 170.49 242.918 172.17 243.999 173.336H233.557V184.93C234.462 183.088 236.494 181.891 238.771 182.306C240.649 182.643 242.19 184.132 242.581 186.004C243.233 189.127 240.871 191.874 237.866 191.874C235.965 191.874 234.339 190.761 233.55 189.165V202.163H262.361V173.329H251.014C251.819 172.469 252.325 171.311 252.325 170.037C252.325 166.998 249.512 164.612 246.353 165.341L246.361 165.349Z" fill="#263238"/>
<path d="M242.581 185.866C242.198 184.201 240.894 182.835 239.246 182.382C237.444 181.884 235.765 182.421 234.6 183.503L234.493 173.259H233.603H220.654C222.494 174.165 223.69 176.198 223.276 178.477C222.939 180.357 221.452 181.899 219.581 182.29C216.461 182.943 213.716 180.579 213.716 177.572C213.716 175.669 214.828 174.042 216.422 173.252H204.8V202.086H234.776L234.6 190.523C235.459 191.329 236.616 191.835 237.889 191.835C240.925 191.835 243.309 189.019 242.581 185.858V185.866Z" fill="#FF725E"/>
<g opacity="0.3">
<path d="M204.677 187.431C206.509 187.984 208.595 187.469 210.059 186.234C211.523 184.999 212.367 183.096 212.459 181.185C212.551 179.267 211.93 177.349 210.864 175.761C212.06 174.909 213.256 174.057 214.452 173.206H204.8L204.669 187.431H204.677Z" fill="black"/>
</g>
<path d="M482.456 97.4369L488.336 87.0632C485.737 82.8355 484.234 77.8636 484.234 72.5386C484.234 57.216 496.639 44.8015 511.949 44.8015C527.26 44.8015 539.664 57.216 539.664 72.5386C539.664 87.8612 527.26 100.276 511.949 100.276C505.555 100.276 499.675 98.1044 494.991 94.4675V94.4828L482.463 97.4369H482.456Z" fill="white"/>
<path d="M482.456 97.4369C483.146 97.2681 487.04 96.3166 494.968 94.3831L494.914 94.5366V94.5212C494.868 94.4752 494.876 94.4138 494.922 94.3831C494.96 94.3524 495.006 94.3601 495.044 94.3831C498.172 96.8 502.657 99.1479 508.269 99.8845C509.665 100.053 511.121 100.168 512.616 100.092C513.368 100.046 514.127 100.023 514.893 99.9612C515.652 99.8461 516.427 99.7234 517.209 99.6006C520.314 98.9791 523.48 97.7898 526.439 95.9484C529.391 94.1069 532.128 91.6209 534.313 88.5594C536.498 85.5057 538.154 81.8918 538.928 77.971C539.695 74.0502 539.626 69.8532 538.599 65.7866C537.564 61.7353 535.624 57.7838 532.734 54.5306C529.805 51.2082 526.186 48.5458 522.192 46.9959C518.221 45.4153 513.981 44.8091 509.925 45.1007C505.87 45.3846 501.99 46.5432 498.655 48.4153C495.313 50.2722 492.491 52.7505 490.306 55.5204C488.114 58.2902 486.573 61.3594 485.607 64.4055C484.648 67.4746 484.38 70.513 484.38 73.3366C484.518 79.0221 486.396 83.7026 488.413 87.0095C488.428 87.0402 488.428 87.0786 488.413 87.1093C484.625 93.6695 482.793 96.8461 482.448 97.4292C482.778 96.8384 484.556 93.6312 488.244 87.0095V87.1093C486.182 83.7946 484.265 79.0835 484.096 73.3443C484.081 70.4977 484.342 67.4132 485.3 64.3134C486.266 61.2213 487.822 58.1214 490.03 55.3055C492.231 52.4896 495.083 49.9729 498.471 48.0854C501.845 46.1826 505.778 45.001 509.887 44.7094C513.996 44.4101 518.297 45.0163 522.33 46.6199C526.378 48.1852 530.05 50.886 533.025 54.262C535.961 57.5613 537.924 61.5742 538.974 65.6868C540.017 69.8071 540.078 74.0655 539.304 78.04C538.514 82.0222 536.835 85.6821 534.612 88.7666C532.389 91.8587 529.613 94.3754 526.623 96.2322C523.626 98.0891 520.413 99.286 517.27 99.9075C516.48 100.03 515.698 100.145 514.924 100.26C514.15 100.322 513.375 100.345 512.624 100.383C511.114 100.46 509.642 100.337 508.231 100.161C502.565 99.3934 498.057 96.9995 494.922 94.5366L495.06 94.3984V94.4138C495.106 94.4598 495.098 94.5212 495.052 94.5519C495.044 94.5596 495.029 94.5672 495.014 94.5672C487.056 96.378 483.146 97.2681 482.456 97.4215V97.4369Z" fill="#263238"/>
<path d="M515.944 69.5309H514.234L510.493 64.3134V60.8914C510.493 60.8914 507.848 60.7302 508.154 65.2111C508.469 69.6921 508.131 68.5488 508.131 68.5488C508.131 68.5488 502.512 68.5718 502.044 69.0629C501.707 69.4158 501.553 75.0093 501.492 78.0401C501.461 79.5669 502.397 80.9864 503.815 81.347C504.014 81.4007 504.221 81.4314 504.421 81.4314C505.824 81.4314 512.984 80.2882 512.984 80.2882H515.944V69.5309Z" fill="#FF725E"/>
<path d="M520.85 68.5872L519.8 80.3112H516.864V68.825L520.85 68.5872Z" fill="#FF725E"/>
<path d="M87.009 109.79C87.009 109.79 86.7253 109.836 86.2653 110.02C85.813 110.204 85.1766 110.611 84.7013 111.363C84.4713 111.739 84.2796 112.192 84.2183 112.698C84.1646 113.205 84.2413 113.772 84.502 114.286C84.9926 115.315 86.181 116.205 87.5226 116.136C88.8643 116.043 89.9376 115.023 90.3056 113.941C90.505 113.396 90.5126 112.829 90.3976 112.33C90.275 111.831 90.0373 111.401 89.7613 111.056C89.2016 110.366 88.5193 110.036 88.0516 109.905C87.5686 109.775 87.285 109.79 87.285 109.759C87.285 109.752 87.354 109.744 87.492 109.744C87.561 109.744 87.6453 109.744 87.7373 109.759C87.837 109.767 87.952 109.782 88.0746 109.813C88.573 109.921 89.286 110.235 89.8916 110.941C90.1906 111.294 90.459 111.739 90.5893 112.276C90.7196 112.806 90.7196 113.419 90.5126 114.002C90.321 114.586 89.9453 115.146 89.4316 115.575C88.9256 116.013 88.2586 116.312 87.538 116.366C86.8173 116.396 86.1196 116.182 85.5676 115.806C85.008 115.437 84.571 114.931 84.3026 114.371C84.0266 113.818 83.95 113.205 84.019 112.66C84.088 112.115 84.3026 111.639 84.5556 111.256C85.077 110.481 85.7516 110.082 86.227 109.921C86.3496 109.875 86.457 109.844 86.5566 109.828C86.6486 109.805 86.733 109.79 86.802 109.79C86.9323 109.775 87.009 109.775 87.009 109.782V109.79Z" fill="#263238"/>
<path d="M85.6443 93.0634C85.6443 93.0634 85.6443 92.9176 85.6443 92.6414C85.6443 92.3575 85.6597 91.9432 85.6673 91.3984C85.6673 91.1222 85.6827 90.823 85.6827 90.4854C85.675 90.1477 85.629 89.7795 85.606 89.3881C85.5753 88.9892 85.5447 88.5672 85.5063 88.1068C85.4987 87.8766 85.4603 87.6464 85.4143 87.4009C85.3683 87.163 85.33 86.9098 85.284 86.6566C84.985 84.608 84.2337 82.1604 82.9533 79.5286C81.6577 76.9045 79.7103 74.1116 76.9427 71.6563C76.5977 71.3494 76.245 71.0425 75.8923 70.7356C75.5167 70.444 75.1257 70.1754 74.7347 69.8916C74.5353 69.7534 74.3437 69.6077 74.1443 69.4696C73.945 69.3238 73.7457 69.178 73.531 69.0629C73.1017 68.8174 72.6723 68.5642 72.2353 68.311C72.0207 68.1882 71.7983 68.0578 71.576 67.935C71.346 67.8276 71.116 67.7202 70.8783 67.6204C70.4107 67.4056 69.943 67.1907 69.46 66.9759C68.977 66.7764 68.471 66.6306 67.965 66.4465C67.712 66.3621 67.459 66.2777 67.206 66.1856C67.0757 66.1472 66.953 66.0935 66.8227 66.0628L66.424 65.9708C65.366 65.7329 64.3003 65.426 63.181 65.3339C62.6213 65.2725 62.0693 65.1728 61.502 65.1344C60.9347 65.1191 60.3597 65.1037 59.7847 65.0884C59.4933 65.0884 59.2097 65.0577 58.9183 65.0807C58.627 65.1037 58.3357 65.1267 58.0443 65.1421C57.4617 65.1958 56.8713 65.2111 56.281 65.2879C55.1157 65.5104 53.912 65.6485 52.7543 66.0321C52.463 66.1165 52.164 66.2009 51.8727 66.2777C51.727 66.3237 51.5737 66.3544 51.428 66.4081L50.9987 66.5769C50.4237 66.7994 49.8487 67.0296 49.266 67.2521C48.6987 67.5053 48.1467 67.8122 47.5793 68.0884C47.3033 68.2342 47.0043 68.357 46.7437 68.5335L45.9387 69.0475C44.8347 69.6844 43.838 70.5207 42.8107 71.311C42.3353 71.756 41.86 72.2087 41.3847 72.6538L41.0243 72.9914C40.9093 73.1141 40.8097 73.2369 40.6947 73.3597L40.043 74.1039L39.3837 74.8559L38.7933 75.6692L38.203 76.4825L37.9117 76.8891C37.8197 77.0349 37.743 77.1807 37.6587 77.3265C37.3213 77.9096 36.9763 78.4928 36.639 79.0836C36.3553 79.7051 36.0717 80.3189 35.788 80.9481C34.7453 83.4801 34.0707 86.2039 33.8177 89.0045C33.6337 91.8127 33.8713 94.6133 34.5153 97.2758C34.6993 97.9356 34.8833 98.5955 35.0673 99.2477C35.3127 99.8845 35.558 100.514 35.8033 101.143L35.9873 101.611L36.2173 102.064L36.6697 102.961L37.122 103.851L37.6587 104.695L38.1877 105.532L38.456 105.946L38.755 106.337C39.1613 106.859 39.56 107.373 39.9587 107.887C40.8557 108.831 41.7067 109.805 42.6957 110.611L43.4163 111.24C43.654 111.455 43.9223 111.616 44.1753 111.808C44.689 112.169 45.1873 112.56 45.7087 112.898C46.2453 113.212 46.782 113.527 47.3187 113.834L47.7173 114.064C47.8553 114.133 47.9933 114.194 48.1313 114.256C48.4073 114.386 48.691 114.509 48.967 114.639C50.0557 115.199 51.221 115.522 52.3403 115.921C52.9077 116.082 53.4903 116.197 54.0577 116.343C54.3413 116.412 54.625 116.473 54.9087 116.542C55.1923 116.604 55.4837 116.627 55.7673 116.665C56.3423 116.742 56.9097 116.811 57.4693 116.887C58.0367 116.941 58.604 116.926 59.1637 116.957C60.283 117.041 61.387 116.903 62.468 116.834L62.8743 116.803C63.0047 116.788 63.1427 116.757 63.273 116.734C63.5413 116.688 63.802 116.642 64.0627 116.596C64.584 116.496 65.113 116.435 65.619 116.304C66.125 116.166 66.6233 116.028 67.114 115.89C67.3593 115.821 67.6047 115.752 67.85 115.683C68.0877 115.591 68.3253 115.499 68.5553 115.414C69.023 115.23 69.4907 115.054 69.9507 114.877C70.1883 114.8 70.403 114.685 70.6177 114.57C70.8323 114.463 71.0547 114.348 71.2693 114.24C71.6987 114.018 72.128 113.818 72.542 113.588C72.9407 113.335 73.3393 113.089 73.7227 112.844C76.8353 110.849 79.189 108.394 80.8757 106C81.0903 105.701 81.305 105.409 81.5043 105.117C81.6807 104.81 81.857 104.511 82.0333 104.22C82.2097 103.928 82.3707 103.637 82.5393 103.353C82.616 103.207 82.708 103.076 82.777 102.931C82.846 102.785 82.9073 102.639 82.9763 102.501C83.237 101.933 83.49 101.381 83.7277 100.859C83.95 100.33 84.1033 99.8078 84.2797 99.3167C84.364 99.0712 84.4483 98.8334 84.525 98.6032C84.6093 98.373 84.6783 98.1505 84.7243 97.9203C84.8317 97.4753 84.9313 97.0609 85.0233 96.6696C85.1153 96.2783 85.2073 95.9254 85.2687 95.5954C85.3147 95.2655 85.353 94.9586 85.3913 94.69C85.468 94.153 85.5217 93.7463 85.56 93.4624C85.5983 93.1862 85.629 93.0404 85.629 93.0404C85.629 93.0404 85.6213 93.1862 85.5907 93.4624C85.56 93.7463 85.5063 94.1606 85.445 94.6977C85.4143 94.9663 85.376 95.2732 85.33 95.6031C85.2763 95.933 85.1767 96.2937 85.0923 96.685C85.0003 97.0763 84.9083 97.4906 84.8087 97.9433C84.7627 98.1735 84.6937 98.396 84.6093 98.6262C84.5327 98.8564 84.4483 99.0942 84.364 99.3398C84.1877 99.8308 84.042 100.36 83.8197 100.89C83.582 101.411 83.329 101.964 83.0683 102.539C82.9993 102.685 82.938 102.831 82.869 102.977C82.8 103.122 82.708 103.261 82.6313 103.406C82.4703 103.69 82.3017 103.982 82.1253 104.281C81.9567 104.58 81.7803 104.88 81.604 105.186C81.4047 105.478 81.19 105.77 80.9753 106.076C79.2887 108.486 76.9273 110.964 73.7993 112.982C73.4083 113.228 73.0097 113.481 72.611 113.742C72.197 113.972 71.76 114.179 71.3307 114.401C71.116 114.509 70.8937 114.624 70.679 114.731C70.4643 114.846 70.242 114.962 70.0043 115.038C69.5443 115.222 69.0767 115.399 68.6013 115.583C68.3637 115.675 68.126 115.775 67.8883 115.859C67.643 115.928 67.3977 115.997 67.1447 116.066C66.6463 116.205 66.1403 116.35 65.6343 116.488C65.1207 116.619 64.5917 116.68 64.0703 116.788C63.8097 116.834 63.5413 116.88 63.273 116.926C63.1427 116.949 63.0047 116.98 62.8743 116.995L62.468 117.026C61.3793 117.095 60.2677 117.233 59.1407 117.156C58.5733 117.133 58.006 117.141 57.4387 117.095C56.8713 117.018 56.2963 116.949 55.7213 116.872C55.43 116.826 55.1387 116.811 54.855 116.749C54.5713 116.68 54.28 116.619 53.9963 116.55C53.4213 116.412 52.8387 116.297 52.2637 116.128C51.1367 115.729 49.9637 115.399 48.8597 114.839C48.5837 114.708 48.3 114.586 48.0163 114.455C47.8783 114.386 47.7327 114.332 47.5947 114.256L47.1883 114.018C46.6517 113.703 46.1073 113.389 45.563 113.074C45.034 112.729 44.5357 112.345 44.0143 111.977C43.7613 111.785 43.4853 111.616 43.2477 111.401L42.527 110.765C41.5227 109.951 40.664 108.969 39.7593 108.018C39.353 107.496 38.9543 106.974 38.548 106.452L38.2413 106.061L37.973 105.639L37.4363 104.795L36.8997 103.943L36.4397 103.046L35.9797 102.14L35.7497 101.688L35.5657 101.212C35.3203 100.575 35.0673 99.9382 34.822 99.3014C34.638 98.6415 34.454 97.974 34.2623 97.3141C33.6183 94.6287 33.373 91.8051 33.557 88.9661C33.8177 86.1349 34.4923 83.388 35.5503 80.833C35.8417 80.2038 36.1253 79.5746 36.409 78.9531C36.754 78.3623 37.099 77.7715 37.4363 77.1807C37.5207 77.0349 37.605 76.8815 37.697 76.7434L37.996 76.329L38.5863 75.508L39.1767 74.6871L39.836 73.9274L40.4953 73.1755C40.6027 73.0528 40.71 72.9223 40.825 72.7995L41.1853 72.4619C41.6683 72.0092 42.1513 71.5566 42.6267 71.1039C43.6693 70.3059 44.666 69.4619 45.7853 68.8174L46.598 68.3033C46.8663 68.1268 47.1653 68.004 47.4413 67.8583C48.0087 67.5744 48.5683 67.2751 49.1433 67.0143C49.7337 66.7841 50.3163 66.5616 50.8913 66.3314L51.3283 66.1626C51.474 66.1165 51.6273 66.0782 51.773 66.0321C52.072 65.9477 52.371 65.8633 52.6623 65.7866C53.8353 65.403 55.0467 65.2649 56.2197 65.0423C56.81 64.9656 57.408 64.9503 57.9983 64.8966C58.2897 64.8735 58.5887 64.8505 58.88 64.8352C59.1713 64.8198 59.4627 64.8428 59.754 64.8505C60.3367 64.8659 60.9117 64.8812 61.4867 64.8966C62.0617 64.9349 62.6213 65.0347 63.181 65.0961C64.308 65.1958 65.3813 65.5027 66.447 65.7406L66.8457 65.8326C66.976 65.871 67.1063 65.917 67.229 65.9631C67.482 66.0475 67.7427 66.1396 67.9957 66.224C68.5017 66.4081 69.0153 66.5539 69.4983 66.7611C69.9737 66.9836 70.449 67.1984 70.9243 67.4132C71.162 67.5207 71.392 67.6281 71.6297 67.7355C71.852 67.8583 72.0743 67.9887 72.289 68.1191C72.726 68.3723 73.163 68.6255 73.5923 68.8787C73.8147 68.9938 74.014 69.1396 74.2057 69.2854C74.405 69.4312 74.6043 69.5693 74.8037 69.7151C75.1947 70.0066 75.5933 70.2752 75.969 70.5668C76.3293 70.8813 76.682 71.1883 77.027 71.4952C79.8023 73.9735 81.7497 76.7894 83.0453 79.4288C84.3257 82.0836 85.0617 84.5466 85.353 86.6029C85.399 86.8561 85.4373 87.1093 85.4833 87.3472C85.5293 87.585 85.5677 87.8229 85.5753 88.0531C85.606 88.5134 85.6367 88.9431 85.6673 89.3421C85.6903 89.7411 85.7287 90.1094 85.7363 90.447C85.7287 90.7846 85.7133 91.0915 85.7057 91.36C85.6827 91.9048 85.6673 92.3115 85.6597 92.603C85.6443 92.8793 85.6367 93.025 85.6367 93.025L85.6443 93.0634Z" fill="#263238"/>
<path d="M52.739 91.0301C52.739 92.2731 51.7347 93.2782 50.4927 93.2782C49.2507 93.2782 48.2463 92.2731 48.2463 91.0301C48.2463 89.7871 49.2507 88.782 50.4927 88.782C51.7347 88.782 52.739 89.7871 52.739 91.0301Z" fill="#263238"/>
<path d="M61.7397 91.0301C61.7397 92.2731 60.7354 93.2782 59.4934 93.2782C58.2514 93.2782 57.2471 92.2731 57.2471 91.0301C57.2471 89.7871 58.2514 88.782 59.4934 88.782C60.7354 88.782 61.7397 89.7871 61.7397 91.0301Z" fill="#263238"/>
<path d="M70.7097 89.9099C71.3307 90.9841 70.9627 92.3652 69.8894 92.9867C68.8161 93.6082 67.4361 93.2399 66.8151 92.1657C66.1941 91.0915 66.5621 89.7104 67.6354 89.0889C68.7087 88.4674 70.0887 88.8357 70.7097 89.9099Z" fill="#263238"/>
<path d="M416.545 266.538V367.658H424.657V266.538H416.545Z" fill="#455A64"/>
<path d="M490.283 257.584H392.089V273.297H490.283V257.584Z" fill="#455A64"/>
<path d="M399.042 266.538V367.658H407.154V266.538H399.042Z" fill="#455A64"/>
<path d="M452.64 266.53V367.65H460.751V266.53H452.64Z" fill="#455A64"/>
<path d="M474.199 266.53V367.65H482.31V266.53H474.199Z" fill="#455A64"/>
<path d="M472.995 273.297C472.888 273.297 472.796 269.783 472.796 265.441C472.796 261.098 472.888 257.584 472.995 257.584C473.102 257.584 473.194 261.098 473.194 265.441C473.194 269.783 473.102 273.297 472.995 273.297Z" fill="#263238"/>
<path d="M489.478 273.297C489.478 273.405 467.674 273.497 440.787 273.497C413.9 273.497 392.089 273.405 392.089 273.297C392.089 273.19 413.885 273.098 440.787 273.098C467.69 273.098 489.478 273.19 489.478 273.297Z" fill="#263238"/>
<path d="M475.502 313.334H406.648V320.048H475.502V313.334Z" fill="#455A64"/>
<path d="M318.435 159.855C316.871 160.538 315.767 162.073 315.621 163.768C315.46 165.633 316.296 167.19 317.576 168.134L307.533 170.114L307.694 170.988L310.063 183.725C310.623 181.746 312.394 180.203 314.709 180.188C316.618 180.18 318.404 181.362 319.133 183.127C320.344 186.073 318.527 189.211 315.575 189.764C313.705 190.109 311.903 189.319 310.837 187.892L312.961 199.332L341.289 194.06L336.022 165.709L335.808 164.559L324.484 166.845C325.12 165.848 325.404 164.628 325.174 163.369C324.622 160.377 321.417 158.551 318.443 159.847L318.435 159.855Z" fill="#FF725E"/>
<path d="M393.522 140.228C393.131 140.75 379.04 165.917 379.04 165.917L347.43 172.914L350.014 187.324C350.014 187.324 384.867 183.579 389.781 179.72C394.695 175.861 406.165 152.336 406.165 152.336L393.522 140.228Z" fill="#936760"/>
<path d="M347.43 172.914C347.43 172.914 338.215 173.881 337.786 173.927C337.356 173.973 328.478 178.815 328.478 178.815C328.478 178.815 327.788 179.766 330.686 179.651C333.584 179.536 337.793 178.093 337.793 178.093L340.653 190.654L350.742 187.247L352.352 175.623L347.43 172.914Z" fill="#936760"/>
<path d="M436.272 212.728C436.272 212.728 374.547 212.467 369.664 212.728C360.962 213.196 355.128 222.918 353.962 227.959C352.805 232.992 325.826 310.626 325.826 310.626L346.786 324.191L374.908 260.699L389.06 236.061L466.041 249.519L436.279 212.721L436.272 212.728Z" fill="#936760"/>
<path d="M388.662 233.79C388.662 233.79 377.269 233.79 371.113 242.913C367.494 248.276 368.767 257.86 368.698 265.088C368.598 274.932 371.159 351.33 371.159 351.33C378.427 356.494 386.538 357.092 395.401 353.624L401.664 269.054L400.047 256.44L442.144 257.376C442.144 257.376 449.635 243.335 439.216 232.194C437.874 230.759 388.654 233.79 388.654 233.79H388.662Z" fill="#936760"/>
<path d="M371.166 350.54L371.143 352.09C371.143 352.09 344.724 362.402 344.394 367.397L396.643 367.65L396.014 350.248C388.232 353.808 380.098 354.177 371.159 350.54H371.166Z" fill="#FF725E"/>
<path d="M396.65 367.65L396.497 363.461L346.472 364.75C346.472 364.75 344.141 365.755 344.394 367.389L396.643 367.642L396.65 367.65Z" fill="#E0E0E0"/>
<path d="M326.845 307.395L326.255 308.83C326.255 308.83 297.896 308.669 295.749 313.188L344.226 332.7L350.052 316.288C341.504 316.726 333.807 314.071 326.838 307.388L326.845 307.395Z" fill="#FF725E"/>
<path d="M344.233 332.7L345.636 328.756L298.663 311.5C298.663 311.5 296.125 311.569 295.757 313.188L344.233 332.7Z" fill="#E0E0E0"/>
<path d="M324.292 314.784C324.354 314.815 324.599 314.508 324.806 313.91C325.013 313.319 325.143 312.421 324.982 311.462C324.821 310.503 324.407 309.697 324.016 309.206C323.625 308.707 323.288 308.5 323.242 308.546C323.119 308.654 324.154 309.782 324.43 311.554C324.745 313.319 324.131 314.723 324.292 314.784Z" fill="#263238"/>
<path d="M327.068 315.26C327.19 315.329 327.865 313.825 327.528 311.907C327.206 309.981 326.079 308.784 325.979 308.892C325.841 308.984 326.684 310.227 326.976 311.999C327.29 313.764 326.907 315.214 327.068 315.26Z" fill="#263238"/>
<path d="M320.075 314.431C320.183 314.531 321.103 313.503 321.302 311.869C321.517 310.242 320.873 309.007 320.75 309.083C320.597 309.137 320.942 310.326 320.75 311.8C320.581 313.273 319.945 314.339 320.083 314.431H320.075Z" fill="#263238"/>
<path d="M322.966 308.961C322.996 309.014 323.694 308.654 324.407 307.656C324.767 307.165 325.112 306.528 325.427 305.799C325.588 305.439 325.733 305.055 325.887 304.656C325.956 304.457 326.055 304.257 326.094 303.981C326.14 303.72 326.094 303.375 325.856 303.122C325.603 302.838 325.151 302.861 324.913 303.007C324.66 303.145 324.491 303.329 324.346 303.521C324.077 303.874 323.855 304.242 323.686 304.61C323.341 305.347 323.165 306.068 323.104 306.667C322.989 307.886 323.249 308.615 323.311 308.6C323.403 308.592 323.295 307.856 323.502 306.72C323.61 306.16 323.809 305.5 324.154 304.833C324.323 304.503 324.537 304.165 324.79 303.851C325.013 303.536 325.365 303.352 325.465 303.513C325.641 303.682 325.542 304.058 325.381 304.464C325.235 304.856 325.097 305.232 324.959 305.608C324.675 306.321 324.384 306.95 324.085 307.441C323.495 308.431 322.92 308.892 322.973 308.961H322.966Z" fill="#263238"/>
<path d="M322.69 308.684C322.69 308.684 322.728 308.8 322.874 308.961L322.989 309.083L323.019 308.892C323.073 308.508 323.111 307.71 322.889 306.697C322.782 306.191 322.598 305.631 322.337 305.055C322.207 304.771 322.053 304.48 321.877 304.196C321.785 304.05 321.678 303.881 321.501 303.743C321.317 303.605 321.072 303.513 320.796 303.574C320.413 303.651 320.244 304.073 320.26 304.311C320.252 304.58 320.313 304.787 320.359 304.986C320.459 305.385 320.589 305.769 320.742 306.114C321.049 306.812 321.432 307.38 321.808 307.802C322.559 308.661 323.203 308.984 323.234 308.93C323.288 308.861 322.751 308.431 322.115 307.557C321.8 307.119 321.471 306.567 321.218 305.915C321.088 305.585 320.972 305.232 320.888 304.863C320.773 304.48 320.796 304.096 320.919 304.127C321.225 304.019 321.601 304.825 321.862 305.293C322.122 305.823 322.314 306.344 322.452 306.812C322.728 307.764 322.789 308.516 322.843 308.899L322.989 308.838C322.805 308.715 322.713 308.669 322.69 308.692V308.684Z" fill="#263238"/>
<path d="M371.611 358.051C371.68 358.051 371.726 357.652 371.596 357.031C371.465 356.417 371.105 355.588 370.469 354.852C369.825 354.115 369.058 353.647 368.468 353.432C367.87 353.21 367.479 353.21 367.463 353.279C367.41 353.44 368.882 353.854 370.047 355.22C371.243 356.563 371.45 358.074 371.619 358.044L371.611 358.051Z" fill="#263238"/>
<path d="M374.225 357.008C374.371 357.008 374.156 355.366 372.86 353.908C371.58 352.427 369.993 352.005 369.962 352.151C369.893 352.304 371.266 352.918 372.431 354.276C373.619 355.611 374.056 357.054 374.217 357.008H374.225Z" fill="#263238"/>
<path d="M367.839 359.962C367.985 359.992 368.23 358.634 367.548 357.138C366.881 355.642 365.692 354.928 365.623 355.059C365.516 355.189 366.444 356.018 367.042 357.376C367.663 358.719 367.678 359.962 367.847 359.969L367.839 359.962Z" fill="#263238"/>
<path d="M367.44 353.785C367.494 353.816 367.9 353.141 367.985 351.921C368.031 351.315 367.992 350.593 367.885 349.811C367.831 349.419 367.755 349.013 367.678 348.591C367.64 348.384 367.609 348.161 367.502 347.908C367.402 347.662 367.187 347.386 366.85 347.302C366.49 347.194 366.106 347.447 365.984 347.701C365.838 347.946 365.792 348.199 365.769 348.43C365.723 348.875 365.731 349.304 365.769 349.703C365.861 350.509 366.091 351.215 366.352 351.76C366.896 352.864 367.494 353.348 367.54 353.302C367.617 353.24 367.134 352.68 366.72 351.606C366.513 351.069 366.344 350.409 366.29 349.657C366.26 349.281 366.267 348.89 366.313 348.483C366.344 348.1 366.543 347.754 366.712 347.839C366.95 347.892 367.065 348.261 367.134 348.69C367.21 349.097 367.295 349.488 367.371 349.88C367.509 350.639 367.586 351.322 367.586 351.898C367.601 353.049 367.348 353.747 367.433 353.777L367.44 353.785Z" fill="#263238"/>
<path d="M367.057 353.693C367.057 353.693 367.149 353.77 367.356 353.831L367.517 353.877L367.44 353.701C367.287 353.348 366.904 352.65 366.183 351.898C365.823 351.522 365.378 351.138 364.857 350.785C364.596 350.609 364.312 350.447 364.013 350.294C363.86 350.217 363.684 350.133 363.454 350.11C363.224 350.087 362.963 350.141 362.764 350.332C362.48 350.601 362.557 351.046 362.695 351.245C362.825 351.476 362.994 351.621 363.132 351.767C363.423 352.059 363.737 352.312 364.052 352.527C364.673 352.956 365.301 353.24 365.846 353.409C366.934 353.747 367.655 353.685 367.655 353.624C367.663 353.532 366.98 353.455 365.984 353.041C365.485 352.834 364.918 352.534 364.358 352.112C364.075 351.898 363.799 351.66 363.53 351.384C363.231 351.115 363.055 350.777 363.17 350.739C363.377 350.486 364.121 350.977 364.581 351.245C365.079 351.56 365.516 351.898 365.884 352.228C366.612 352.887 367.065 353.509 367.31 353.8L367.394 353.67C367.172 353.662 367.072 353.67 367.065 353.701L367.057 353.693Z" fill="#263238"/>
<path d="M412.091 52.8579C413.356 48.6916 416.376 45.093 420.248 43.1134C424.503 40.942 429.578 40.7579 434.24 41.8244C438.901 42.8986 443.202 45.1467 447.273 47.6557C449.558 49.0675 451.827 50.6098 453.437 52.7581C456.373 56.6789 459.202 63.0627 459.356 67.958C459.478 71.9171 457.684 81.769 455.913 85.3138C455.285 86.5722 453.805 87.6924 452.026 88.6285C450.117 92.1196 447.61 95.2885 444.605 97.8972C443.762 95.2194 442.926 92.5339 442.083 89.8561L412.091 52.8656V52.8579Z" fill="#263238"/>
<path d="M414.506 48.047L422.326 46.8731C417.78 56.8938 415.97 80.0503 413.226 90.7078C410.473 86.4571 404.171 73.5821 404.677 68.5411C405.176 63.5001 405.283 46.9191 414.506 48.047Z" fill="#263238"/>
<path d="M450.93 65.9784C450.677 60.0396 446.99 55.0753 441.278 53.441L423.484 48.354C415.763 47.2951 410.312 56.6866 409.584 64.4515C408.771 73.0834 408.165 82.191 408.993 88.6745C410.649 101.711 420.54 103.667 420.54 103.667C420.54 103.644 420.363 109.836 420.264 113.626L423.162 130.606L446.629 110.557L450.976 66.1318C450.984 65.9093 450.946 66.2699 450.938 65.9707L450.93 65.9784Z" fill="#936760"/>
<path d="M411.838 74.3647C411.776 75.2394 412.474 76.0144 413.386 76.0911C414.299 76.1678 415.088 75.5233 415.142 74.641C415.203 73.7663 414.506 72.9913 413.593 72.9146C412.681 72.8379 411.891 73.4824 411.83 74.3647H411.838Z" fill="#263238"/>
<path d="M411.385 69.5923C411.585 69.8148 412.873 68.9247 414.659 68.9785C416.445 69.0091 417.733 69.9759 417.933 69.7611C418.032 69.669 417.833 69.27 417.273 68.8327C416.721 68.403 415.778 67.9656 414.659 67.935C413.547 67.9043 412.597 68.2879 412.045 68.6946C411.485 69.1012 411.286 69.4849 411.385 69.5846V69.5923Z" fill="#263238"/>
<path d="M427.501 74.3878C427.44 75.2625 428.137 76.0374 429.05 76.1141C429.962 76.1909 430.752 75.5463 430.805 74.664C430.867 73.7893 430.169 73.0143 429.257 72.9376C428.344 72.8609 427.554 73.5054 427.493 74.3878H427.501Z" fill="#263238"/>
<path d="M428.375 70.0757C428.574 70.2982 429.862 69.4081 431.649 69.4619C433.435 69.4925 434.723 70.4593 434.922 70.2445C435.022 70.1524 434.823 69.7534 434.263 69.3161C433.711 68.8864 432.768 68.449 431.649 68.4184C430.537 68.3877 429.586 68.7713 429.034 69.178C428.475 69.5846 428.275 69.9683 428.367 70.068L428.375 70.0757Z" fill="#263238"/>
<path d="M422.38 83.9787C422.387 83.879 421.283 83.6488 419.489 83.3649C419.037 83.3035 418.608 83.1961 418.539 82.8815C418.439 82.5439 418.646 82.0605 418.884 81.5388C419.344 80.4493 419.834 79.2983 420.34 78.1014C422.364 73.2061 423.852 69.1702 423.652 69.0935C423.453 69.0168 421.651 72.9222 419.62 77.8175C419.129 79.0221 418.661 80.1807 418.217 81.2779C418.025 81.792 417.711 82.3751 417.925 83.0657C418.04 83.411 418.362 83.6718 418.654 83.7562C418.945 83.856 419.198 83.8713 419.428 83.8867C421.237 84.0401 422.364 84.0862 422.372 83.9787H422.38Z" fill="#263238"/>
<path d="M437.859 99.5469C437.859 99.5469 433.389 108.34 420.448 106.721L420.532 103.667C420.532 103.667 429.057 104.473 437.859 99.5392V99.5469Z" fill="#6F4C47"/>
<path d="M429.119 63.6229C429.28 64.1139 431.074 63.9374 433.167 64.2597C435.267 64.5359 436.939 65.2035 437.23 64.7738C437.36 64.5666 437.077 64.0986 436.41 63.6075C435.743 63.1165 434.677 62.6331 433.42 62.4566C432.162 62.2801 431.005 62.4413 430.23 62.7328C429.448 63.0167 429.05 63.3927 429.119 63.6229Z" fill="#263238"/>
<path d="M412.121 64.1292C412.42 64.5436 413.67 64.1599 415.15 64.1906C416.63 64.1676 417.879 64.5513 418.178 64.1292C418.309 63.9298 418.124 63.5154 417.588 63.1088C417.059 62.7098 416.162 62.3645 415.15 62.3645C414.13 62.3645 413.241 62.7098 412.712 63.1088C412.175 63.5078 411.991 63.9221 412.121 64.1292Z" fill="#263238"/>
<path d="M413.44 52.7044C414.291 50.7786 416.461 49.666 418.569 49.62C420.677 49.5739 422.709 50.4256 424.495 51.5382C432.085 56.2263 435.75 67.1216 443.248 71.9632C445.088 73.1525 447.564 72.1857 449.113 73.7356C450.669 75.2855 451.635 77.7178 450.692 79.705C451.758 78.3239 452.839 76.9275 453.468 75.3008C454.096 73.6742 454.227 71.7713 453.399 70.2368C452.77 69.0705 451.628 68.1651 451.344 66.8761C451.091 65.7405 451.574 64.5743 451.559 63.408C451.543 62.2264 451.014 61.1138 450.462 60.0627C447.626 54.6917 443.654 49.7888 438.441 46.6583C435.037 44.6173 431.119 43.3666 427.148 43.3897C423.177 43.4127 419.182 44.7554 416.2 47.3795C414.452 48.9217 412.604 50.5177 413.432 52.7044" fill="#263238"/>
<path d="M448.883 75.3315C449.029 74.9632 455.86 72.7151 455.745 79.9122C455.63 86.9021 448.63 85.3292 448.615 85.122C448.607 84.9225 448.876 75.3315 448.876 75.3315H448.883Z" fill="#936760"/>
<path d="M450.831 82.5133C450.831 82.5133 450.953 82.5977 451.153 82.6974C451.352 82.7895 451.697 82.8662 452.065 82.7358C452.809 82.4826 453.453 81.3163 453.506 80.058C453.537 79.4211 453.414 78.815 453.2 78.3086C452.993 77.7945 452.671 77.4262 452.303 77.3571C451.935 77.2651 451.666 77.4799 451.582 77.6794C451.482 77.8712 451.528 78.017 451.49 78.0247C451.467 78.04 451.344 77.9019 451.406 77.618C451.436 77.4799 451.521 77.3188 451.689 77.1883C451.858 77.0579 452.111 76.9889 452.364 77.0272C452.901 77.0733 453.376 77.5797 453.614 78.1321C453.882 78.6922 454.035 79.3751 453.997 80.0887C453.928 81.4928 453.177 82.7972 452.165 83.0734C451.674 83.1885 451.268 83.035 451.053 82.8662C450.838 82.6897 450.808 82.5286 450.831 82.5209V82.5133Z" fill="#6F4C47"/>
<path d="M451.766 71.8174C451.766 71.8174 451.62 71.7406 451.352 71.5718C451.091 71.3954 450.685 71.1575 450.202 70.7969C449.244 70.0603 447.925 68.9017 446.53 67.252C445.127 65.6101 443.67 63.4924 442.091 61.1292C440.511 58.7736 438.771 56.1572 436.532 53.7863C435.39 52.6277 434.186 51.5765 432.898 50.7402C431.618 49.8962 430.261 49.267 428.935 48.799C426.274 47.8552 423.691 47.5943 421.567 47.6787C419.428 47.7478 417.726 48.1544 416.584 48.5074C416.001 48.6685 415.572 48.845 415.28 48.9524C414.981 49.0598 414.82 49.1135 414.82 49.0982C414.82 49.0905 414.966 49.0138 415.257 48.891C415.549 48.7683 415.97 48.5688 416.553 48.3923C417.688 48.001 419.397 47.556 421.567 47.4562C423.721 47.3411 426.336 47.579 429.042 48.5227C430.399 48.9908 431.771 49.62 433.082 50.4793C434.393 51.3233 435.62 52.3898 436.778 53.5714C439.047 55.9807 440.78 58.6048 442.351 60.9757C443.915 63.3466 445.349 65.472 446.721 67.1216C448.086 68.7789 449.366 69.9529 450.294 70.7125C450.762 71.0885 451.153 71.3417 451.406 71.5335C451.659 71.7253 451.789 71.825 451.781 71.8327L451.766 71.8174Z" fill="#455A64"/>
<path d="M451.582 83.7716C452.264 83.6642 452.992 84.1552 453.138 84.8381C453.284 85.521 452.839 86.2653 452.172 86.4571C451.505 86.6489 450.731 86.2499 450.493 85.5977C450.263 84.9455 450.608 84.1399 451.244 83.8713" fill="white"/>
<path d="M451.26 83.8637C451.298 83.9097 450.8 84.0939 450.608 84.7844C450.516 85.1144 450.547 85.5594 450.854 85.8893C451.137 86.2193 451.659 86.4341 452.142 86.3037C452.625 86.1655 452.954 85.6975 453.016 85.2678C453.092 84.8305 452.885 84.4315 452.632 84.2013C452.103 83.7179 451.582 83.8253 451.59 83.7716C451.59 83.7563 451.697 83.7026 451.919 83.7026C452.134 83.7026 452.464 83.7793 452.778 84.0325C453.085 84.2704 453.384 84.7538 453.299 85.3062C453.23 85.8433 452.847 86.4188 452.218 86.6029C451.582 86.7794 450.953 86.4955 450.616 86.0735C450.256 85.6438 450.248 85.0837 450.386 84.7154C450.516 84.3318 450.762 84.0939 450.946 83.9788C451.13 83.8637 451.252 83.8484 451.26 83.8637Z" fill="#263238"/>
<path d="M449.957 73.7433C450.01 75.6538 450.041 77.6717 449.113 79.3444C448.185 81.0171 445.931 82.1066 444.298 81.1092C442.964 80.2958 442.612 78.5541 442.428 77.0042C441.891 72.531 441.715 68.027 441.147 63.5615L449.964 73.7433H449.957Z" fill="#263238"/>
<path d="M415.257 49.4282C415.257 49.4665 415.878 49.3284 416.997 49.3284C418.109 49.3284 419.75 49.5279 421.597 50.3028C422.517 50.6942 423.491 51.2006 424.449 51.8758C425.408 52.551 426.389 53.3566 427.37 54.2467C429.325 56.0344 431.342 58.1751 433.036 60.7225C433.887 61.9962 434.638 63.3006 435.451 64.5129C436.264 65.7252 437.168 66.8301 438.157 67.7431C440.135 69.5693 442.19 70.866 443.946 71.8634C445.701 72.8609 447.181 73.5668 448.193 74.0502C448.676 74.2727 449.067 74.4492 449.374 74.5949C449.642 74.7177 449.788 74.7714 449.795 74.7561C449.795 74.7407 449.665 74.664 449.404 74.5182C449.105 74.3571 448.722 74.1576 448.254 73.9121C447.258 73.3826 445.809 72.6384 444.076 71.6179C442.351 70.5974 440.335 69.2854 438.395 67.4746C437.429 66.5769 436.555 65.495 435.758 64.298C434.953 63.1011 434.209 61.7967 433.35 60.5077C431.625 57.9296 429.586 55.7736 427.6 53.9858C426.596 53.0958 425.607 52.2978 424.618 51.6226C423.629 50.9474 422.632 50.441 421.689 50.0573C419.796 49.2977 418.117 49.1366 416.99 49.1826C416.422 49.2056 415.985 49.267 415.694 49.3284C415.403 49.3898 415.249 49.4282 415.257 49.4435V49.4282Z" fill="#455A64"/>
<path d="M450.271 69.4312C450.271 69.4312 450.47 69.6076 450.877 69.8685C451.344 70.1601 451.927 70.5284 452.617 70.958C452.809 71.0731 453 71.1959 453.2 71.3187C453.414 71.4491 453.66 71.5642 453.959 71.5949C454.104 71.6102 454.281 71.5949 454.434 71.4951C454.587 71.3954 454.695 71.2266 454.71 71.0424C454.733 70.6741 454.549 70.3979 454.403 70.1524C453.805 69.1242 453.146 68.004 452.441 66.8071L452.157 67.0603C452.801 67.5667 453.552 67.9733 454.373 68.2419C455.193 68.5104 456.044 68.6332 456.864 68.6102C457.064 68.6102 457.294 68.5872 457.501 68.5181C457.708 68.449 457.945 68.3186 458.053 68.0577C458.16 67.8045 458.076 67.5206 457.953 67.3518C457.838 67.1677 457.692 67.0296 457.57 66.8991C456.558 65.8633 455.814 64.7814 455.277 63.83C454.212 61.9041 453.928 60.5461 453.859 60.5691C453.836 60.5691 453.882 60.9143 454.051 61.5128C454.219 62.1113 454.518 62.9707 455.032 63.9605C455.546 64.9502 456.289 66.0705 457.309 67.1523C457.562 67.4055 457.815 67.6971 457.708 67.9119C457.616 68.1268 457.217 68.2265 456.849 68.2189C456.075 68.2342 455.27 68.1191 454.495 67.8659C453.721 67.6127 453.008 67.2214 452.395 66.7534L451.582 66.1165L452.111 66.9989C452.824 68.1882 453.499 69.3007 454.112 70.3212C454.265 70.5667 454.403 70.8123 454.388 71.0118C454.373 71.2112 454.204 71.3187 453.974 71.2956C453.522 71.2573 453.123 70.9427 452.732 70.7432C452.019 70.3519 451.421 70.022 450.938 69.7534C450.516 69.5309 450.279 69.4158 450.263 69.4388L450.271 69.4312Z" fill="#455A64"/>
<path d="M429.088 87.4699C428.881 86.3957 427.815 85.5517 426.726 85.6284C425.929 85.6822 425.193 86.2039 424.81 86.9098C424.426 87.6157 424.388 88.4827 424.634 89.2423L424.664 89.4111C425.377 90.2398 426.634 90.5621 427.639 90.1324C428.643 89.7027 429.287 88.5441 429.08 87.4699H429.088Z" fill="#6F4C47"/>
<path d="M423.376 89.4111C423.376 89.1426 425.186 89.2807 426.589 87.8305C427.999 86.3881 427.946 84.4468 428.199 84.4468C428.314 84.4315 428.513 84.9072 428.475 85.7205C428.436 86.5185 428.091 87.6617 427.233 88.5518C426.374 89.4342 425.293 89.7564 424.542 89.7641C423.783 89.7718 423.346 89.5339 423.369 89.4111H423.376Z" fill="#263238"/>
<path d="M459.295 109.015L446.875 107.979C446.875 107.979 440.021 117.018 430.706 116.32C421.391 115.621 420.371 109.36 420.371 109.36C420.371 109.36 408.595 111.731 399.564 121.292L399.357 121.552L383.402 152.858L401.764 167.866L403.558 164.958L407.89 186.618L402.262 194.383L409.247 201.281C418.7 210.618 431.434 215.867 444.713 215.89L474.183 215.936L459.302 109.015H459.295Z" fill="#FF725E"/>
<path d="M457.332 108.923C457.332 108.923 462.852 108.885 466.11 110.726C474.973 115.737 486.91 144.295 486.91 144.295L463.113 157.699C463.113 157.699 454.633 139.476 451.812 130.706C451.153 128.65 452.655 118.368 452.655 118.453C452.655 118.453 457.332 109.123 457.332 108.915V108.923Z" fill="#FF725E"/>
<path d="M400.668 134.028C400.668 134.028 400.698 134.205 400.714 134.55C400.729 134.934 400.752 135.433 400.775 136.046C400.813 137.351 400.89 139.231 401.02 141.555C401.266 146.205 401.787 152.612 402.784 159.648C403.788 166.676 405.076 172.983 406.134 177.51C406.663 179.774 407.108 181.607 407.437 182.866C407.583 183.464 407.706 183.948 407.798 184.324C407.874 184.661 407.913 184.838 407.897 184.838C407.882 184.838 407.821 184.669 407.721 184.347C407.614 183.978 407.468 183.503 407.292 182.912C406.924 181.661 406.433 179.843 405.866 177.579C404.739 173.06 403.397 166.753 402.393 159.702C401.396 152.658 400.921 146.228 400.744 141.571C400.652 139.246 400.622 137.358 400.629 136.054C400.629 135.433 400.637 134.934 400.645 134.55C400.645 134.205 400.66 134.028 400.675 134.028H400.668Z" fill="#263238"/>
<g opacity="0.3">
<path d="M467.697 181.884C466.126 179.966 464.056 178.538 462.009 177.142C447.266 167.068 432.515 156.993 417.772 146.919L415.625 148.714C415.441 152.205 418.224 155.06 420.839 157.377C435.06 169.976 450.685 180.978 467.329 190.124C467.697 190.324 468.096 190.531 468.51 190.493C469.292 190.416 470.22 189.119 470.35 188.344C470.779 185.904 469.261 183.802 467.697 181.884Z" fill="black"/>
</g>
<path d="M486.918 144.302C486.918 144.302 486.764 144.417 486.458 144.609C486.113 144.816 485.66 145.085 485.093 145.423C483.859 146.136 482.141 147.126 480.033 148.346C475.701 150.801 469.783 154.162 463.228 157.883L463.036 157.991L462.944 157.783C462.906 157.691 462.86 157.592 462.814 157.484C459.793 150.494 457.064 144.164 455.063 139.53C454.104 137.259 453.315 135.402 452.755 134.075C452.502 133.453 452.303 132.962 452.149 132.586C452.011 132.241 451.95 132.057 451.965 132.057C451.981 132.057 452.065 132.225 452.226 132.555C452.395 132.924 452.625 133.415 452.901 134.021C453.491 135.341 454.311 137.174 455.323 139.43C457.347 144.049 460.123 150.356 463.182 157.338C463.228 157.438 463.274 157.538 463.312 157.638L463.028 157.546C469.606 153.863 475.548 150.54 479.895 148.116C482.034 146.942 483.774 145.99 485.016 145.3C485.599 144.993 486.067 144.74 486.419 144.556C486.741 144.387 486.918 144.31 486.918 144.318V144.302Z" fill="#263238"/>
<path d="M324.407 292.74C324.407 292.74 350.742 207.611 355.335 200.874C359.927 194.13 368.192 186.165 384.422 189.84C400.652 193.516 446.269 208.838 456.68 211.294C467.092 213.749 472.313 214.409 472.313 214.409C472.313 214.409 478.216 221.598 478.216 238.179C478.216 258.006 457.708 257.729 448.216 258.343C438.725 258.957 410.611 259.141 410.611 259.141L400.775 335.7C400.775 335.7 391.161 339.376 384.729 332.946C378.296 326.508 380.75 319.465 371.258 318.544C361.767 317.623 348.297 317.009 344.617 300.774C340.937 284.538 324.407 292.748 324.407 292.748V292.74Z" fill="#263238"/>
<path d="M385.963 221.383C385.963 221.383 385.955 221.468 385.909 221.621C385.863 221.798 385.802 222.02 385.725 222.304C385.541 222.926 385.288 223.793 384.966 224.905C384.284 227.184 383.318 230.445 382.122 234.45C379.707 242.53 376.387 253.655 372.715 265.939C369.058 278.246 365.792 289.395 363.484 297.49C362.35 301.518 361.422 304.787 360.778 307.073C360.464 308.186 360.218 309.06 360.042 309.682C359.958 309.958 359.896 310.181 359.843 310.357C359.797 310.511 359.766 310.587 359.758 310.587C359.751 310.587 359.766 310.503 359.797 310.349C359.835 310.173 359.889 309.95 359.958 309.667C360.119 309.037 360.341 308.163 360.617 307.042C361.192 304.764 362.089 301.48 363.201 297.421C365.439 289.311 368.667 278.147 372.316 265.84C375.966 253.532 379.354 242.422 381.838 234.381C383.088 230.383 384.092 227.146 384.805 224.867C385.158 223.77 385.434 222.903 385.633 222.289C385.725 222.012 385.802 221.79 385.856 221.621C385.909 221.468 385.94 221.399 385.948 221.399L385.963 221.383Z" fill="#455A64"/>
<path d="M421.582 213.089C421.582 213.089 421.452 213.12 421.206 213.127C420.915 213.135 420.555 213.15 420.118 213.166C419.175 213.181 417.81 213.25 416.131 213.365C412.781 213.626 408.135 214.186 403.19 215.552C398.229 216.887 393.951 218.782 391.053 220.486C390.693 220.693 390.348 220.9 390.018 221.092C389.704 221.299 389.405 221.491 389.121 221.675C388.562 222.043 388.079 222.35 387.703 222.642C387.35 222.895 387.059 223.102 386.821 223.278C386.614 223.424 386.507 223.493 386.499 223.478C386.492 223.463 386.584 223.378 386.775 223.217C387.005 223.025 387.281 222.795 387.611 222.519C387.971 222.204 388.439 221.874 388.991 221.491C389.267 221.299 389.566 221.092 389.873 220.877C390.202 220.677 390.54 220.463 390.9 220.248C393.775 218.468 398.084 216.511 403.075 215.168C408.058 213.787 412.735 213.281 416.108 213.089C417.795 213.012 419.167 212.982 420.11 213.012C420.547 213.028 420.9 213.035 421.199 213.051C421.444 213.066 421.574 213.074 421.574 213.089H421.582Z" fill="#455A64"/>
<path d="M386.507 324.352C386.4 324.352 386.768 306.812 387.335 285.19C387.902 263.561 388.447 246.036 388.562 246.036C388.669 246.036 388.301 263.568 387.734 285.198C387.166 306.82 386.622 324.352 386.507 324.352Z" fill="#455A64"/>
<path d="M384.123 204.756C384.123 204.756 384.292 204.917 384.529 205.255C384.775 205.585 385.097 206.099 385.449 206.751C386.155 208.048 386.929 209.974 387.328 212.214C387.719 214.455 387.657 216.526 387.435 217.992C387.328 218.721 387.205 219.312 387.09 219.711C386.975 220.11 386.906 220.324 386.875 220.317C386.806 220.301 387.013 219.411 387.159 217.961C387.305 216.511 387.32 214.478 386.937 212.291C386.546 210.104 385.833 208.201 385.196 206.889C384.568 205.57 384.062 204.81 384.123 204.772V204.756Z" fill="#455A64"/>
<path d="M344.341 273.251C344.233 273.267 343.812 271.042 343.413 268.272C343.007 265.51 342.769 263.254 342.876 263.238C342.984 263.223 343.405 265.448 343.804 268.218C344.21 270.98 344.448 273.236 344.341 273.251Z" fill="white"/>
<path d="M362.273 288.735C362.296 288.781 361.759 289.088 360.87 289.548C359.981 290.001 358.739 290.607 357.359 291.252C355.979 291.896 354.721 292.464 353.801 292.848C352.881 293.239 352.306 293.454 352.283 293.4C352.26 293.347 352.797 293.04 353.686 292.587C354.576 292.134 355.81 291.528 357.19 290.884C358.57 290.239 359.827 289.679 360.747 289.288C361.667 288.896 362.25 288.681 362.273 288.727V288.735Z" fill="white"/>
<path d="M363.653 265.87C363.546 265.901 363.017 264.481 362.465 262.694C361.913 260.906 361.552 259.425 361.66 259.394C361.767 259.364 362.296 260.783 362.848 262.571C363.4 264.359 363.76 265.84 363.653 265.87Z" fill="white"/>
<path d="M355.051 237.12C355.089 237.212 353.364 238.018 351.095 238.563C348.826 239.115 346.924 239.184 346.917 239.077C346.909 238.962 348.764 238.716 351.003 238.171C353.242 237.634 355.013 237.013 355.051 237.12Z" fill="white"/>
<path d="M375.191 239C375.084 239.031 374.517 237.373 373.919 235.302C373.321 233.23 372.922 231.519 373.029 231.488C373.137 231.458 373.704 233.115 374.302 235.187C374.9 237.258 375.299 238.969 375.191 239Z" fill="white"/>
<path d="M364.81 217.133C364.703 217.133 364.642 215.882 364.688 214.355C364.734 212.82 364.856 211.585 364.964 211.585C365.071 211.585 365.132 212.836 365.086 214.363C365.04 215.897 364.918 217.133 364.81 217.133Z" fill="white"/>
<path d="M370.331 197.705C370.338 197.812 368.797 198.043 366.881 198.219C364.964 198.396 363.408 198.442 363.4 198.334C363.392 198.227 364.933 197.997 366.85 197.82C368.767 197.644 370.323 197.598 370.331 197.705Z" fill="white"/>
<path d="M394.925 207.12C394.818 207.143 394.496 205.907 394.22 204.373C393.936 202.838 393.798 201.572 393.905 201.557C394.013 201.534 394.335 202.769 394.611 204.304C394.895 205.838 395.032 207.097 394.925 207.12Z" fill="white"/>
<path d="M418.278 204.081C418.331 204.181 417.151 204.894 415.656 205.685C414.153 206.467 412.896 207.027 412.842 206.928C412.788 206.828 413.969 206.114 415.464 205.324C416.967 204.542 418.224 203.981 418.278 204.081Z" fill="white"/>
<path d="M403.658 233.46C403.589 233.545 401.618 232.118 399.249 230.268C396.88 228.419 395.017 226.846 395.086 226.762C395.155 226.678 397.126 228.105 399.495 229.954C401.864 231.803 403.727 233.376 403.658 233.46Z" fill="white"/>
<path d="M423.392 223.839C423.461 223.923 422.088 225.089 420.34 226.44C418.585 227.79 417.113 228.811 417.044 228.726C416.975 228.642 418.347 227.476 420.095 226.125C421.851 224.775 423.323 223.754 423.392 223.839Z" fill="white"/>
<path d="M453.813 222.243C453.721 222.304 452.487 220.731 451.045 218.729C449.604 216.718 448.508 215.046 448.6 214.977C448.692 214.915 449.926 216.488 451.367 218.491C452.809 220.493 453.905 222.174 453.813 222.243Z" fill="white"/>
<path d="M468.985 236C469.016 236.038 468.487 236.545 467.59 237.32C466.693 238.087 465.42 239.123 463.987 240.228C462.553 241.325 461.227 242.284 460.245 242.952C459.272 243.619 458.643 244.003 458.612 243.964C458.582 243.918 459.149 243.45 460.077 242.729C461.127 241.923 462.369 240.964 463.741 239.913C465.114 238.862 466.356 237.911 467.406 237.105C468.349 236.391 468.947 235.962 468.978 236.008L468.985 236Z" fill="white"/>
<path d="M438.771 248.131C438.664 248.115 438.848 245.86 439.177 243.097C439.515 240.327 439.875 238.095 439.982 238.11C440.09 238.125 439.913 240.381 439.576 243.143C439.239 245.913 438.878 248.146 438.771 248.131Z" fill="white"/>
<path d="M422.096 254.138C422.073 254.185 421.467 253.962 420.517 253.509C419.574 253.064 418.293 252.381 416.936 251.522C415.587 250.663 414.422 249.803 413.609 249.143C412.796 248.484 412.336 248.031 412.367 247.985C412.444 247.893 414.468 249.496 417.151 251.184C419.827 252.888 422.142 254.023 422.088 254.131L422.096 254.138Z" fill="white"/>
<path d="M396.436 260.215C396.351 260.131 397.839 258.52 399.456 256.371C401.082 254.223 402.232 252.358 402.331 252.42C402.423 252.466 401.419 254.445 399.771 256.617C398.13 258.796 396.505 260.3 396.436 260.223V260.215Z" fill="white"/>
<path d="M399.334 288.958C399.242 289.019 397.862 287.247 396.252 284.983C394.634 282.727 393.4 280.84 393.492 280.778C393.584 280.717 394.964 282.489 396.574 284.753C398.191 287.009 399.426 288.896 399.334 288.958Z" fill="white"/>
<path d="M382.168 275.131C382.084 275.2 380.911 273.796 379.554 272.008C378.197 270.213 377.169 268.709 377.254 268.64C377.338 268.571 378.511 269.975 379.868 271.763C381.225 273.551 382.252 275.062 382.168 275.131Z" fill="white"/>
<path d="M382.221 292.441C382.26 292.541 380.496 293.339 378.281 294.221C376.065 295.104 374.233 295.733 374.194 295.633C374.156 295.533 375.919 294.735 378.135 293.853C380.351 292.971 382.183 292.341 382.221 292.441Z" fill="white"/>
<path d="M378.227 313.326C378.135 313.38 377.108 311.777 375.935 309.751C374.762 307.718 373.896 306.03 373.988 305.976C374.08 305.922 375.107 307.526 376.28 309.551C377.453 311.585 378.319 313.273 378.227 313.326Z" fill="white"/>
<path d="M397.079 323.608C397.164 323.677 396.021 325.127 394.534 326.831C393.047 328.542 391.766 329.861 391.682 329.792C391.598 329.723 392.74 328.273 394.227 326.57C395.715 324.859 396.995 323.539 397.079 323.608Z" fill="white"/>
<path d="M465.857 156.164L471.201 168.518L445.702 155.075L437.751 166.193C437.751 166.193 466.816 188.789 477.403 191.229C486.289 193.278 492.928 187.669 493.396 179.812C493.81 172.907 483.675 146.136 483.675 146.136L465.85 156.172L465.857 156.164Z" fill="#936760"/>
<path d="M479.696 173.467C479.619 173.559 477.748 172.063 475.226 170.543C472.711 169.016 470.511 168.057 470.557 167.942C470.58 167.896 471.155 168.073 472.052 168.456C472.949 168.84 474.16 169.431 475.433 170.198C476.706 170.965 477.794 171.763 478.546 172.377C479.297 172.991 479.726 173.421 479.696 173.459V173.467Z" fill="#6F4C47"/>
<path d="M445.058 154.093C445.058 154.093 445.472 151.676 444.506 148.637C443.54 145.599 439.875 141.471 440.335 139.399C440.795 137.335 438.28 137.619 437.376 139.99C436.801 141.502 437.429 146.758 437.429 146.758C437.429 146.758 433.65 145.584 432.239 142.99C430.828 140.405 424.565 133.484 423.1 134.051C421.444 134.696 423.192 136.323 423.752 137.328C424.181 138.095 427.716 143.712 427.716 143.712C427.716 143.712 417.826 137.197 416.262 136.906C414.56 136.583 415.234 138.67 415.855 139.085C416.246 139.346 414.268 139.614 414.805 141.509C415.165 142.791 418.753 146.228 419.88 146.942L422.203 148.407L414.613 144.801C414.613 144.801 412.697 145.177 414.046 146.811C414.652 147.54 434.363 163.853 435.98 164.973C438.771 166.914 442.85 169.53 442.85 169.53L450.248 157.53L445.05 154.077L445.058 154.093Z" fill="#936760"/>
<path d="M209.009 184.17C210.174 182.92 210.58 181.078 210.036 179.459C209.446 177.687 208.058 176.59 206.509 176.229L215.173 170.398L208.702 160.776C208.978 162.817 207.958 164.935 205.842 165.863C204.094 166.63 201.986 166.254 200.614 164.927C198.329 162.702 198.758 159.103 201.25 157.423C202.829 156.364 204.792 156.372 206.341 157.262L199.096 146.481L175.191 162.579L191.276 186.503L200.69 180.165C200.499 181.331 200.729 182.567 201.434 183.625C203.128 186.15 206.793 186.556 209.009 184.186V184.17Z" fill="#E0E0E0"/>
<path d="M209.009 184.17C209.009 184.17 208.84 184.4 208.411 184.746C207.989 185.091 207.276 185.544 206.226 185.736C205.191 185.912 203.765 185.789 202.5 184.853C201.879 184.385 201.311 183.741 200.943 182.92C200.575 182.106 200.422 181.124 200.583 180.134L200.752 180.242C198.107 182.037 194.933 184.186 191.36 186.61L191.161 186.572C186.653 179.889 181.156 171.74 175.038 162.671L175.091 162.41C181.171 158.313 187.795 153.847 194.68 149.205C196.129 148.231 197.57 147.264 198.988 146.305L199.264 146.359C201.748 150.049 204.163 153.656 206.509 157.147L206.249 157.423C205.26 156.863 204.079 156.656 202.983 156.893C201.886 157.108 200.913 157.768 200.246 158.628C199.594 159.502 199.257 160.599 199.318 161.666C199.364 162.732 199.801 163.761 200.506 164.536C201.879 166.147 204.324 166.507 206.057 165.564C206.939 165.111 207.652 164.39 208.081 163.538C208.51 162.686 208.664 161.712 208.541 160.799L208.84 160.684C211.186 164.198 213.348 167.421 215.288 170.321L215.249 170.513C211.861 172.776 208.963 174.717 206.563 176.313L206.532 176.137C208.165 176.513 209.323 177.656 209.844 178.799C210.396 179.95 210.404 181.086 210.22 181.914C210.036 182.758 209.691 183.334 209.438 183.687C209.177 184.04 209.009 184.186 209.009 184.186C209.001 184.178 209.154 184.017 209.4 183.664C209.637 183.303 209.959 182.735 210.12 181.907C210.281 181.086 210.266 179.989 209.714 178.876C209.193 177.779 208.066 176.689 206.494 176.344L206.463 176.168C208.848 174.549 211.73 172.592 215.104 170.306L215.065 170.497C213.11 167.612 210.941 164.39 208.572 160.891L208.871 160.776C209.001 161.758 208.848 162.794 208.388 163.715C207.935 164.635 207.161 165.418 206.226 165.901C205.29 166.4 204.171 166.569 203.09 166.385C202.017 166.201 200.974 165.656 200.238 164.804C199.479 163.983 199.004 162.863 198.95 161.712C198.881 160.561 199.241 159.379 199.947 158.428C200.667 157.492 201.718 156.786 202.906 156.548C204.087 156.287 205.367 156.51 206.44 157.116L206.18 157.392C203.834 153.909 201.411 150.303 198.927 146.612L199.203 146.666C197.777 147.625 196.343 148.591 194.894 149.566C188.01 154.2 181.378 158.658 175.291 162.748L175.344 162.487C181.432 171.572 186.906 179.743 191.391 186.434L191.191 186.395C194.779 183.994 197.969 181.861 200.629 180.088L200.798 180.196C200.644 181.147 200.775 182.083 201.12 182.866C201.465 183.656 202.009 184.285 202.599 184.738C203.811 185.659 205.198 185.797 206.21 185.643C207.245 185.475 207.958 185.045 208.38 184.723C208.809 184.393 209.001 184.178 209.009 184.193V184.17Z" fill="#263238"/>
<path d="M140.813 118.023C139.74 111.463 136.068 105.355 130.77 101.35L131.314 101.043C126.247 98.7643 119.577 101.273 117.261 106.33C116.311 108.401 116.05 110.711 115.498 112.928C114.946 115.146 113.988 117.409 112.109 118.691C111.105 119.373 109.909 119.726 108.866 120.348C107.824 120.969 106.888 122.028 106.957 123.241C107.049 124.798 108.698 125.773 110.223 126.102C111.749 126.432 113.397 126.417 114.708 127.261C112.554 128.696 111.941 131.995 113.428 134.113C114.915 136.231 118.22 136.768 120.297 135.225C119.17 137.711 120.435 140.88 122.751 142.323C125.066 143.765 128.133 143.658 130.609 142.507C133.085 141.364 135.048 139.3 136.589 137.044C140.338 131.55 141.887 124.599 140.813 118.038V118.023Z" fill="#263238"/>
<path d="M176.663 107.25C176.502 105.378 174.877 103.897 173.098 103.314C171.319 102.731 169.387 102.862 167.517 103C168.36 100.644 169.211 98.2119 169.065 95.7105C168.92 93.2092 167.524 90.6081 165.14 89.8408C163.093 89.181 160.854 89.9943 158.999 91.0915C157.144 92.1887 155.434 93.5928 153.387 94.2604C148.066 96.0021 142.416 92.3268 136.834 92.7488C131.1 93.1862 125.595 99.0329 125.718 104.78C134.458 109.376 143.274 114.033 150.788 120.448C154.851 123.916 159.152 128.136 164.48 127.936C167.8 127.814 170.967 125.75 172.439 122.772C173.903 119.795 173.604 116.02 171.687 113.312C174.118 111.969 176.893 110.013 176.655 107.243L176.663 107.25Z" fill="#263238"/>
<path d="M166.006 118.898C166.336 111.44 159.16 103.176 151.7 103.161L127.282 105.133L126.929 109.13L123.081 158.658C123.081 158.658 123.418 174.802 136.942 175.347C149.094 175.83 149.799 163.009 149.807 163.001L150.443 153.656C150.443 153.656 160.226 154.315 163.522 142.177C165.163 136.139 165.646 127.2 166.014 118.905L166.006 118.898Z" fill="#FFBE9D"/>
<path d="M161.598 129.555C161.536 130.392 160.777 131.036 159.896 130.99C159.022 130.944 158.355 130.223 158.416 129.386C158.477 128.55 159.236 127.906 160.11 127.952C160.984 127.998 161.651 128.719 161.59 129.555H161.598Z" fill="#263238"/>
<path d="M163.116 125.235C162.894 125.42 161.797 124.407 160.088 124.223C158.386 124.015 157.044 124.76 156.883 124.53C156.799 124.43 157.044 124.077 157.627 123.739C158.202 123.402 159.16 123.118 160.218 123.233C161.276 123.356 162.127 123.839 162.595 124.299C163.078 124.76 163.216 125.151 163.108 125.235H163.116Z" fill="#263238"/>
<path d="M147.184 128.036C147.123 128.872 146.364 129.517 145.482 129.471C144.608 129.425 143.941 128.704 144.003 127.867C144.064 127.031 144.823 126.386 145.697 126.432C146.571 126.478 147.238 127.2 147.177 128.036H147.184Z" fill="#263238"/>
<path d="M147.414 123.808C147.192 123.992 146.088 122.98 144.386 122.795C142.684 122.588 141.342 123.333 141.181 123.102C141.105 123.003 141.342 122.65 141.925 122.312C142.5 121.975 143.458 121.691 144.516 121.806C145.574 121.928 146.425 122.412 146.901 122.872C147.376 123.333 147.514 123.724 147.414 123.808Z" fill="#263238"/>
<path d="M151.202 136.745C151.202 136.66 152.283 136.614 154.016 136.599C154.453 136.599 154.874 136.576 154.982 136.33C155.112 136.077 154.982 135.663 154.821 135.21C154.514 134.274 154.192 133.3 153.862 132.271C153.494 131.205 151.785 125.197 151.823 124.637C152.022 124.599 153.257 127.952 154.575 132.126C154.89 133.154 155.196 134.136 155.48 135.072C155.595 135.509 155.825 136.008 155.541 136.537C155.396 136.798 155.051 136.967 154.759 137.006C154.476 137.052 154.23 137.029 154.008 137.021C152.275 136.929 151.202 136.821 151.202 136.737V136.745Z" fill="#263238"/>
<path d="M150.504 153.732C150.504 153.732 142.14 153.372 134.45 147.533C134.45 147.533 137.739 156.617 150.221 156.794L150.504 153.732Z" fill="#EB996E"/>
<path d="M146.08 136.346C146.356 136.361 146.165 138.21 147.606 139.691C149.04 141.18 151.033 141.187 151.025 141.448C151.041 141.563 150.55 141.763 149.714 141.694C148.894 141.632 147.729 141.241 146.847 140.336C145.965 139.422 145.666 138.31 145.689 137.543C145.705 136.76 145.958 136.323 146.08 136.353V136.346Z" fill="#263238"/>
<path d="M147.468 118.061C147.215 118.568 145.789 118.015 144.003 117.946C142.216 117.831 140.691 118.223 140.553 117.701C140.499 117.448 140.844 116.995 141.511 116.596C142.17 116.189 143.167 115.882 144.24 115.936C145.314 115.997 146.218 116.404 146.778 116.872C147.345 117.34 147.583 117.824 147.468 118.069V118.061Z" fill="#263238"/>
<path d="M163.806 119.389C163.476 119.842 162.249 119.32 160.762 119.243C159.275 119.113 158.002 119.458 157.726 118.967C157.611 118.729 157.818 118.276 158.385 117.854C158.945 117.44 159.865 117.118 160.885 117.187C161.904 117.256 162.778 117.708 163.284 118.2C163.798 118.691 163.951 119.174 163.806 119.389Z" fill="#263238"/>
<path d="M165.692 111.785C163.921 107.319 160.011 103.913 155.564 102.11C151.118 100.307 146.18 99.9842 141.404 100.46C136.628 100.936 131.966 102.179 127.336 103.422C126.209 103.721 124.982 104.097 124.361 105.079C123.939 105.747 123.878 106.575 123.832 107.365C123.433 114.01 123.027 120.662 122.628 127.307L123.947 131.573C126.086 131.842 128.072 130.484 129.651 129.018C135.179 123.916 138.621 116.619 139.05 109.107C139.587 110.005 139.664 111.094 139.894 112.115C140.124 113.135 140.614 114.217 141.588 114.609C143.213 115.253 144.839 113.519 145.291 111.831C145.751 110.143 145.674 108.248 146.686 106.828C148.097 109.483 150.121 111.808 152.551 113.58C153.694 114.417 155.265 115.13 156.461 114.378C157.312 113.849 157.642 112.729 157.512 111.731C157.381 110.734 156.883 109.836 156.392 108.961C158.163 111.417 160.663 113.335 163.492 114.401C164.113 114.639 164.849 114.823 165.408 114.463C166.221 113.933 166.045 112.706 165.692 111.8V111.785Z" fill="#263238"/>
<path d="M127.995 123.317C127.818 123.217 120.642 120.31 120.121 127.883C119.6 135.456 127.305 134.412 127.335 134.197C127.366 133.982 127.995 123.317 127.995 123.317Z" fill="#FFBE9D"/>
<path d="M125.219 131.167C125.219 131.167 125.081 131.251 124.851 131.335C124.629 131.42 124.246 131.466 123.862 131.289C123.08 130.944 122.498 129.624 122.551 128.259C122.582 127.568 122.766 126.923 123.05 126.394C123.318 125.857 123.701 125.496 124.108 125.45C124.514 125.381 124.782 125.642 124.859 125.865C124.943 126.087 124.89 126.233 124.928 126.248C124.951 126.271 125.097 126.133 125.058 125.819C125.035 125.665 124.959 125.481 124.79 125.328C124.621 125.166 124.353 125.074 124.077 125.082C123.494 125.082 122.927 125.581 122.62 126.164C122.275 126.739 122.053 127.468 122.022 128.243C121.969 129.77 122.651 131.251 123.724 131.642C124.246 131.819 124.706 131.688 124.943 131.527C125.189 131.358 125.242 131.19 125.219 131.174V131.167Z" fill="#EB996E"/>
<path d="M137.593 108.01C137.593 108.01 137.532 108.163 137.394 108.432C137.248 108.708 137.026 109.1 136.712 109.591C136.083 110.58 135.094 111.969 133.637 113.481C132.909 114.233 132.058 115.015 131.084 115.775C130.594 116.151 130.088 116.534 129.528 116.895C128.968 117.24 128.309 117.586 127.55 117.57C126.783 117.57 126.055 117.079 125.672 116.419C125.273 115.76 125.097 114.977 125.112 114.194C125.189 112.598 126.024 111.202 126.339 109.69C126.385 109.491 126.415 109.291 126.431 109.107L126.768 109.276C125.603 110.312 124.46 111.325 123.364 112.299C122.812 112.782 122.275 113.266 121.746 113.734C121.217 114.194 120.642 114.662 119.906 114.816C119.538 114.885 119.132 114.816 118.825 114.616C118.503 114.417 118.296 114.102 118.166 113.788C117.905 113.151 117.89 112.491 117.913 111.9C117.928 110.688 118.143 109.575 118.411 108.585C118.971 106.606 119.853 105.171 120.535 104.266C120.872 103.813 121.171 103.483 121.378 103.268C121.585 103.053 121.7 102.946 121.708 102.954C121.739 102.977 121.302 103.429 120.658 104.358C120.029 105.278 119.193 106.713 118.68 108.662C118.434 109.637 118.243 110.726 118.235 111.908C118.22 112.499 118.25 113.105 118.48 113.657C118.687 114.21 119.239 114.593 119.837 114.463C120.435 114.34 120.98 113.91 121.501 113.45C122.022 112.982 122.559 112.506 123.111 112.015C124.207 111.041 125.334 110.036 126.5 109L126.898 108.647L126.837 109.169C126.814 109.368 126.783 109.583 126.737 109.798C126.392 111.394 125.572 112.782 125.511 114.233C125.495 114.946 125.656 115.667 126.001 116.243C126.346 116.826 126.929 117.217 127.565 117.225C128.202 117.248 128.807 116.949 129.352 116.619C129.896 116.281 130.402 115.898 130.893 115.537C131.859 114.793 132.71 114.033 133.446 113.304C134.918 111.839 135.93 110.488 136.597 109.529C136.926 109.054 137.179 108.67 137.34 108.409C137.509 108.148 137.601 108.018 137.609 108.025L137.593 108.01Z" fill="#455A64"/>
<path d="M109.48 245.852C109.48 245.852 112.017 257.269 116.096 258.397C118.672 259.11 155.096 263.952 155.096 263.952L165.009 272.193L198.359 253.241L175.942 239.468L158.539 229.348L128.478 230.606L109.48 245.852Z" fill="#263238"/>
<path d="M151.171 158.704C145.268 160.791 133.154 156.832 123.939 152.144C123.395 152.328 108.483 156.464 105.777 175.983C103.07 195.503 106.244 242.33 106.244 242.33L107.655 248.683C107.655 248.683 130.126 235.9 139.334 233.913C148.541 231.926 158.554 229.348 158.554 229.348L151.179 158.712L151.171 158.704Z" fill="#FF725E"/>
<g opacity="0.3">
<path d="M112.96 185.659C112.96 185.659 116.893 205.677 122.896 210.856C128.899 216.035 134.672 216.526 139.364 215.13C144.064 213.734 155.878 206.36 155.878 206.36L155.487 201.557C155.487 201.557 128.524 194.674 128.485 194.421C128.447 194.168 112.96 185.659 112.96 185.659Z" fill="black"/>
</g>
<path d="M126.208 201.841C126.208 201.841 130.003 212.329 139.947 209.997C149.898 207.664 181.148 190.393 181.148 190.393L174.93 179.659L143.804 189.303L126.208 201.841Z" fill="#FFBE9D"/>
<path d="M170.821 181.132L177.038 173.505C177.038 173.505 186.836 167.282 188.853 167.436C190.869 167.589 193.514 168.057 192.425 171.011C192.425 171.011 195.538 172.561 194.909 174.28C194.288 175.991 192.111 176.459 192.111 176.459C192.111 176.459 195.538 176.927 194.994 179.106C194.442 181.285 193.2 181.132 193.2 181.132C193.2 181.132 194.135 182.375 193.353 182.996C192.579 183.618 189.466 184.861 189.466 184.861C189.466 184.861 185.717 188.597 182.926 189.994C180.136 191.398 177.023 191.858 177.023 191.858L170.805 181.124L170.821 181.132Z" fill="#FFBE9D"/>
<path d="M133.231 161.037C128.271 157.423 121.371 158.367 117.538 163.154C116.426 164.543 115.36 166.139 114.517 167.927C112.37 172.492 111.22 182.881 111.22 182.881L123.832 203.667L148.089 186.38L137.417 164.428C137.417 164.428 135.616 162.771 133.224 161.037H133.231Z" fill="#FF725E"/>
<path d="M118.09 158.842C118.09 158.842 118.197 158.796 118.404 158.735C118.634 158.666 118.948 158.574 119.339 158.459C119.546 158.405 119.776 158.321 120.037 158.275C120.298 158.236 120.589 158.198 120.896 158.152C121.21 158.121 121.54 158.037 121.9 158.037C122.26 158.037 122.644 158.029 123.05 158.021C124.668 158.067 126.661 158.443 128.723 159.456C129.751 159.963 130.801 160.607 131.798 161.428C132.802 162.249 133.799 163.185 134.673 164.336V164.344C138.406 170.451 143.014 178.009 148.059 186.273L148.158 186.434L148.005 186.541C146.732 187.447 145.375 188.413 144.011 189.388C136.574 194.674 129.62 199.623 123.732 203.805L123.579 203.912L123.487 203.751C119.738 197.513 116.602 192.311 114.402 188.644C113.329 186.833 112.478 185.398 111.88 184.4C111.604 183.925 111.389 183.549 111.228 183.273C111.082 183.019 111.013 182.881 111.021 182.874C111.029 182.866 111.113 182.996 111.274 183.242C111.443 183.51 111.673 183.879 111.972 184.339C112.585 185.329 113.467 186.741 114.571 188.536C116.809 192.188 119.976 197.36 123.778 203.567L123.533 203.513C129.413 199.316 136.359 194.352 143.78 189.05C145.153 188.076 146.502 187.109 147.775 186.204L147.721 186.472C142.699 178.193 138.115 170.62 134.404 164.497C132.687 162.295 130.602 160.668 128.593 159.663C126.577 158.643 124.622 158.252 123.027 158.182C122.628 158.182 122.245 158.182 121.892 158.182C121.532 158.175 121.21 158.252 120.896 158.282C120.589 158.321 120.305 158.351 120.045 158.382C119.784 158.42 119.554 158.497 119.347 158.543C118.948 158.643 118.634 158.712 118.404 158.773C118.189 158.819 118.074 158.842 118.074 158.835L118.09 158.842Z" fill="#263238"/>
<path d="M194.174 255.619C194.174 255.619 199.709 264.957 196.957 271.494C194.204 278.032 157.243 312.958 157.243 312.958L144.478 302.462L169.28 269.599L194.174 255.619Z" fill="#FFBE9D"/>
<path d="M158.892 311.286L158.133 312.114C158.133 312.114 166.903 330.606 164.603 333.383L137.057 307.656L145.989 298.833C148.312 304.556 152.398 308.777 158.892 311.286Z" fill="#FF725E"/>
<path d="M137.064 307.656L139.211 305.531L164.825 330.966C164.825 330.966 165.554 332.647 164.611 333.383L137.064 307.656Z" fill="#E0E0E0"/>
<path d="M154.851 315.214C154.813 315.183 154.936 314.93 155.265 314.608C155.587 314.293 156.132 313.933 156.806 313.741C157.481 313.557 158.133 313.58 158.577 313.679C159.022 313.787 159.26 313.94 159.244 313.986C159.214 314.101 158.163 313.772 156.921 314.132C155.672 314.462 154.943 315.291 154.859 315.214H154.851Z" fill="#263238"/>
<path d="M153.694 313.549C153.609 313.488 154.383 312.59 155.74 312.222C157.097 311.838 158.225 312.222 158.179 312.314C158.156 312.436 157.09 312.26 155.848 312.613C154.598 312.943 153.77 313.641 153.694 313.549Z" fill="#263238"/>
<path d="M156.369 317.861C156.27 317.823 156.661 316.902 157.665 316.281C158.662 315.644 159.658 315.69 159.651 315.789C159.666 315.905 158.777 316.043 157.88 316.618C156.975 317.178 156.469 317.923 156.369 317.861Z" fill="#263238"/>
<path d="M159.053 314.309C159.007 314.309 159.03 313.741 159.459 312.966C159.674 312.582 159.98 312.16 160.356 311.731C160.548 311.516 160.747 311.301 160.962 311.078C161.069 310.971 161.176 310.848 161.337 310.733C161.498 310.626 161.736 310.549 161.974 310.626C162.234 310.702 162.365 311.009 162.334 311.209C162.319 311.416 162.25 311.585 162.173 311.738C162.027 312.022 161.851 312.275 161.659 312.506C161.284 312.958 160.87 313.288 160.494 313.511C159.735 313.956 159.175 314.009 159.168 313.971C159.145 313.91 159.658 313.756 160.333 313.273C160.67 313.027 161.038 312.697 161.368 312.268C161.537 312.053 161.69 311.815 161.82 311.554C161.958 311.309 161.966 311.025 161.836 311.009C161.667 310.948 161.46 311.124 161.245 311.355C161.038 311.569 160.831 311.777 160.632 311.976C160.249 312.383 159.934 312.759 159.704 313.104C159.237 313.795 159.114 314.309 159.053 314.293V314.309Z" fill="#263238"/>
<path d="M159.321 314.401C159.321 314.401 159.237 314.408 159.083 314.362L158.968 314.324L159.083 314.247C159.313 314.094 159.827 313.825 160.555 313.656C160.923 313.572 161.337 313.518 161.797 313.518C162.027 313.518 162.257 313.534 162.503 313.557C162.625 313.572 162.763 313.595 162.909 313.664C163.055 313.741 163.193 313.879 163.239 314.071C163.308 314.347 163.085 314.585 162.917 314.646C162.748 314.731 162.587 314.754 162.449 314.784C162.158 314.846 161.866 314.869 161.598 314.876C161.054 314.892 160.563 314.807 160.172 314.7C159.382 314.47 158.976 314.147 158.999 314.109C159.03 314.048 159.474 314.278 160.233 314.416C160.617 314.485 161.077 314.531 161.583 314.5C161.836 314.485 162.104 314.447 162.372 314.393C162.656 314.347 162.901 314.217 162.848 314.147C162.825 313.917 162.181 313.917 161.797 313.887C161.368 313.879 160.977 313.91 160.624 313.963C159.919 314.071 159.405 314.263 159.145 314.339V314.224C159.275 314.309 159.336 314.355 159.329 314.378L159.321 314.401Z" fill="#263238"/>
<path d="M157.887 266.714V367.834H165.999V266.714H157.887Z" fill="#455A64"/>
<path d="M161.322 313.518H92.4675V320.232H161.322V313.518Z" fill="#455A64"/>
<path d="M95.2888 160.369H86.6255V367.842H95.2888V160.369Z" fill="#455A64"/>
<path d="M170.131 259.348H86.6255V273.95H170.131V259.348Z" fill="#455A64"/>
<path d="M170.131 273.95C170.131 274.057 151.485 274.149 128.493 274.149C105.501 274.149 86.8555 274.057 86.8555 273.95C86.8555 273.842 105.493 273.75 128.493 273.75C151.493 273.75 170.131 273.842 170.131 273.95Z" fill="#263238"/>
<path d="M127.343 259.348C127.343 259.456 118.182 259.548 106.881 259.548C95.5802 259.548 86.4109 259.456 86.4109 259.348C86.4109 259.241 95.5726 259.149 106.881 259.149C118.189 259.149 127.343 259.241 127.343 259.348Z" fill="#263238"/>
<path d="M95.2889 276.374C95.3963 276.374 95.4883 294.95 95.4883 317.861C95.4883 340.772 95.3963 359.356 95.2889 359.356C95.1816 359.356 95.0896 340.78 95.0896 317.861C95.0896 294.942 95.1816 276.374 95.2889 276.374Z" fill="#263238"/>
</svg>
