<svg width="575" height="575" viewBox="0 0 575 575" fill="none" xmlns="http://www.w3.org/2000/svg">
<path d="M399.155 131.627L103.205 162.784L142.918 539.993L438.867 508.835L399.155 131.627Z" fill="#E0E0E0"/>
<path d="M410.445 139.696L117.448 183.641L169.188 528.612L462.186 484.667L410.445 139.696Z" fill="#EBEBEB"/>
<path d="M525.688 170.844C525.688 170.844 514.084 163.173 499.951 190.911C485.817 218.649 480.458 234.657 480.458 234.657C480.458 234.657 476.721 240.465 472.73 236.67C468.74 232.875 463.266 222.088 456.481 224.031C449.443 226.044 447.12 233.898 448.465 245.444C449.811 256.99 451.823 282.382 451.996 284.682C452.168 286.936 450.88 290.26 447.741 288.109C444.601 285.959 426.569 265.88 417.553 275C408.537 284.13 417.553 315.664 418.473 319.137C419.393 322.598 418.715 324.081 417.07 324.944C415.426 325.806 409.998 318.481 404.639 312.984C399.28 307.487 392.092 302.047 387.331 307.74C382.57 313.433 381.052 337.111 403.569 375.556L415.173 392.69L435.919 391.54C480.171 386.365 498.145 370.898 499.836 363.665C501.515 356.431 492.855 353.97 485.231 353.004C477.606 352.038 468.498 352.118 468.188 350.278C467.877 348.45 468.659 347.013 471.971 345.655C475.295 344.299 505.908 332.511 507.759 319.815C509.611 307.119 482.724 304.819 479.113 303.612C475.502 302.404 477.376 299.368 479.285 298.149C481.229 296.907 502.711 283.21 512.739 277.334C522.767 271.458 527.631 264.868 525.009 258.037C522.468 251.447 510.577 253.575 505.137 252.678C499.698 251.781 502.09 245.295 502.09 245.295C502.09 245.295 511.635 231.38 525.274 203.389C538.901 175.398 525.446 170.706 525.446 170.706" fill="#E0E0E0"/>
<path d="M512.992 195.661C512.992 195.661 512.911 195.868 512.739 196.259C512.543 196.673 512.279 197.248 511.934 197.995C511.198 199.536 510.128 201.779 508.76 204.642C506 210.415 501.94 218.73 496.892 228.988C486.795 249.504 472.615 277.736 456.86 308.867C441.094 340.009 426.845 368.195 416.656 388.666C411.573 398.889 407.468 407.169 404.604 412.919C403.19 415.759 402.086 417.979 401.327 419.509C400.959 420.245 400.671 420.808 400.464 421.21C400.269 421.59 400.154 421.785 400.154 421.785C400.154 421.785 400.234 421.578 400.407 421.187C400.602 420.774 400.867 420.198 401.212 419.451C401.948 417.91 403.017 415.667 404.386 412.804C407.146 407.042 411.205 398.717 416.254 388.458C426.351 367.943 440.53 339.71 456.297 308.568C472.052 277.438 486.3 249.251 496.501 228.781C501.584 218.558 505.689 210.278 508.553 204.528C509.967 201.687 511.071 199.467 511.83 197.938C512.198 197.202 512.486 196.638 512.693 196.236C512.888 195.856 513.003 195.661 513.003 195.661H512.992Z" fill="#EBEBEB"/>
<path d="M463.519 239.419C463.519 239.419 463.749 239.902 464.036 240.822C464.335 241.73 464.726 243.064 465.198 244.72C466.129 248.032 467.314 252.632 468.521 257.726C469.694 262.764 470.752 267.317 471.569 270.802C471.948 272.366 472.259 273.688 472.512 274.758C472.742 275.689 472.845 276.218 472.799 276.23C472.753 276.241 472.569 275.747 472.27 274.827C471.971 273.907 471.58 272.573 471.12 270.917C470.212 267.594 469.096 262.982 467.889 257.887C466.681 252.862 465.589 248.32 464.749 244.847C464.37 243.283 464.036 241.96 463.783 240.902C463.565 239.97 463.461 239.441 463.507 239.43L463.519 239.419Z" fill="#EBEBEB"/>
<path d="M474.72 276.587C474.674 276.414 484.046 273.574 495.673 270.227C507.288 266.892 516.752 264.316 516.798 264.489C516.844 264.661 507.472 267.502 495.845 270.848C484.23 274.183 474.766 276.759 474.72 276.587Z" fill="#EBEBEB"/>
<path d="M448.35 323.299C448.35 323.299 448.891 323.23 449.88 323.23C450.995 323.23 452.387 323.23 454.031 323.242C457.539 323.242 462.38 323.242 467.716 323.035C473.064 322.839 477.882 322.494 481.378 322.218C483.023 322.092 484.403 321.977 485.518 321.896C486.496 321.827 487.036 321.804 487.048 321.85C487.059 321.896 486.519 322 485.553 322.149C484.587 322.299 483.172 322.483 481.424 322.678C477.94 323.069 473.098 323.495 467.739 323.69C462.38 323.897 457.527 323.84 454.02 323.713C452.26 323.644 450.846 323.575 449.868 323.495C448.891 323.426 448.35 323.357 448.35 323.311V323.299Z" fill="#EBEBEB"/>
<path d="M430.836 291.905C430.836 291.905 431.158 292.296 431.641 293.066C432.181 293.952 432.848 295.056 433.642 296.344C435.309 299.127 436.655 303.899 440.036 307.269C442.497 311.558 444.705 315.457 446.269 318.297C446.993 319.631 447.603 320.758 448.097 321.678C448.511 322.483 448.73 322.943 448.695 322.954C448.661 322.977 448.373 322.564 447.89 321.793C447.35 320.908 446.683 319.804 445.889 318.516C444.222 315.733 441.956 311.869 439.495 307.591C437.034 303.301 434.826 299.403 433.262 296.574C432.538 295.24 431.928 294.113 431.434 293.193C431.02 292.388 430.801 291.928 430.836 291.916V291.905Z" fill="#EBEBEB"/>
<path d="M402.316 330.188C402.316 330.188 402.718 330.694 403.339 331.683C404.006 332.776 404.88 334.179 405.915 335.869C408.066 339.423 411.01 344.345 414.218 349.807C417.427 355.27 420.313 360.238 422.36 363.849C423.326 365.585 424.143 367.023 424.764 368.138C425.316 369.162 425.603 369.737 425.569 369.76C425.534 369.783 425.166 369.254 424.545 368.265C423.878 367.172 423.004 365.769 421.969 364.079C419.819 360.525 416.875 355.603 413.666 350.129C410.458 344.667 407.583 339.699 405.524 336.088C404.558 334.351 403.742 332.914 403.121 331.798C402.569 330.775 402.281 330.199 402.316 330.176V330.188Z" fill="#EBEBEB"/>
<path d="M425.293 368.656C425.293 368.656 425.983 368.564 427.225 368.518C428.582 368.472 430.353 368.414 432.492 368.345C436.931 368.196 443.072 367.966 449.845 367.517C456.619 367.08 462.737 366.528 467.164 366.091C469.292 365.884 471.051 365.712 472.408 365.585C473.65 365.47 474.34 365.424 474.34 365.47C474.34 365.516 473.673 365.643 472.443 365.838C471.212 366.034 469.43 366.275 467.222 366.551C462.806 367.103 456.676 367.724 449.903 368.161C443.118 368.61 436.977 368.771 432.515 368.805C430.284 368.805 428.49 368.805 427.248 368.771C426.006 368.736 425.316 368.702 425.316 368.656H425.293Z" fill="#EBEBEB"/>
<path d="M81.558 360.042C85.5715 357.822 90.5395 357.742 94.898 359.145C99.268 360.548 103.086 363.308 106.375 366.494C112.746 372.658 116.748 382.053 119.037 390.621C109.377 392.553 99.383 387.01 94.4955 383.893C86.756 378.948 75.785 365.32 81.558 360.053" fill="#E8505B"/>
<path d="M135.826 392.644C131.157 390.551 128.087 385.572 127.719 380.466C127.351 375.36 129.467 370.242 132.894 366.436C134.481 364.676 136.574 363.078 138.943 363.193C141.151 363.296 143.071 364.964 144.003 366.965C144.934 368.977 145.015 371.277 144.796 373.474C144.072 381.029 141.99 388.205 135.826 392.644Z" fill="#E8505B"/>
<path d="M151.432 416.668C151.432 416.668 150.949 416.219 150.155 415.357C149.293 414.391 148.166 413.149 146.82 411.665C144.083 408.526 140.081 404.11 137.505 398.13C134.918 392.184 134.285 386.158 134.895 381.972C135.171 379.868 135.654 378.212 136.079 377.108C136.275 376.544 136.493 376.142 136.62 375.854C136.758 375.578 136.838 375.429 136.85 375.44C136.999 375.486 135.769 377.855 135.343 382.018C134.86 386.147 135.55 392.035 138.092 397.877C140.61 403.742 144.497 408.146 147.154 411.366C148.499 412.976 149.603 414.276 150.328 415.196C151.064 416.116 151.443 416.645 151.409 416.668H151.432Z" fill="#263238"/>
<path d="M90.827 369.679C90.827 369.679 91.0685 369.806 91.5055 370.093C91.9885 370.427 92.621 370.852 93.3915 371.369C95.0245 372.485 97.359 374.141 100.222 376.2C105.961 380.328 113.804 386.135 122.314 392.748C130.835 399.36 138.402 405.525 143.819 410.056C146.533 412.321 148.707 414.172 150.19 415.472C150.892 416.093 151.455 416.587 151.892 416.978C152.271 417.323 152.467 417.519 152.456 417.542C152.444 417.553 152.214 417.404 151.811 417.082C151.351 416.714 150.765 416.243 150.029 415.668C148.431 414.38 146.222 412.585 143.531 410.412C138.046 405.973 130.433 399.866 121.923 393.254C113.413 386.653 105.616 380.788 99.958 376.568C97.175 374.498 94.898 372.795 93.2535 371.576C92.506 371.013 91.908 370.553 91.4365 370.196C91.0225 369.874 90.8155 369.702 90.827 369.679Z" fill="#263238"/>
<path d="M132.25 406.1C122.774 400.936 110.745 400.752 101.119 405.628C98.67 406.87 96.071 408.963 96.2895 411.7C96.508 414.448 99.4175 416.104 102.062 416.875C113.056 420.095 125.844 415.84 132.721 406.686" fill="#E8505B"/>
<path d="M108.468 409.768C108.468 409.768 108.986 409.434 109.975 408.94C110.469 408.687 111.079 408.376 111.815 408.112C112.551 407.836 113.367 407.445 114.322 407.181C115.265 406.893 116.3 406.548 117.45 406.318C118.577 406.031 119.819 405.846 121.118 405.662C123.729 405.363 126.627 405.271 129.651 405.616C132.664 405.984 135.482 406.732 137.943 407.64C139.162 408.135 140.323 408.595 141.347 409.159C142.405 409.653 143.325 410.239 144.164 410.768C145.027 411.263 145.717 411.849 146.361 412.298C147.005 412.746 147.511 413.206 147.925 413.574C148.753 414.31 149.19 414.736 149.167 414.771C149.075 414.886 147.292 413.195 143.934 411.159C143.083 410.665 142.175 410.113 141.117 409.641C140.093 409.101 138.943 408.664 137.747 408.204C135.309 407.341 132.549 406.628 129.582 406.26C126.615 405.927 123.763 405.996 121.199 406.26C119.911 406.421 118.692 406.582 117.576 406.847C116.438 407.042 115.414 407.364 114.471 407.629C110.711 408.767 108.549 409.917 108.491 409.779L108.468 409.768Z" fill="#263238"/>
<path d="M430.79 451.203C422.74 446.028 419.842 439.392 418.577 429.904C417.324 420.417 420.429 410.446 426.846 403.351C432.205 397.44 439.726 393.404 443.613 386.435C447.753 379.017 447.224 369.127 453.146 363.032C457.217 358.835 463.347 357.524 468.361 354.534C472.455 352.096 475.778 348.565 479.493 345.587C483.207 342.608 487.669 340.078 492.43 340.251C499.618 340.515 505.46 347.335 506.081 354.499C506.702 361.664 502.953 368.679 497.663 373.543C493.822 377.074 489.026 379.845 486.6 384.457C482.034 393.128 487.6 404.708 482.667 413.172C479.067 419.348 470.488 422.579 469.557 429.663C469.212 432.274 470.051 434.884 470.132 437.518C470.385 445.74 462.956 452.663 454.929 454.434C446.89 456.205 438.541 453.986 430.802 451.203" fill="#455A64"/>
<path d="M478.021 369.736C478.021 369.736 477.768 370.093 477.216 370.702C476.595 371.369 475.79 372.243 474.789 373.313C473.72 374.44 472.409 375.797 470.994 377.487C469.58 379.166 467.843 380.972 466.164 383.168C464.439 385.33 462.507 387.665 460.644 390.333C459.701 391.655 458.666 392.978 457.723 394.427C456.769 395.876 455.791 397.359 454.791 398.889C450.915 405.076 447.017 412.114 443.659 419.853C440.347 427.616 437.909 435.275 436.126 442.359C435.321 445.924 434.528 449.305 434.056 452.525C433.447 455.722 433.136 458.735 432.826 461.483C432.435 464.22 432.412 466.727 432.228 468.924C432.044 471.12 432.032 473.006 432.009 474.559C431.975 476.019 431.94 477.204 431.917 478.124C431.883 478.94 431.86 479.366 431.825 479.366C431.791 479.366 431.756 478.94 431.722 478.124C431.699 477.204 431.664 476.019 431.618 474.547C431.572 472.995 431.538 471.097 431.664 468.889C431.791 466.693 431.768 464.163 432.113 461.414C432.389 458.654 432.653 455.618 433.228 452.398C433.665 449.155 434.436 445.751 435.218 442.152C436.966 435.01 439.392 427.282 442.727 419.462C446.108 411.677 450.064 404.604 454.009 398.406C455.032 396.876 456.021 395.393 456.987 393.944C457.953 392.495 459.011 391.172 459.966 389.85C461.863 387.193 463.841 384.87 465.601 382.731C467.326 380.546 469.097 378.764 470.569 377.119C472.029 375.463 473.386 374.141 474.502 373.049C475.56 372.025 476.411 371.197 477.066 370.553C477.664 369.989 477.986 369.713 478.009 369.736H478.021Z" fill="#263238"/>
<path d="M437.966 160.022H141.691V508.852H437.966V160.022Z" fill="#FAFAFA"/>
<path d="M437.978 508.852C437.978 506.54 437.874 367.873 437.713 160.023L437.978 160.287C350.428 160.287 249.147 160.31 141.726 160.322H141.691L141.99 160.023C141.967 288.822 141.956 408.791 141.944 508.852L141.691 508.599C320.171 508.748 435.862 508.852 437.966 508.852C435.85 508.852 320.16 508.955 141.691 509.105H141.438V508.852C141.427 408.791 141.404 288.822 141.392 160.023V159.724H141.691H141.726C249.136 159.735 350.428 159.747 437.978 159.758H438.242V160.023C438.081 367.873 437.978 506.54 437.978 508.852Z" fill="#263238"/>
<path d="M306.555 217.028H300.782L299.54 219.8H298.402L303.14 209.438H304.221L308.959 219.8H307.809L306.567 217.028H306.555ZM306.153 216.142L303.669 210.577L301.185 216.142H306.164H306.153Z" fill="black"/>
<path d="M317.492 208.806V219.8H316.48V218.258C315.847 219.305 314.766 219.869 313.478 219.869C311.259 219.869 309.603 218.259 309.603 215.901C309.603 213.544 311.259 211.945 313.478 211.945C314.72 211.945 315.79 212.474 316.445 213.486V208.806H317.492ZM316.457 215.901C316.457 214.084 315.215 212.865 313.57 212.865C311.926 212.865 310.672 214.084 310.672 215.901C310.672 217.718 311.914 218.937 313.57 218.937C315.226 218.937 316.457 217.718 316.457 215.901Z" fill="black"/>
<path d="M327.531 208.806V219.8H326.519V218.258C325.887 219.305 324.806 219.869 323.518 219.869C321.298 219.869 319.642 218.259 319.642 215.901C319.642 213.544 321.298 211.945 323.518 211.945C324.76 211.945 325.829 212.474 326.485 213.486V208.806H327.531ZM326.496 215.901C326.496 214.084 325.254 212.865 323.61 212.865C321.965 212.865 320.712 214.084 320.712 215.901C320.712 217.718 321.954 218.937 323.61 218.937C325.266 218.937 326.496 217.718 326.496 215.901Z" fill="black"/>
<path d="M341.354 212.003V219.788H340.354V218.362C339.802 219.305 338.801 219.857 337.559 219.857C335.57 219.857 334.271 218.742 334.271 216.511V211.991H335.317V216.407C335.317 218.063 336.179 218.914 337.663 218.914C339.296 218.914 340.308 217.867 340.308 216.085V212.003H341.354Z" fill="black"/>
<path d="M343.218 218.914L343.689 218.086C344.31 218.58 345.368 218.96 346.461 218.96C347.944 218.96 348.554 218.454 348.554 217.683C348.554 215.659 343.505 217.258 343.505 214.176C343.505 212.9 344.598 211.956 346.587 211.956C347.599 211.956 348.692 212.233 349.347 212.681L348.887 213.52C348.209 213.049 347.392 212.853 346.587 212.853C345.184 212.853 344.563 213.406 344.563 214.142C344.563 216.246 349.612 214.659 349.612 217.649C349.612 218.994 348.427 219.869 346.403 219.869C345.115 219.869 343.873 219.455 343.229 218.903L343.218 218.914Z" fill="black"/>
<path d="M358.328 216.234H351.808C351.923 217.867 353.165 218.948 354.878 218.948C355.821 218.948 356.672 218.604 357.259 217.925L357.845 218.603C357.155 219.431 356.074 219.88 354.844 219.88C352.417 219.88 350.761 218.224 350.761 215.913C350.761 213.601 352.371 211.956 354.568 211.956C356.764 211.956 358.34 213.567 358.34 215.913C358.34 216.005 358.328 216.119 358.328 216.234ZM351.808 215.453H357.328C357.19 213.923 356.086 212.865 354.556 212.865C353.027 212.865 351.934 213.935 351.796 215.453H351.808Z" fill="black"/>
<path d="M364.412 211.945V212.969C364.32 212.969 364.239 212.957 364.159 212.957C362.526 212.957 361.537 213.992 361.537 215.832V219.8H360.49V212.014H361.491V213.544C361.985 212.509 362.974 211.956 364.412 211.956V211.945Z" fill="black"/>
<path d="M285.004 321.184C285.004 321.184 284.993 320.954 284.981 320.54C284.981 320.103 284.981 319.481 284.958 318.676C284.958 317.02 284.935 314.605 284.912 311.489C284.889 305.221 284.855 296.114 284.809 284.66L285.004 284.855C257.473 284.878 215.567 284.924 168.751 284.958L169.05 284.66C169.05 297.321 169.05 309.626 169.05 321.195L168.762 320.907C202.135 320.965 231.161 321.011 251.861 321.046C262.211 321.08 270.491 321.103 276.195 321.126C279.036 321.137 281.232 321.16 282.739 321.16C283.475 321.16 284.038 321.172 284.441 321.184C284.82 321.184 285.027 321.207 285.027 321.207C285.027 321.207 284.843 321.218 284.475 321.229C284.084 321.229 283.532 321.23 282.808 321.253C281.313 321.253 279.139 321.276 276.322 321.287C270.629 321.31 262.384 321.333 252.057 321.368C231.311 321.402 202.216 321.448 168.762 321.506H168.475V321.218C168.475 309.638 168.475 297.344 168.475 284.683V284.383H168.774C215.59 284.429 257.496 284.464 285.027 284.487H285.223V284.683C285.177 296.194 285.142 305.337 285.119 311.627C285.096 314.732 285.085 317.136 285.073 318.78C285.073 319.574 285.062 320.183 285.05 320.609C285.05 321.023 285.027 321.218 285.027 321.218L285.004 321.184Z" fill="#263238"/>
<path d="M413.689 370.668C413.689 370.668 413.666 369.84 413.666 368.265C413.666 366.678 413.643 364.32 413.632 361.238C413.609 355.062 413.586 345.943 413.551 334.132L413.701 334.282C366.689 334.316 274.539 334.374 168.774 334.431H168.762L169.061 334.132C169.061 346.644 169.061 358.973 169.061 370.668L168.762 370.369C237.923 370.415 299.115 370.461 343.033 370.496C365.01 370.53 382.662 370.564 394.829 370.587C400.913 370.61 405.616 370.622 408.825 370.634C410.412 370.634 411.631 370.645 412.459 370.656C413.275 370.656 413.712 370.679 413.712 370.679C413.712 370.679 413.31 370.691 412.505 370.703C411.688 370.703 410.481 370.702 408.905 370.725C405.72 370.725 401.028 370.749 394.979 370.771C382.823 370.795 365.205 370.817 343.252 370.863C299.287 370.898 238.015 370.944 168.774 370.99H168.475V370.691C168.475 358.995 168.475 346.668 168.475 334.156V333.856H168.785C274.551 333.925 366.7 333.983 413.712 334.006H413.862V334.156C413.827 346.001 413.793 355.154 413.781 361.341C413.77 364.412 413.758 366.747 413.747 368.334C413.747 369.898 413.712 370.691 413.712 370.691L413.689 370.668Z" fill="#263238"/>
<path d="M413.689 419.819C413.689 419.819 413.666 418.991 413.666 417.415C413.666 415.828 413.643 413.471 413.632 410.389C413.609 404.213 413.586 395.094 413.551 383.284L413.701 383.433C366.689 383.468 274.539 383.525 168.774 383.582H168.762L169.061 383.284C169.061 395.796 169.061 408.123 169.061 419.819L168.762 419.52C237.923 419.566 299.115 419.612 343.033 419.646C365.01 419.681 382.662 419.715 394.829 419.738C400.913 419.761 405.616 419.773 408.825 419.784C410.412 419.784 411.631 419.796 412.459 419.807C413.275 419.807 413.712 419.831 413.712 419.831C413.712 419.831 413.31 419.842 412.505 419.853C411.688 419.853 410.481 419.853 408.905 419.876C405.72 419.876 401.028 419.899 394.979 419.922C382.823 419.945 365.205 419.969 343.252 420.015C299.287 420.049 238.015 420.095 168.774 420.141H168.475V419.842C168.475 408.146 168.475 395.818 168.475 383.306V383.007H168.785C274.551 383.076 366.7 383.134 413.712 383.157H413.862V383.306C413.827 395.151 413.793 404.306 413.781 410.493C413.77 413.563 413.758 415.897 413.747 417.484C413.747 419.048 413.712 419.842 413.712 419.842L413.689 419.819Z" fill="#263238"/>
<path d="M413.689 321.184C413.689 321.184 413.678 320.954 413.666 320.54C413.666 320.103 413.666 319.481 413.643 318.676C413.643 317.02 413.62 314.605 413.597 311.489C413.574 305.221 413.54 296.114 413.494 284.66L413.689 284.855C386.158 284.878 344.252 284.924 297.436 284.958L297.735 284.66C297.735 297.321 297.735 309.626 297.735 321.195L297.447 320.907C330.82 320.965 359.846 321.011 380.546 321.046C390.896 321.08 399.176 321.103 404.88 321.126C407.721 321.137 409.917 321.16 411.424 321.16C412.16 321.16 412.723 321.172 413.126 321.184C413.505 321.184 413.712 321.207 413.712 321.207C413.712 321.207 413.528 321.218 413.16 321.229C412.769 321.229 412.217 321.23 411.493 321.253C409.998 321.253 407.824 321.276 405.007 321.287C399.314 321.31 391.069 321.333 380.742 321.368C359.996 321.402 330.901 321.448 297.447 321.506H297.16V321.218C297.16 309.638 297.16 297.344 297.16 284.683V284.383H297.47C344.287 284.429 386.193 284.464 413.724 284.487H413.919V284.683C413.873 296.194 413.839 305.337 413.816 311.627C413.793 314.732 413.781 317.136 413.77 318.78C413.77 319.574 413.758 320.183 413.747 320.609C413.747 321.023 413.724 321.218 413.724 321.218L413.689 321.184Z" fill="#263238"/>
<path d="M193.097 308.212C193.097 308.212 192.809 308.246 192.211 308.269C191.521 308.292 190.647 308.315 189.589 308.35C187.312 308.419 184 308.51 180.044 308.556H179.688L179.791 308.212C180.124 307.131 180.7 306.003 181.631 305.129C182.563 304.244 183.827 303.692 185.15 303.474L185.081 304.037C183.621 303.451 182.562 301.944 182.447 300.311C182.286 298.471 183.299 296.62 184.92 295.884C186.53 295.102 188.485 295.665 189.508 296.884C190.578 298.08 190.842 299.736 190.486 301.081C190.129 302.438 189.163 303.496 188.059 303.945L188.002 303.543C189.129 303.727 190.106 304.141 190.842 304.681C191.578 305.222 192.061 305.854 192.383 306.394C193.016 307.475 193.108 308.246 193.085 308.2C193.073 308.177 192.993 308.027 192.867 307.751C192.74 307.452 192.533 307.027 192.188 306.509C191.544 305.497 190.129 304.209 187.933 303.956L187.162 303.865L187.875 303.554C188.841 303.128 189.693 302.174 189.992 300.955C190.291 299.759 190.037 298.287 189.083 297.252C188.174 296.206 186.518 295.745 185.15 296.412C183.781 297.045 182.885 298.643 183.034 300.253C183.138 301.679 184.057 302.979 185.288 303.485L186.266 303.887L185.219 304.049C183.988 304.244 182.838 304.738 181.999 305.532C181.148 306.314 180.596 307.338 180.274 308.361L180.021 308.016C183.85 308.016 187.07 308.062 189.37 308.097C190.463 308.12 191.36 308.131 192.073 308.143C192.706 308.154 193.062 308.177 193.085 308.188L193.097 308.212Z" fill="#E8505B"/>
<path d="M329.383 308.212C329.383 308.212 329.095 308.246 328.497 308.269C327.807 308.292 326.933 308.315 325.875 308.35C323.598 308.419 320.286 308.51 316.33 308.556H315.974L316.077 308.212C316.411 307.131 316.986 306.003 317.918 305.129C318.849 304.244 320.114 303.692 321.436 303.474L321.368 304.037C319.907 303.451 318.849 301.944 318.734 300.311C318.573 298.471 319.585 296.62 321.206 295.884C322.816 295.102 324.771 295.665 325.795 296.884C326.864 298.08 327.129 299.736 326.772 301.081C326.416 302.438 325.45 303.496 324.346 303.945L324.288 303.543C325.415 303.727 326.393 304.141 327.129 304.681C327.865 305.222 328.348 305.854 328.67 306.394C329.302 307.475 329.394 308.246 329.371 308.2C329.36 308.177 329.279 308.027 329.153 307.751C329.026 307.452 328.819 307.027 328.474 306.509C327.83 305.497 326.416 304.209 324.219 303.956L323.449 303.865L324.162 303.554C325.128 303.128 325.979 302.174 326.278 300.955C326.577 299.759 326.324 298.287 325.369 297.252C324.461 296.206 322.805 295.745 321.436 296.412C320.068 297.045 319.171 298.643 319.321 300.253C319.424 301.679 320.344 302.979 321.574 303.485L322.552 303.887L321.505 304.049C320.275 304.244 319.125 304.738 318.285 305.532C317.434 306.314 316.882 307.338 316.56 308.361L316.307 308.016C320.137 308.016 323.357 308.062 325.657 308.097C326.749 308.12 327.646 308.131 328.359 308.143C328.992 308.154 329.348 308.177 329.371 308.188L329.383 308.212Z" fill="#E8505B"/>
<path d="M206.724 300.138V303.209H210.772V303.922H206.724V307.246H205.896V299.425H211.267V300.138H206.724Z" fill="#263238"/>
<path d="M212.509 299.518C212.509 299.219 212.762 298.954 213.095 298.954C213.429 298.954 213.682 299.196 213.682 299.506C213.682 299.828 213.44 300.093 213.095 300.093C212.75 300.093 212.509 299.84 212.509 299.518ZM212.693 301.369H213.486V307.246H212.693V301.369Z" fill="#263238"/>
<path d="M218.649 301.323V302.093C218.58 302.093 218.511 302.093 218.454 302.093C217.223 302.093 216.476 302.875 216.476 304.267V307.257H215.682V301.381H216.441V302.531C216.809 301.749 217.557 301.334 218.638 301.334L218.649 301.323Z" fill="#263238"/>
<path d="M219.305 306.578L219.662 305.957C220.133 306.325 220.927 306.613 221.755 306.613C222.87 306.613 223.33 306.233 223.33 305.647C223.33 304.117 219.524 305.325 219.524 303.002C219.524 302.036 220.352 301.323 221.847 301.323C222.606 301.323 223.434 301.53 223.928 301.875L223.583 302.507C223.066 302.151 222.456 302.001 221.847 302.001C220.789 302.001 220.317 302.415 220.317 302.979C220.317 304.566 224.124 303.37 224.124 305.624C224.124 306.636 223.227 307.303 221.697 307.303C220.72 307.303 219.788 306.992 219.305 306.578Z" fill="#263238"/>
<path d="M228.689 306.889C228.379 307.165 227.907 307.303 227.447 307.303C226.343 307.303 225.722 306.682 225.722 305.59V302.036H224.676V301.369H225.722V300.081H226.516V301.369H228.31V302.036H226.516V305.544C226.516 306.234 226.872 306.613 227.528 306.613C227.85 306.613 228.172 306.509 228.402 306.314L228.678 306.889H228.689Z" fill="#263238"/>
<path d="M238.453 303.841V307.246H237.659V303.91C237.659 302.668 237.015 302.036 235.888 302.036C234.623 302.036 233.83 302.818 233.83 304.163V307.246H233.036V301.369H233.795V302.45C234.221 301.737 235.014 301.323 236.026 301.323C237.452 301.323 238.441 302.151 238.441 303.841H238.453Z" fill="#263238"/>
<path d="M245.042 303.612V307.257H244.283V306.337C243.927 306.935 243.237 307.315 242.259 307.315C240.925 307.315 240.109 306.624 240.109 305.601C240.109 304.692 240.695 303.934 242.374 303.934H244.237V303.577C244.237 302.577 243.662 302.025 242.57 302.025C241.811 302.025 241.098 302.289 240.615 302.715L240.258 302.128C240.856 301.622 241.719 301.335 242.65 301.335C244.168 301.335 245.031 302.094 245.031 303.612H245.042ZM244.249 305.486V304.52H242.409C241.27 304.52 240.902 304.968 240.902 305.566C240.902 306.245 241.454 306.671 242.386 306.671C243.317 306.671 243.938 306.245 244.249 305.475V305.486Z" fill="#263238"/>
<path d="M256.899 303.841V307.246H256.105V303.91C256.105 302.668 255.484 302.036 254.415 302.036C253.207 302.036 252.448 302.818 252.448 304.163V307.246H251.655V303.91C251.655 302.668 251.034 302.036 249.953 302.036C248.757 302.036 247.986 302.818 247.986 304.163V307.246H247.193V301.369H247.952V302.438C248.366 301.737 249.125 301.323 250.114 301.323C251.103 301.323 251.85 301.737 252.207 302.565C252.632 301.806 253.472 301.323 254.53 301.323C255.956 301.323 256.899 302.151 256.899 303.841Z" fill="#263238"/>
<path d="M264.189 304.554H259.268C259.36 305.785 260.291 306.601 261.579 306.601C262.292 306.601 262.936 306.349 263.373 305.831L263.822 306.349C263.293 306.97 262.476 307.315 261.556 307.315C259.728 307.315 258.474 306.061 258.474 304.313C258.474 302.565 259.693 301.335 261.349 301.335C263.005 301.335 264.201 302.553 264.201 304.313C264.201 304.382 264.201 304.474 264.201 304.554H264.189ZM259.268 303.968H263.442C263.339 302.818 262.499 302.013 261.349 302.013C260.199 302.013 259.371 302.818 259.268 303.968Z" fill="#263238"/>
<path d="M212.554 357.696V358.409H207.023V350.589H212.393V351.302H207.851V354.085H211.899V354.787H207.851V357.696H212.554Z" fill="#263238"/>
<path d="M224.02 354.994V358.397H223.226V355.063C223.226 353.821 222.605 353.188 221.536 353.188C220.328 353.188 219.569 353.97 219.569 355.316V358.397H218.776V355.063C218.776 353.821 218.155 353.188 217.074 353.188C215.878 353.188 215.107 353.97 215.107 355.316V358.397H214.314V352.521H215.073V353.591C215.487 352.889 216.246 352.475 217.235 352.475C218.224 352.475 218.971 352.889 219.328 353.717C219.753 352.958 220.593 352.475 221.651 352.475C223.077 352.475 224.02 353.303 224.02 354.994Z" fill="#263238"/>
<path d="M230.609 354.763V358.409H229.85V357.489C229.494 358.087 228.804 358.466 227.826 358.466C226.492 358.466 225.676 357.777 225.676 356.753C225.676 355.845 226.262 355.085 227.941 355.085H229.804V354.729C229.804 353.728 229.229 353.176 228.137 353.176C227.378 353.176 226.665 353.441 226.182 353.866L225.825 353.28C226.423 352.774 227.286 352.487 228.217 352.487C229.735 352.487 230.598 353.245 230.598 354.763H230.609ZM229.816 356.638V355.672H227.976C226.837 355.672 226.469 356.121 226.469 356.719C226.469 357.397 227.021 357.822 227.953 357.822C228.884 357.822 229.505 357.397 229.816 356.626V356.638Z" fill="#263238"/>
<path d="M232.587 350.669C232.587 350.37 232.84 350.106 233.174 350.106C233.507 350.106 233.76 350.348 233.76 350.658C233.76 350.98 233.519 351.244 233.174 351.244C232.829 351.244 232.587 350.991 232.587 350.669ZM232.771 352.521H233.565V358.397H232.771V352.521Z" fill="#263238"/>
<path d="M235.761 350.118H236.555V358.409H235.761V350.118Z" fill="#263238"/>
<path d="M209.277 402.19C209.277 403.857 208.069 404.857 206.08 404.857H203.975V407.33H203.147V399.51H206.08C208.069 399.51 209.277 400.522 209.277 402.19ZM208.449 402.19C208.449 400.936 207.621 400.223 206.057 400.223H203.975V404.133H206.057C207.621 404.133 208.449 403.42 208.449 402.19Z" fill="#263238"/>
<path d="M215.28 403.684V407.33H214.521V406.41C214.164 407.008 213.474 407.388 212.497 407.388C211.163 407.388 210.346 406.698 210.346 405.674C210.346 404.766 210.933 404.006 212.612 404.006H214.475V403.65C214.475 402.65 213.9 402.097 212.807 402.097C212.048 402.097 211.335 402.362 210.852 402.788L210.496 402.201C211.094 401.695 211.956 401.407 212.888 401.407C214.406 401.407 215.268 402.166 215.268 403.684H215.28ZM214.486 405.559V404.593H212.646C211.508 404.593 211.14 405.042 211.14 405.64C211.14 406.318 211.692 406.744 212.623 406.744C213.555 406.744 214.176 406.318 214.486 405.547V405.559Z" fill="#263238"/>
<path d="M216.614 406.663L216.971 406.042C217.442 406.41 218.236 406.697 219.064 406.697C220.179 406.697 220.639 406.318 220.639 405.731C220.639 404.202 216.833 405.41 216.833 403.087C216.833 402.121 217.661 401.407 219.156 401.407C219.915 401.407 220.743 401.614 221.237 401.959L220.892 402.592C220.375 402.235 219.765 402.086 219.156 402.086C218.098 402.086 217.626 402.5 217.626 403.063C217.626 404.65 221.433 403.455 221.433 405.709C221.433 406.721 220.536 407.388 219.006 407.388C218.029 407.388 217.097 407.077 216.614 406.663Z" fill="#263238"/>
<path d="M222.076 406.663L222.433 406.042C222.904 406.41 223.698 406.697 224.526 406.697C225.641 406.697 226.101 406.318 226.101 405.731C226.101 404.202 222.295 405.41 222.295 403.087C222.295 402.121 223.123 401.407 224.618 401.407C225.377 401.407 226.205 401.614 226.699 401.959L226.354 402.592C225.837 402.235 225.227 402.086 224.618 402.086C223.56 402.086 223.088 402.5 223.088 403.063C223.088 404.65 226.895 403.455 226.895 405.709C226.895 406.721 225.998 407.388 224.468 407.388C223.491 407.388 222.559 407.077 222.076 406.663Z" fill="#263238"/>
<path d="M236.865 401.453L234.646 407.33H233.898L232.047 402.512L230.195 407.33H229.448L227.24 401.453H227.999L229.839 406.444L231.725 401.453H232.403L234.278 406.444L236.141 401.453H236.865Z" fill="#263238"/>
<path d="M237.302 404.386C237.302 402.638 238.579 401.407 240.292 401.407C242.006 401.407 243.282 402.65 243.282 404.386C243.282 406.123 242.017 407.388 240.292 407.388C238.567 407.388 237.302 406.134 237.302 404.386ZM242.477 404.386C242.477 403.006 241.546 402.097 240.304 402.097C239.062 402.097 238.107 403.018 238.107 404.386C238.107 405.755 239.05 406.675 240.304 406.675C241.557 406.675 242.477 405.755 242.477 404.386Z" fill="#263238"/>
<path d="M247.859 401.407V402.178C247.79 402.178 247.721 402.178 247.664 402.178C246.433 402.178 245.686 402.96 245.686 404.351V407.341H244.892V401.465H245.651V402.615C246.019 401.833 246.767 401.419 247.848 401.419L247.859 401.407Z" fill="#263238"/>
<path d="M254.587 399.038V407.33H253.828V406.168C253.345 406.962 252.529 407.387 251.563 407.387C249.884 407.387 248.63 406.169 248.63 404.386C248.63 402.604 249.884 401.407 251.563 401.407C252.506 401.407 253.311 401.81 253.794 402.569V399.038H254.587ZM253.805 404.397C253.805 403.017 252.862 402.109 251.62 402.109C250.378 402.109 249.424 403.029 249.424 404.397C249.424 405.766 250.367 406.686 251.62 406.686C252.874 406.686 253.805 405.766 253.805 404.397Z" fill="#263238"/>
<path d="M338.042 300.529H338.87V307.637H343.252V308.35H338.042V300.529Z" fill="#263238"/>
<path d="M348.91 304.716V308.361H348.151V307.441C347.794 308.039 347.104 308.419 346.127 308.419C344.793 308.419 343.976 307.729 343.976 306.705C343.976 305.797 344.563 305.038 346.242 305.038H348.105V304.681C348.105 303.681 347.53 303.128 346.437 303.128C345.678 303.128 344.965 303.393 344.482 303.819L344.126 303.232C344.712 302.726 345.586 302.438 346.518 302.438C348.036 302.438 348.898 303.198 348.898 304.716H348.91ZM348.116 306.59V305.624H346.276C345.138 305.624 344.77 306.073 344.77 306.671C344.77 307.349 345.322 307.775 346.253 307.775C347.185 307.775 347.806 307.349 348.116 306.578V306.59Z" fill="#263238"/>
<path d="M350.244 307.694L350.6 307.073C351.072 307.441 351.865 307.728 352.693 307.728C353.809 307.728 354.269 307.349 354.269 306.763C354.269 305.233 350.462 306.441 350.462 304.118C350.462 303.152 351.29 302.438 352.785 302.438C353.544 302.438 354.372 302.646 354.867 302.991L354.522 303.623C354.004 303.266 353.395 303.117 352.785 303.117C351.727 303.117 351.256 303.531 351.256 304.094C351.256 305.681 355.062 304.486 355.062 306.74C355.062 307.752 354.165 308.419 352.636 308.419C351.658 308.419 350.727 308.108 350.244 307.694Z" fill="#263238"/>
<path d="M359.616 308.004C359.306 308.28 358.834 308.419 358.374 308.419C357.27 308.419 356.649 307.798 356.649 306.705V303.151H355.603V302.484H356.649V301.197H357.443V302.484H359.237V303.151H357.443V306.659C357.443 307.349 357.799 307.728 358.455 307.728C358.777 307.728 359.099 307.625 359.329 307.429L359.605 308.004H359.616Z" fill="#263238"/>
<path d="M369.391 304.946V308.35H368.598V305.015C368.598 303.773 367.954 303.14 366.827 303.14C365.562 303.14 364.768 303.922 364.768 305.268V308.35H363.975V302.473H364.734V303.554C365.159 302.841 365.953 302.427 366.965 302.427C368.391 302.427 369.38 303.255 369.38 304.946H369.391Z" fill="#263238"/>
<path d="M375.981 304.716V308.361H375.222V307.441C374.865 308.039 374.175 308.419 373.198 308.419C371.864 308.419 371.047 307.729 371.047 306.705C371.047 305.797 371.634 305.038 373.313 305.038H375.176V304.681C375.176 303.681 374.601 303.128 373.509 303.128C372.75 303.128 372.036 303.393 371.553 303.819L371.197 303.232C371.783 302.726 372.657 302.438 373.589 302.438C375.107 302.438 375.969 303.198 375.969 304.716H375.981ZM375.187 306.59V305.624H373.347C372.209 305.624 371.841 306.073 371.841 306.671C371.841 307.349 372.393 307.775 373.324 307.775C374.256 307.775 374.877 307.349 375.187 306.578V306.59Z" fill="#263238"/>
<path d="M387.837 304.946V308.35H387.044V305.015C387.044 303.773 386.423 303.14 385.353 303.14C384.146 303.14 383.387 303.922 383.387 305.268V308.35H382.593V305.015C382.593 303.773 381.972 303.14 380.891 303.14C379.695 303.14 378.925 303.922 378.925 305.268V308.35H378.131V302.473H378.89V303.543C379.304 302.841 380.063 302.427 381.052 302.427C382.041 302.427 382.789 302.841 383.145 303.669C383.571 302.91 384.41 302.427 385.468 302.427C386.894 302.427 387.837 303.255 387.837 304.946Z" fill="#263238"/>
<path d="M395.128 305.67H390.206C390.298 306.9 391.23 307.717 392.518 307.717C393.231 307.717 393.875 307.464 394.312 306.947L394.76 307.464C394.231 308.085 393.415 308.43 392.495 308.43C390.666 308.43 389.413 307.176 389.413 305.428C389.413 303.68 390.632 302.45 392.288 302.45C393.944 302.45 395.14 303.669 395.14 305.428C395.14 305.497 395.14 305.589 395.14 305.67H395.128ZM390.206 305.084H394.369C394.266 303.934 393.426 303.128 392.276 303.128C391.126 303.128 390.298 303.934 390.195 305.084H390.206Z" fill="#263238"/>
<path d="M190.923 398.383C190.923 398.383 190.866 398.072 190.82 397.635C190.785 397.221 190.797 396.554 190.406 395.876C190.038 395.209 189.279 394.565 188.29 394.438C187.312 394.289 186.151 394.726 185.541 395.703C185.288 396.094 185.139 396.543 185.104 396.98C185.093 397.463 185.081 397.923 185.07 398.383L184.782 398.096C188.221 398.153 190.82 398.303 190.923 398.383C191.027 398.464 188.508 398.613 184.782 398.671H184.495V398.383C184.495 397.923 184.495 397.475 184.518 396.946C184.552 396.405 184.736 395.864 185.035 395.381C185.771 394.197 187.209 393.679 188.37 393.898C189.555 394.082 190.417 394.898 190.774 395.692C191.165 396.497 191.096 397.233 191.038 397.716C190.981 398.199 190.946 398.417 190.923 398.394V398.383Z" fill="#E8505B"/>
<path d="M188.91 405.858C188.91 405.858 188.623 405.248 188.358 404.501L188.312 404.375L188.439 404.282C188.761 404.052 188.956 403.489 188.68 403.041C188.439 402.581 187.68 402.431 187.277 402.891C186.886 403.294 187.024 403.984 187.45 404.237L187.622 404.34L187.576 404.535C187.461 404.995 187.346 405.444 187.231 405.904L187.013 405.628C188.059 405.697 188.853 405.812 188.922 405.858C189.002 405.893 188.324 406.019 187.013 406.088H186.737L186.794 405.812C186.875 405.341 186.967 404.881 187.047 404.421L187.174 404.719C186.472 404.363 186.185 403.19 186.863 402.5C187.197 402.132 187.703 401.971 188.151 402.051C188.611 402.12 188.991 402.419 189.186 402.776C189.6 403.535 189.186 404.363 188.703 404.628L188.784 404.409C188.968 405.421 188.979 405.916 188.933 405.858H188.91Z" fill="#E8505B"/>
<path d="M191.762 398.394C191.762 398.394 191.935 398.348 192.268 398.44C192.59 398.521 193.085 398.751 193.464 399.28C193.66 399.544 193.809 399.889 193.867 400.292C193.913 400.706 193.89 401.097 193.913 401.545C193.924 402.454 193.936 403.454 193.959 404.558C193.959 405.122 193.97 405.708 193.982 406.306C193.959 406.927 194.074 407.514 193.913 408.261C193.729 408.974 193.188 409.607 192.452 409.894C192.096 410.044 191.659 410.078 191.314 410.067C190.957 410.067 190.589 410.067 190.221 410.067C188.738 410.067 187.197 410.067 185.598 410.09C185.196 410.09 184.793 410.09 184.379 410.09C183.954 410.113 183.448 410.009 183.045 409.779C182.206 409.342 181.688 408.33 181.769 407.41C181.769 405.639 181.769 403.903 181.769 402.235C181.769 401.821 181.769 401.407 181.769 400.993C181.769 400.614 181.757 400.119 181.93 399.694C182.24 398.843 183.045 398.233 183.885 398.118L183.655 398.383C183.666 397.831 183.655 397.336 183.701 396.773C183.758 396.221 183.931 395.692 184.184 395.232C184.69 394.3 185.529 393.633 186.415 393.311C188.232 392.644 190.026 393.415 190.865 394.427C191.774 395.45 191.912 396.612 191.866 397.29C191.82 397.957 191.785 398.348 191.762 398.371C191.739 398.394 191.716 398.038 191.693 397.302C191.693 396.612 191.498 395.565 190.624 394.645C189.807 393.737 188.174 393.104 186.576 393.725C185.794 394.024 185.069 394.634 184.632 395.462C184.414 395.876 184.276 396.336 184.23 396.819C184.195 397.29 184.218 397.854 184.207 398.394V398.624L183.977 398.659C183.321 398.751 182.712 399.234 182.47 399.889C182.344 400.223 182.344 400.556 182.355 400.982C182.355 401.396 182.355 401.798 182.355 402.224C182.355 403.891 182.355 405.628 182.355 407.399C182.298 408.192 182.689 408.894 183.333 409.239C183.655 409.411 183.988 409.492 184.379 409.48C184.782 409.48 185.196 409.48 185.598 409.48C187.197 409.48 188.749 409.492 190.221 409.503C190.957 409.469 191.716 409.607 192.257 409.388C192.832 409.17 193.28 408.675 193.43 408.112C193.568 407.583 193.487 406.881 193.522 406.283C193.522 405.674 193.533 405.087 193.545 404.535C193.556 403.431 193.579 402.431 193.591 401.522C193.591 401.085 193.625 400.648 193.591 400.303C193.556 399.947 193.441 399.636 193.28 399.383C192.59 398.383 191.693 398.429 191.762 398.36V398.394Z" fill="#E8505B"/>
<path d="M196.788 360.146C196.788 360.146 196.754 359.823 196.731 359.26C196.708 358.627 196.684 357.834 196.65 356.856C196.592 354.729 196.524 351.831 196.443 348.324L196.684 348.565C191.808 348.634 185.736 348.714 179.158 348.795C179.089 348.864 179.722 348.22 179.458 348.496V348.531V348.576V348.68V348.875V349.266V350.049C179.469 350.566 179.469 351.083 179.481 351.601C179.481 352.624 179.492 353.636 179.503 354.625C179.515 356.603 179.526 358.501 179.538 360.306L179.262 360.031C184.368 360.008 188.715 360.03 191.808 360.042C193.303 360.053 194.511 360.065 195.442 360.076C196.293 360.088 196.765 360.111 196.788 360.134C196.811 360.157 196.385 360.18 195.557 360.215C194.649 360.238 193.453 360.284 191.981 360.318C188.899 360.399 184.483 360.502 179.25 360.582H178.975V360.306C178.952 358.501 178.929 356.603 178.906 354.625C178.906 353.636 178.882 352.624 178.871 351.601C178.871 351.083 178.871 350.578 178.859 350.049V349.266L178.848 348.875V348.68V348.576V348.531V348.507V348.485C178.584 348.749 179.204 348.117 179.147 348.174C185.725 348.128 191.797 348.094 196.673 348.059H196.914V348.3C196.903 351.865 196.88 354.821 196.868 356.983C196.857 357.938 196.846 358.719 196.834 359.329C196.823 359.858 196.811 360.134 196.788 360.111V360.146Z" fill="#E8505B"/>
<path d="M196.673 348.323C196.719 348.392 195.787 349.163 194.246 350.347C192.705 351.532 190.543 353.142 188.14 354.878C188.45 354.878 187.714 354.878 187.795 354.878H187.783L187.76 354.844L187.703 354.809L187.588 354.729L187.358 354.568L186.909 354.257C186.61 354.05 186.323 353.843 186.035 353.648C185.472 353.245 184.92 352.854 184.391 352.475C183.39 351.75 182.459 351.083 181.619 350.474C180.055 349.312 179.112 348.565 179.158 348.496C179.204 348.427 180.239 349.059 181.861 350.117C182.723 350.692 183.678 351.336 184.701 352.015C185.242 352.383 185.794 352.762 186.369 353.153C186.656 353.349 186.955 353.556 187.243 353.763L187.691 354.073L187.921 354.234L188.036 354.315L188.094 354.349L188.117 354.372H188.128V354.384C188.209 354.384 187.473 354.384 187.783 354.384C190.187 352.636 192.383 351.095 193.993 349.991C195.603 348.887 196.615 348.243 196.673 348.312V348.323Z" fill="#E8505B"/>
<path d="M179.607 360.307C179.48 360.203 180.676 358.455 182.298 356.408C183.908 354.361 185.322 352.786 185.46 352.878C185.587 352.981 184.391 354.729 182.769 356.776C181.159 358.823 179.745 360.399 179.607 360.307Z" fill="#E8505B"/>
<path d="M191.164 352.889C191.291 352.785 192.659 354.327 194.212 356.328C195.764 358.329 196.926 360.042 196.788 360.134C196.661 360.238 195.293 358.697 193.74 356.696C192.188 354.695 191.026 352.981 191.164 352.889Z" fill="#E8505B"/>
<path d="M410.63 438.714H171.81C170.121 438.714 168.751 440.083 168.751 441.773V472.995C168.751 474.684 170.121 476.054 171.81 476.054H410.63C412.32 476.054 413.689 474.684 413.689 472.995V441.773C413.689 440.083 412.32 438.714 410.63 438.714Z" fill="#E8505B"/>
<g opacity="0.3">
<path d="M410.63 438.714H171.81C170.121 438.714 168.751 440.083 168.751 441.773V472.995C168.751 474.684 170.121 476.054 171.81 476.054H410.63C412.32 476.054 413.689 474.684 413.689 472.995V441.773C413.689 440.083 412.32 438.714 410.63 438.714Z" fill="black"/>
</g>
<path d="M410.63 433.516H171.81C170.121 433.516 168.751 434.885 168.751 436.575V467.797C168.751 469.486 170.121 470.856 171.81 470.856H410.63C412.32 470.856 413.689 469.486 413.689 467.797V436.575C413.689 434.885 412.32 433.516 410.63 433.516Z" fill="#E8505B"/>
<path d="M270.537 452.985C270.537 450.673 272.308 448.983 274.689 448.983C275.896 448.983 276.943 449.397 277.667 450.202L276.943 450.903C276.345 450.271 275.597 449.972 274.746 449.972C272.975 449.972 271.676 451.249 271.676 452.974C271.676 454.699 272.987 455.986 274.746 455.986C275.609 455.986 276.345 455.687 276.943 455.043L277.667 455.745C276.954 456.55 275.896 456.975 274.677 456.975C272.308 456.975 270.537 455.285 270.537 452.974V452.985Z" fill="white"/>
<path d="M284.476 456.895L282.785 454.491C282.624 454.491 282.463 454.514 282.291 454.514H280.359V456.895H279.243V449.075H282.291C284.326 449.075 285.557 450.098 285.557 451.8C285.557 453.008 284.936 453.882 283.832 454.273L285.683 456.895H284.464H284.476ZM284.441 451.8C284.441 450.685 283.694 450.041 282.256 450.041H280.359V453.56H282.256C283.682 453.56 284.441 452.916 284.441 451.789V451.8Z" fill="white"/>
<path d="M293.043 455.929V456.906H287.362V449.086H292.882V450.064H288.477V452.467H292.399V453.422H288.477V455.952H293.043V455.929Z" fill="white"/>
<path d="M299.839 454.94H295.676L294.814 456.895H293.664L297.206 449.075H298.31L301.863 456.895H300.69L299.828 454.94H299.839ZM299.448 454.043L297.758 450.213L296.067 454.043H299.448Z" fill="white"/>
<path d="M304.186 450.052H301.507V449.075H307.981V450.052H305.302V456.906H304.198V450.052H304.186Z" fill="white"/>
<path d="M314.87 455.929V456.906H309.189V449.086H314.709V450.064H310.304V452.467H314.226V453.422H310.304V455.952H314.87V455.929Z" fill="white"/>
<path d="M256.093 219.123C287.688 187.528 287.688 136.304 256.093 104.709C224.499 73.1149 173.274 73.1149 141.68 104.709C110.085 136.304 110.085 187.528 141.68 219.123C173.274 250.717 224.499 250.717 256.093 219.123Z" fill="#E0E0E0"/>
<path d="M245.237 52.5665C242.362 56.051 241.879 61.3295 244.087 65.2855C245.099 67.1025 246.64 68.724 246.882 70.794C247.261 74.1405 244.007 77.165 244.536 80.4885C244.892 82.7425 246.859 84.364 247.894 86.3995C249.228 89.0215 248.871 92.414 246.997 94.691C245.525 96.485 243.225 97.6235 242.259 99.751C241.546 101.327 241.718 103.155 241.155 104.788C240.258 107.33 237.647 108.951 234.991 109.434C232.334 109.917 229.62 109.446 226.964 108.986C227.159 108.02 227.355 107.054 227.539 106.076C226.642 107.686 224.756 108.526 222.927 108.664C221.099 108.802 219.282 108.33 217.499 107.859C216.418 102.925 215.337 97.7155 216.89 92.9085C218.281 88.5845 221.605 85.215 224.365 81.604C227.424 77.602 229.885 73.14 231.644 68.425C232.909 65.021 233.818 61.4675 235.589 58.2935C237.348 55.1195 240.166 52.2905 243.731 51.6235" fill="#263238"/>
<path d="M297.884 120.52L281.876 121.613C281.876 121.613 281.761 118.485 281.727 117.496C281.6 113.988 282.67 112.286 283.107 111.677C283.337 111.355 283.486 110.699 283.486 110.699C283.601 109.48 281.796 103.362 281.152 101.12C280.37 98.4285 281.899 97.0025 282.486 98.1065C283.567 100.119 286.431 108.756 287.327 109.549C288.225 110.343 287.707 105.881 287.707 105.881C286.304 96.37 285.694 94.99 287.385 94.6335C289.328 94.2195 291.467 108.376 291.467 108.376C291.467 108.376 291.18 106.398 292.698 105.996C294.216 105.593 294.918 107.548 294.918 107.548C294.734 106.536 296.171 106.375 296.171 106.375C299.759 106.87 297.884 120.532 297.884 120.532L281.876 121.624L274.206 175.157L266.018 162.61L244.651 177.859L263.913 200.836C267.295 204.873 272.366 207.127 277.633 206.931C286.442 206.598 293.56 199.617 294.043 190.808L297.884 120.543V120.52Z" fill="#EB996E"/>
<path d="M285.327 120.67C285.258 120.601 286.109 119.841 287.247 118.438C287.811 117.737 288.443 116.863 289.053 115.84C289.352 115.322 289.651 114.782 289.927 114.195C290.191 113.609 290.536 112.987 290.479 112.435C290.444 112.113 290.26 111.837 290.019 111.78C289.766 111.699 289.421 111.78 289.11 111.93C288.455 112.229 287.845 112.608 287.328 112.999C286.281 113.793 285.545 114.701 285.051 115.437L284.867 115.713L284.729 115.426C284.154 114.253 283.372 113.885 283.441 113.816C283.441 113.77 284.315 114.023 285.062 115.265H284.74C285.189 114.448 285.913 113.459 286.994 112.585C287.535 112.148 288.156 111.746 288.869 111.401C289.225 111.24 289.674 111.067 290.191 111.217C290.72 111.366 291.031 111.895 291.077 112.378C291.146 113.252 290.72 113.862 290.467 114.46C290.18 115.058 289.858 115.621 289.536 116.138C288.892 117.173 288.202 118.047 287.581 118.726C286.339 120.094 285.384 120.739 285.338 120.681L285.327 120.67Z" fill="#D1734A"/>
<path d="M291.663 109.296C291.743 109.296 291.732 110.435 291.663 112.24C291.605 113.218 291.548 114.276 291.491 115.414C291.468 116.001 291.375 116.668 291.444 117.243C291.479 117.795 291.974 118.278 292.388 118.059C292.813 117.829 293.02 117.139 293.193 116.53C293.365 115.909 293.503 115.299 293.63 114.724C293.883 113.563 294.067 112.493 294.228 111.608C294.55 109.825 294.826 108.733 294.906 108.744C294.987 108.756 294.86 109.871 294.641 111.677C294.526 112.574 294.388 113.655 294.158 114.839C294.043 115.437 293.917 116.058 293.744 116.691C293.549 117.289 293.457 118.105 292.641 118.6C292.215 118.83 291.652 118.692 291.364 118.393C291.042 118.105 290.893 117.691 290.858 117.335C290.778 116.599 290.904 116.012 290.939 115.403C291.042 114.264 291.146 113.195 291.238 112.217C291.433 110.412 291.582 109.296 291.663 109.308V109.296Z" fill="#D1734A"/>
<path d="M294.354 113.333C294.446 113.367 294.216 114 294.285 115.035C294.342 115.518 294.434 116.219 294.779 116.645C294.975 116.84 295.101 116.84 295.297 116.622C295.469 116.392 295.642 115.978 295.815 115.633C297.183 112.7 297.356 110.009 297.54 110.021C297.689 109.998 297.792 112.804 296.366 115.874C296.171 116.254 296.044 116.61 295.757 116.99C295.607 117.174 295.343 117.358 295.044 117.346C294.745 117.346 294.503 117.162 294.365 117.001C294.078 116.656 294.009 116.277 293.94 115.955C293.883 115.621 293.859 115.311 293.859 115.035C293.894 113.896 294.297 113.287 294.354 113.321V113.333Z" fill="#D1734A"/>
<path d="M226.987 213.969L228.482 237.245C182.953 254.69 149.178 225.745 149.178 225.745L155.986 204.919L157.182 168.544L148.396 178.296L144.267 174.858L123.395 157.458L118.922 153.72L140.576 130.859C167.946 101.384 189.256 110.435 189.256 110.435L221.283 113.436C221.283 113.436 243.432 116.576 254.15 135.988C262.878 151.8 272.378 168.533 272.378 168.533L244.939 188.117L236.222 172.075L226.999 213.969H226.987Z" fill="#455A64"/>
<path d="M117.99 161.61C117.967 162.967 118.025 164.335 118.071 165.715C118.278 171.189 119.002 176.606 120.256 181.735C120.267 181.781 120.279 181.838 120.29 181.884C120.451 182.54 120.635 183.172 120.819 183.816C121.532 186.346 122.475 188.577 123.372 191.038C123.487 191.349 123.602 191.648 123.717 191.958C126.615 191.199 134.32 183.92 143.716 174.409L122.855 157.021C120.141 159.942 118.876 161.276 117.979 161.621L117.99 161.61Z" fill="#EB996E"/>
<path d="M218.373 116.426C219.489 108.491 220.811 100.165 220.811 100.165C220.811 100.165 231.265 99.8775 235.221 86.8365C238.993 74.3935 240.948 44.735 240.948 44.735C227.067 36.708 209.081 38.295 196.972 48.622L188.945 113.183C188.013 120.681 193.717 127.454 201.744 128.386C209.863 129.329 217.292 123.97 218.362 116.415L218.373 116.426Z" fill="#EB996E"/>
<path d="M234.014 67.1485C233.922 68.057 233.071 68.724 232.128 68.6435C231.185 68.563 230.483 67.7695 230.575 66.861C230.667 65.9525 231.518 65.2855 232.461 65.366C233.416 65.4465 234.106 66.24 234.014 67.1485Z" fill="#263238"/>
<path d="M237.05 65.619C236.808 65.8145 235.646 64.676 233.806 64.423C231.966 64.147 230.494 64.906 230.322 64.653C230.241 64.538 230.506 64.17 231.161 63.825C231.794 63.48 232.841 63.204 233.991 63.365C235.141 63.526 236.037 64.0895 236.532 64.5955C237.038 65.113 237.176 65.5385 237.061 65.619H237.05Z" fill="#263238"/>
<path d="M215.131 64.883C215.039 65.7915 214.188 66.4585 213.245 66.378C212.302 66.2975 211.6 65.504 211.692 64.5955C211.784 63.687 212.635 63.02 213.578 63.1005C214.533 63.181 215.223 63.9745 215.131 64.883Z" fill="#263238"/>
<path d="M217.753 63.641C217.511 63.8365 216.35 62.698 214.51 62.445C212.67 62.169 211.198 62.928 211.025 62.675C210.945 62.56 211.209 62.192 211.864 61.847C212.497 61.502 213.544 61.226 214.694 61.387C215.844 61.548 216.74 62.1115 217.235 62.6175C217.741 63.135 217.879 63.5605 217.764 63.641H217.753Z" fill="#263238"/>
<path d="M222.548 78.2115C222.548 78.108 223.721 78.062 225.607 78.085C226.078 78.0965 226.538 78.0735 226.665 77.763C226.826 77.441 226.699 76.9005 226.538 76.3255C226.251 75.1295 225.952 73.876 225.641 72.5535C224.411 67.1945 223.594 62.813 223.813 62.767C224.031 62.721 225.204 67.022 226.423 72.3925C226.711 73.715 226.998 74.9685 227.263 76.176C227.366 76.7395 227.585 77.3835 227.263 78.0505C227.09 78.384 226.711 78.591 226.4 78.6255C226.09 78.6715 225.825 78.6485 225.584 78.6255C223.709 78.4645 222.548 78.315 222.548 78.2115Z" fill="#263238"/>
<path d="M220.823 100.165C220.823 100.165 211.772 99.5095 203.619 92.943C203.619 92.943 206.689 102.707 220.213 103.293L220.823 100.165Z" fill="#D1734A"/>
<path d="M227.16 40.618C228.022 42.7225 226.665 45.195 224.745 46.414C222.824 47.633 220.478 47.909 218.236 48.254C215.993 48.599 213.636 49.1165 211.945 50.6345C208.817 53.4635 209.611 57.569 206.483 61.226C204.815 63.1695 202.929 64.446 199.859 64.009C197.329 63.6525 194.051 64.239 192.763 67.16C191.544 69.943 193.028 72.2315 194.442 74.9225C195.857 77.6135 195.477 80.3505 194.672 83.2715C194.086 85.3875 192.28 87.0435 191.866 89.2055C191.222 92.6095 194.166 96.4965 192.177 99.3255C190.176 102.166 185.173 100.867 182.919 103.5C182.114 104.432 181.666 105.846 180.47 106.168C179.757 106.352 179.009 106.065 178.331 105.777C174.869 104.317 171.408 102.856 167.935 101.396C168.211 100.326 168.475 99.245 168.751 98.1755C167.222 99.7165 164.933 100.464 162.783 100.142C160.632 99.82 158.677 98.417 157.665 96.4965C159.781 95.151 161.909 93.794 163.645 91.9885C165.37 90.183 166.681 87.8485 166.773 85.3415C166.888 82.317 165.232 79.2465 166.164 76.36C167.486 72.2315 173.029 71.1965 175.525 67.643C177.848 64.331 177.043 59.524 179.435 56.258C182.206 52.4515 188.071 52.279 191.234 48.806C193.384 46.4485 193.879 43.0445 195.443 40.273C197.317 36.9495 200.71 34.661 204.332 33.465C207.955 32.269 211.842 32.0735 215.66 32.1425C218.523 32.1885 221.479 32.4185 223.986 33.81C226.481 35.2015 228.379 38.065 227.792 40.8595" fill="#263238"/>
<path d="M199.847 64.009C198.455 63.5375 196.949 63.365 195.511 63.687C194.085 64.009 192.751 64.86 191.981 66.102C191.21 67.3555 191.049 68.9195 191.36 70.357C191.659 71.7945 192.395 73.117 193.292 74.2785C193.936 75.118 194.695 75.9 195.649 76.3485C196.604 76.797 197.788 76.866 198.685 76.3025" fill="#EB996E"/>
<path d="M197.869 72.542C198.03 72.6225 197.282 73.393 196.029 72.864C195.419 72.611 194.89 71.9785 194.614 71.231C194.338 70.4835 194.2 69.6785 194.235 68.77C194.269 67.873 194.603 66.953 195.189 66.3435C195.753 65.7225 196.569 65.4235 197.213 65.4925C198.559 65.642 198.846 66.631 198.685 66.6425C198.559 66.7345 198.11 66.1825 197.202 66.2745C196.339 66.309 195.35 67.3555 195.339 68.8275C195.293 70.3225 195.672 71.737 196.408 72.1855C197.167 72.7145 197.8 72.4155 197.88 72.5535L197.869 72.542Z" fill="#D1734A"/>
<path d="M227.205 41.3425C226.09 44.183 227.332 47.748 229.965 49.2775C231.46 50.14 233.3 50.416 234.577 51.566C235.853 52.716 236.29 54.5215 236.497 56.2235C236.704 57.9255 236.75 59.6965 237.452 61.2605C238.153 62.8245 239.775 64.1585 241.465 63.8595C242.42 61.019 243.386 58.1785 244.34 55.3495C245.398 52.21 246.479 48.8635 245.72 45.6435C244.639 41.032 240.085 38.0305 235.52 36.7655C233.404 36.179 231.069 35.8915 229.091 36.823C227.113 37.7545 225.768 40.2845 226.78 42.228" fill="#263238"/>
<path d="M171.695 102.776C171.695 102.776 171.982 102.569 172.385 102.063C172.776 101.557 173.201 100.66 173.316 99.429C173.477 98.1985 173.201 96.7035 173.063 94.921C173.017 94.0355 173.006 93.035 173.339 92.046C173.638 91.057 174.213 90.091 174.961 89.24C176.467 87.5265 178.572 86.1925 180.4 84.364C181.309 83.4555 182.091 82.3515 182.47 81.0635C182.873 79.7755 182.792 78.338 182.585 76.912C182.367 75.4745 181.999 74.0025 181.815 72.4385C181.596 70.886 181.723 69.207 182.286 67.6545C183.39 64.561 186.162 61.8585 189.635 61.18C193.016 60.4325 196.489 60.8925 199.295 59.4665C200.675 58.765 201.687 57.5575 202.319 56.189C202.975 54.832 203.343 53.36 203.78 51.957C204.205 50.5425 204.688 49.1395 205.482 47.932C206.264 46.713 207.414 45.7815 208.667 45.2755C211.197 44.2405 213.762 44.413 215.97 44.4935C218.189 44.6085 220.213 44.6315 221.904 44.1485C223.571 43.6425 224.986 42.987 225.802 42.0785C226.63 41.17 226.837 40.181 226.952 39.5485C227.067 38.9045 227.067 38.5595 227.102 38.5595C227.102 38.5595 227.148 38.9045 227.079 39.56C226.998 40.204 226.826 41.239 225.986 42.228C225.135 43.217 223.698 43.9185 221.996 44.459C220.259 44.9765 218.178 44.988 215.958 44.896C213.75 44.827 211.243 44.712 208.874 45.701C207.701 46.1955 206.655 47.0465 205.93 48.1965C205.206 49.3465 204.734 50.692 204.32 52.095C203.895 53.498 203.538 54.993 202.848 56.419C202.526 57.1435 202.066 57.822 201.537 58.443C200.985 59.0525 200.318 59.57 199.582 59.961C196.535 61.4905 193.016 60.996 189.784 61.7435C186.507 62.3875 183.908 64.9175 182.85 67.8385C182.321 69.3105 182.194 70.8515 182.401 72.358C182.574 73.8645 182.93 75.3365 183.149 76.82C183.356 78.292 183.436 79.81 182.999 81.2015C182.574 82.6045 181.723 83.766 180.78 84.6975C178.882 86.572 176.778 87.86 175.306 89.5045C173.776 91.1145 173.27 93.1385 173.42 94.8865C173.523 96.6345 173.776 98.1755 173.569 99.4405C173.408 100.706 172.937 101.614 172.5 102.12C172.051 102.626 171.718 102.764 171.718 102.764L171.695 102.776Z" fill="#455A64"/>
<path d="M233.335 109.469C233.335 109.469 233.565 109.296 233.876 108.859C234.186 108.434 234.497 107.686 234.566 106.674C234.658 105.662 234.393 104.42 234.462 102.925C234.52 101.396 235.382 99.82 236.498 98.3595C237.556 96.876 238.982 95.335 239.361 93.265C239.752 91.1835 238.855 88.9755 238.418 86.5605C238.211 85.353 238.165 84.0075 238.579 82.731C238.959 81.466 239.649 80.3045 240.385 79.2005C241.121 78.085 241.926 77.0155 242.57 75.8425C243.214 74.6695 243.708 73.3815 243.72 72.0475C243.754 70.702 243.145 69.4715 242.443 68.3215C241.753 67.1715 240.925 66.033 240.546 64.6875C239.752 62.008 240.362 59.386 240.534 57.0055C240.638 55.8095 240.661 54.6365 240.465 53.5325C240.27 52.44 239.844 51.4165 239.2 50.6C237.912 48.9325 236.107 47.9435 234.508 47.0695C232.898 46.2185 231.38 45.4365 230.242 44.4935C229.08 43.585 228.229 42.5845 227.735 41.6645C227.229 40.7445 227.068 39.9165 227.056 39.376C227.033 38.824 227.114 38.548 227.114 38.548C227.148 38.548 227.114 38.8355 227.183 39.3645C227.24 39.8935 227.424 40.6755 227.942 41.5495C228.448 42.4235 229.299 43.355 230.449 44.229C231.587 45.126 233.071 45.8505 234.715 46.69C236.325 47.5525 238.2 48.5185 239.603 50.2895C240.304 51.1635 240.776 52.2675 240.994 53.429C241.213 54.602 241.19 55.821 241.098 57.04C240.937 59.4665 240.373 62.0425 241.121 64.515C241.466 65.7455 242.248 66.838 242.961 68.011C243.674 69.161 244.364 70.541 244.329 72.0475C244.318 73.5425 243.766 74.911 243.099 76.13C242.432 77.3605 241.604 78.4415 240.879 79.534C240.155 80.6265 239.499 81.7305 239.143 82.9035C238.763 84.0765 238.786 85.2955 238.982 86.4685C239.373 88.803 240.304 91.08 239.867 93.357C239.672 94.4725 239.143 95.4385 238.579 96.2895C238.016 97.1405 237.395 97.888 236.843 98.6125C235.727 100.05 234.899 101.51 234.807 102.948C234.704 104.374 234.945 105.639 234.807 106.686C234.704 107.732 234.336 108.503 233.979 108.928C233.623 109.354 233.347 109.469 233.347 109.469H233.335Z" fill="#455A64"/>
<path d="M159.953 97.382C159.953 97.382 160.333 97.451 161.046 97.474C161.759 97.497 162.828 97.405 164.082 96.8875C165.324 96.37 166.75 95.4155 167.854 93.8515C168.958 92.2875 169.717 90.1715 169.912 87.7565C170.188 85.3415 169.579 82.708 169.51 79.787C169.51 78.338 169.648 76.7625 170.487 75.348C171.338 73.945 172.776 73.0595 174.11 72.197C175.455 71.3345 176.835 70.3685 177.456 68.862C178.089 67.367 178.089 65.6075 178.192 63.8595C178.284 62.1 178.469 60.237 179.228 58.512C179.63 57.661 180.055 56.8215 180.78 56.12C181.504 55.43 182.471 55.062 183.414 54.8895C185.323 54.556 187.185 54.763 188.956 54.5675C190.739 54.4295 192.36 53.705 193.591 52.4975C194.833 51.313 195.73 49.841 196.489 48.346C197.259 46.851 197.857 45.31 198.593 43.838C199.318 42.3775 200.146 40.986 201.181 39.813C202.204 38.6285 203.492 37.697 204.93 37.2485C206.367 36.8115 207.862 36.9035 209.173 37.2485C210.496 37.582 211.68 38.1225 212.807 38.6055C215.027 39.6175 217.074 40.4915 219.006 40.5605C220.926 40.664 222.571 40.2845 223.847 39.8245C226.4 38.8585 227.47 37.6855 227.516 37.766C227.516 37.766 227.274 38.065 226.7 38.502C226.124 38.939 225.227 39.537 223.939 40.043C222.663 40.549 220.984 40.9745 219.006 40.894C217.005 40.848 214.877 39.974 212.658 38.985C211.531 38.5135 210.358 37.9845 209.093 37.6855C207.828 37.3635 206.436 37.2945 205.114 37.7085C203.791 38.1225 202.584 39.008 201.606 40.1465C200.617 41.285 199.824 42.6305 199.122 44.068C197.731 46.92 196.65 50.324 194.028 52.9C193.372 53.521 192.613 54.073 191.762 54.4525C190.911 54.8435 189.98 55.039 189.06 55.131C187.208 55.3265 185.345 55.131 183.563 55.453C182.677 55.614 181.849 55.9475 181.228 56.534C180.619 57.109 180.182 57.937 179.814 58.719C179.101 60.3405 178.917 62.123 178.825 63.8595C178.721 65.596 178.721 67.4015 178.031 69.0575C177.33 70.748 175.812 71.783 174.467 72.634C173.11 73.4965 171.752 74.336 170.993 75.601C170.234 76.843 170.074 78.361 170.062 79.764C170.108 82.593 170.694 85.2955 170.384 87.768C170.154 90.2405 169.349 92.4255 168.176 94.024C166.992 95.6225 165.508 96.5885 164.22 97.083C162.92 97.589 161.816 97.635 161.092 97.5775C160.367 97.5085 160.011 97.3705 160.011 97.3705L159.953 97.382Z" fill="#455A64"/>
<path d="M244.467 53.544C244.34 53.5555 244.57 52.118 243.512 50.232C242.995 49.3005 242.178 48.3 241.074 47.426C239.97 46.5405 238.579 45.8045 237.072 45.103C235.566 44.4015 234.094 43.7805 232.806 43.0675C231.518 42.3545 230.437 41.5725 229.643 40.779C228.85 39.997 228.344 39.2265 228.068 38.6745C227.792 38.111 227.711 37.7775 227.746 37.766C227.849 37.7085 228.321 39.031 229.942 40.4685C230.747 41.1815 231.805 41.906 233.07 42.573C234.335 43.24 235.807 43.838 237.325 44.551C238.843 45.264 240.281 46.0345 241.419 46.989C242.558 47.9435 243.386 49.0245 243.892 50.025C244.386 51.037 244.559 51.957 244.582 52.578C244.593 53.2105 244.501 53.544 244.478 53.544H244.467Z" fill="#455A64"/>
<path d="M218.454 59.064C218.339 59.1905 217.936 59.018 217.281 58.8685C216.637 58.7075 215.717 58.581 214.682 58.5695C213.658 58.5695 212.727 58.696 212.083 58.857C211.427 59.0065 211.025 59.179 210.91 59.041C210.806 58.926 211.071 58.466 211.761 58.075C212.439 57.661 213.509 57.3735 214.682 57.3735C215.855 57.3735 216.924 57.684 217.603 58.098C218.293 58.5005 218.546 58.972 218.442 59.0755L218.454 59.064Z" fill="#263238"/>
<path d="M235.244 61.3295C235.198 61.6515 233.99 61.755 232.553 61.548C231.115 61.341 229.988 60.904 230.034 60.582C230.08 60.26 231.288 60.1565 232.725 60.3635C234.163 60.5705 235.29 61.0075 235.244 61.3295Z" fill="#263238"/>
<path d="M194.994 75.992C194.994 75.992 195.109 76.084 195.281 76.2795C195.454 76.4865 195.684 76.8085 195.902 77.2685C196.362 78.1655 196.696 79.6835 196.408 81.489C196.167 83.283 195.385 85.3415 194.35 87.4345C193.89 88.4925 193.556 89.6655 193.844 90.85C194.108 92.0345 194.833 93.15 195.465 94.369C196.121 95.565 196.535 97.0025 196.328 98.348C196.144 99.682 195.557 100.89 194.729 101.81C193.913 102.73 192.843 103.339 191.785 103.604C190.727 103.857 189.738 103.88 188.853 103.926C187.082 103.972 185.702 104.374 184.908 104.938C184.103 105.49 183.896 106.042 183.839 106.007C183.827 106.007 183.862 105.858 183.988 105.628C184.115 105.398 184.368 105.076 184.77 104.754C185.564 104.087 187.036 103.604 188.83 103.512C189.715 103.431 190.693 103.397 191.67 103.132C192.636 102.879 193.591 102.316 194.327 101.453C195.074 100.614 195.592 99.498 195.753 98.2905C195.925 97.0715 195.58 95.8295 194.948 94.6565C194.338 93.472 193.591 92.322 193.292 90.988C192.97 89.631 193.384 88.297 193.867 87.2275C194.361 86.135 194.902 85.1805 195.235 84.203C195.592 83.237 195.856 82.3055 196.017 81.443C196.351 79.718 196.098 78.2805 195.718 77.3835C195.339 76.475 194.982 76.0495 195.028 76.015L194.994 75.992Z" fill="#263238"/>
<path d="M248.4 106.916C248.4 106.916 248.17 107.053 247.664 107.053C247.169 107.053 246.41 106.8 245.755 106.087C245.122 105.409 244.547 104.225 244.812 102.856C245.03 101.499 245.916 100.165 247.043 98.9575C248.158 97.727 249.584 96.5655 250.493 94.921C250.941 94.1045 251.183 93.15 251.137 92.161C251.102 91.172 250.815 90.1715 250.424 89.171C249.642 87.1815 248.342 85.238 247.675 82.892C247.342 81.719 247.261 80.408 247.629 79.166C248.009 77.924 248.756 76.889 249.343 75.808C249.941 74.7385 250.343 73.577 250.079 72.4615C249.86 71.3345 249.101 70.3915 248.308 69.552C247.514 68.701 246.64 67.9075 245.904 66.999C245.157 66.102 244.616 65.021 244.34 63.94C243.788 61.7435 244.03 59.593 244.432 57.684C244.846 55.775 245.387 54.05 245.732 52.4515C246.514 49.266 246.18 46.5405 245.398 44.896C244.639 43.2285 243.708 42.642 243.777 42.596C243.777 42.596 243.834 42.619 243.938 42.6995C244.041 42.78 244.191 42.8835 244.363 43.056C244.72 43.3895 245.191 43.953 245.605 44.7925C246.031 45.632 246.364 46.7475 246.491 48.07C246.629 49.3925 246.491 50.922 246.146 52.5435C245.824 54.1765 245.306 55.9015 244.915 57.7875C244.547 59.6505 244.34 61.7435 244.881 63.802C245.145 64.8255 245.64 65.7915 246.353 66.6425C247.054 67.505 247.917 68.287 248.745 69.1495C249.55 70.0235 250.401 71.0355 250.665 72.3465C250.976 73.6575 250.493 75.0145 249.872 76.107C249.251 77.2225 248.549 78.246 248.204 79.3615C247.871 80.477 247.928 81.65 248.239 82.7655C248.86 84.9965 250.136 86.94 250.941 88.9985C251.344 90.022 251.643 91.103 251.666 92.1725C251.712 93.2535 251.424 94.3115 250.93 95.1855C249.929 96.945 248.457 98.0835 247.353 99.268C246.226 100.441 245.375 101.683 245.145 102.937C244.869 104.179 245.364 105.282 245.939 105.949C246.514 106.639 247.215 106.904 247.675 106.95C248.147 106.984 248.4 106.893 248.4 106.927V106.916Z" fill="#263238"/>
<path d="M293.526 122.452C293.365 122.533 292.641 120.98 291.031 119.761C289.432 118.508 287.753 118.209 287.788 118.036C287.776 117.887 289.651 117.921 291.387 119.29C293.147 120.635 293.676 122.429 293.515 122.452H293.526Z" fill="#D1734A"/>
<path d="M276.38 185.472C276.23 185.53 275.31 183.23 274.712 180.251C274.103 177.273 274.056 174.8 274.217 174.789C274.39 174.777 274.7 177.192 275.298 180.125C275.885 183.057 276.541 185.415 276.38 185.461V185.472Z" fill="#D1734A"/>
<path d="M203.044 172.581C206.931 171.373 209.967 167.751 210.45 163.174C211.071 157.182 207.057 151.858 201.491 151.283C195.925 150.708 190.911 155.089 190.29 161.081C189.819 165.692 192.096 169.89 195.718 171.845C187.105 172.293 182.919 177.606 180.883 182.333C184.023 186.726 188.646 189.992 194.12 191.326L200.33 191.97C206.045 191.774 211.312 189.463 215.303 185.702C214.268 180.654 211.266 174.662 203.055 172.569L203.044 172.581Z" fill="white"/>
<g opacity="0.3">
<path d="M157.182 168.556L162.288 163.289C162.288 163.289 160.08 201.365 158.573 205.931C157.067 210.508 149.167 225.745 149.167 225.745L155.975 204.919L157.17 168.544L157.182 168.556Z" fill="black"/>
</g>
<path d="M168.486 156.837C168.601 156.952 164.116 161.817 158.458 167.705C152.8 173.593 148.108 178.273 147.993 178.158C147.878 178.043 152.363 173.179 158.033 167.279C163.691 161.391 168.383 156.711 168.498 156.826L168.486 156.837Z" fill="#263238"/>
<path d="M239.867 153.859C239.867 153.859 239.89 154.284 239.821 155.055C239.752 155.825 239.626 156.918 239.442 158.286C239.074 161.012 238.464 164.749 237.602 168.855C236.751 172.96 235.807 176.64 235.06 179.274C234.68 180.596 234.37 181.654 234.117 182.39C233.876 183.115 233.726 183.517 233.68 183.506C233.634 183.494 233.715 183.08 233.887 182.333C234.094 181.459 234.347 180.401 234.634 179.17C235.278 176.502 236.141 172.822 236.992 168.728C237.843 164.634 238.522 160.92 238.993 158.217C239.212 156.975 239.407 155.906 239.568 155.02C239.706 154.261 239.809 153.847 239.844 153.859H239.867Z" fill="#263238"/>
<path d="M216.717 81.305C217.741 80.3965 219.558 80.615 220.34 81.7305C221.133 82.8575 220.719 84.6285 219.523 85.2955C218.327 85.9625 216.602 85.376 216.062 84.1225C215.51 82.8575 216.257 81.213 217.557 80.776" fill="#E8505B"/>
<path d="M216.959 78.7405C217.258 78.7635 216.993 80.7645 218.5 82.4205C220.006 84.0765 222.168 84.1455 222.145 84.433C222.145 84.5595 221.616 84.755 220.719 84.6515C219.834 84.5595 218.58 84.0995 217.66 83.0875C216.74 82.0755 216.453 80.8565 216.499 80.0285C216.533 79.1775 216.832 78.7175 216.959 78.752V78.7405Z" fill="#263238"/>
<path d="M191.441 48.9555C192.602 47.219 193.798 45.379 193.89 43.2975C194.017 40.3305 191.521 37.5245 188.577 37.214C185.621 36.9035 182.643 39.054 181.907 41.929C181.171 44.804 182.7 48.07 185.322 49.4385C187.956 50.8185 191.429 50.2435 193.556 48.1735" fill="#263238"/>
<path d="M194.074 42.987C194.223 42.964 194.281 45.0915 192.889 47.196C191.521 49.3235 189.554 50.1285 189.508 49.979C189.416 49.8295 191.118 48.8405 192.383 46.8625C193.683 44.9075 193.89 42.9525 194.074 42.9755V42.987Z" fill="#455A64"/>
<path d="M190.532 49.3925C190.336 49.381 190.877 46.414 189.784 42.9985C188.738 39.56 186.61 37.4325 186.76 37.306C186.806 37.26 187.404 37.7085 188.163 38.6515C188.922 39.583 189.796 41.0435 190.359 42.8145C190.911 44.5855 191.026 46.2875 190.923 47.4835C190.831 48.691 190.601 49.404 190.532 49.3925Z" fill="#455A64"/>
<path d="M231.081 259.797C247.207 259.797 260.28 246.724 260.28 230.598C260.28 214.472 247.207 201.4 231.081 201.4C214.955 201.4 201.883 214.472 201.883 230.598C201.883 246.724 214.955 259.797 231.081 259.797Z" fill="#E8505B"/>
<g opacity="0.3">
<path d="M231.081 259.797C247.207 259.797 260.28 246.724 260.28 230.598C260.28 214.472 247.207 201.4 231.081 201.4C214.955 201.4 201.883 214.472 201.883 230.598C201.883 246.724 214.955 259.797 231.081 259.797Z" fill="black"/>
</g>
<path d="M231.081 254.38C247.207 254.38 260.28 241.307 260.28 225.181C260.28 209.056 247.207 195.983 231.081 195.983C214.955 195.983 201.883 209.056 201.883 225.181C201.883 241.307 214.955 254.38 231.081 254.38Z" fill="#E8505B"/>
<path d="M231.081 242.455C230.253 242.455 229.586 234.726 229.586 225.181C229.586 215.636 230.253 207.908 231.081 207.908C231.909 207.908 232.576 215.636 232.576 225.181C232.576 234.726 231.909 242.455 231.081 242.455Z" fill="white"/>
<path d="M248.343 225.181C248.343 226.009 240.614 226.677 231.069 226.677C221.524 226.677 213.797 226.009 213.797 225.181C213.797 224.353 221.524 223.686 231.069 223.686C240.614 223.686 248.343 224.353 248.343 225.181Z" fill="white"/>
</svg>
