<svg width="85" height="85" viewBox="0 0 85 85" fill="none" xmlns="http://www.w3.org/2000/svg">
<path fill-rule="evenodd" clip-rule="evenodd" d="M21.7176 22.3118C27.3363 15.4046 32.572 6.28273 41.4448 6.32946C50.8712 6.37911 57.2832 14.9102 62.7829 22.5281C68.9698 31.0979 77.1261 40.7388 73.4992 50.7297C69.8868 60.6809 57.437 62.9899 47.1688 65.54C38.4944 67.6943 29.0509 68.7368 21.8152 63.5653C14.9681 58.6716 13.112 49.6284 13.092 41.1846C13.0748 33.9269 17.1218 27.9616 21.7176 22.3118Z" fill="#040F2B"/>
<path d="M44.8039 56.2845C42.8306 56.2845 40.8972 56.0045 39.0039 55.4445C37.1372 54.8579 35.5639 54.0579 34.2839 53.0445L36.5239 49.0045C37.5372 49.8312 38.7639 50.4979 40.2039 51.0045C41.6439 51.5112 43.1506 51.7645 44.7239 51.7645C46.5906 51.7645 48.0439 51.3912 49.0839 50.6445C50.1239 49.8712 50.6439 48.8312 50.6439 47.5245C50.6439 46.2445 50.1639 45.2312 49.2039 44.4845C48.2439 43.7379 46.6972 43.3645 44.5639 43.3645H42.0039V39.8045L50.0039 30.2845L50.6839 32.2445H35.6439V27.8845H54.7239V31.3645L46.7239 40.8845L44.0039 39.2845H45.5639C49.0039 39.2845 51.5772 40.0579 53.2839 41.6045C55.0172 43.1245 55.8839 45.0845 55.8839 47.4845C55.8839 49.0579 55.4839 50.5112 54.6839 51.8445C53.8839 53.1779 52.6572 54.2579 51.0039 55.0845C49.3772 55.8845 47.3106 56.2845 44.8039 56.2845Z" fill="white"/>
</svg>
