<svg width="454" height="657" viewBox="0 0 454 657" fill="none" xmlns="http://www.w3.org/2000/svg">
<rect x="150" y="200.084" width="294" height="64" rx="10" transform="rotate(-11.3946 150 200.084)" fill="white"/>
<path d="M258.29 218.248C257.244 218.458 256.236 218.485 255.266 218.327C254.306 218.153 253.43 217.819 252.637 217.326C251.854 216.818 251.193 216.169 250.653 215.38C250.113 214.591 249.74 213.687 249.535 212.667C249.33 211.648 249.323 210.67 249.515 209.734C249.707 208.797 250.073 207.948 250.613 207.186C251.151 206.411 251.83 205.765 252.65 205.246C253.468 204.714 254.406 204.341 255.465 204.128C256.589 203.901 257.654 203.89 258.661 204.095C259.666 204.287 260.565 204.698 261.358 205.327L260.023 207.208C259.418 206.772 258.783 206.485 258.116 206.348C257.446 206.197 256.752 206.194 256.033 206.339C255.314 206.484 254.678 206.734 254.124 207.091C253.583 207.445 253.134 207.882 252.776 208.403C252.432 208.921 252.195 209.499 252.065 210.138C251.948 210.773 251.961 211.444 252.103 212.15C252.246 212.856 252.494 213.479 252.847 214.02C253.214 214.558 253.657 214.999 254.175 215.343C254.706 215.685 255.29 215.914 255.926 216.031C256.574 216.145 257.258 216.13 257.977 215.985C258.696 215.84 259.336 215.575 259.898 215.19C260.457 214.792 260.929 214.268 261.315 213.619L263.278 214.855C262.788 215.729 262.118 216.456 261.269 217.035C260.42 217.614 259.427 218.019 258.29 218.248ZM265.908 216.508L263.798 206.039L266.131 205.569L266.712 208.451L266.267 207.663C266.439 206.894 266.821 206.259 267.414 205.759C268.02 205.256 268.826 204.903 269.832 204.7L270.303 207.033C270.193 207.028 270.092 207.035 270.001 207.053C269.906 207.059 269.814 207.071 269.722 207.089C268.794 207.276 268.111 207.7 267.673 208.359C267.232 209.006 267.119 209.865 267.335 210.937L268.359 216.014L265.908 216.508ZM278.898 214.033C277.735 214.268 276.669 214.244 275.701 213.963C274.744 213.667 273.941 213.162 273.295 212.449C272.661 211.733 272.24 210.859 272.032 209.827C271.821 208.781 271.864 207.814 272.161 206.924C272.468 206.019 272.981 205.256 273.699 204.635C274.43 204.012 275.318 203.595 276.364 203.384C277.384 203.178 278.337 203.218 279.224 203.501C280.111 203.785 280.864 204.286 281.485 205.004C282.106 205.722 282.527 206.63 282.748 207.728C282.769 207.833 282.786 207.952 282.8 208.085C282.826 208.216 282.845 208.341 282.855 208.462L274.131 210.22L273.803 208.593L281.233 207.095L280.375 207.798C280.267 207.195 280.036 206.69 279.683 206.285C279.329 205.881 278.897 205.594 278.387 205.424C277.89 205.253 277.347 205.226 276.759 205.344C276.158 205.466 275.655 205.703 275.25 206.057C274.858 206.408 274.579 206.845 274.413 207.368C274.257 207.875 274.242 208.443 274.368 209.07L274.447 209.462C274.574 210.09 274.829 210.616 275.214 211.042C275.599 211.468 276.08 211.759 276.655 211.915C277.231 212.071 277.858 212.08 278.538 211.943C279.126 211.825 279.637 211.626 280.071 211.349C280.504 211.071 280.865 210.699 281.152 210.233L282.769 211.478C282.41 212.122 281.9 212.666 281.242 213.112C280.594 213.542 279.813 213.849 278.898 214.033ZM290.604 211.674C289.598 211.877 288.644 211.838 287.744 211.557C286.855 211.26 286.101 210.759 285.483 210.054C284.865 209.349 284.446 208.454 284.228 207.369C284.009 206.284 284.048 205.297 284.345 204.407C284.642 203.518 285.144 202.771 285.852 202.165C286.573 201.558 287.436 201.152 288.443 200.95C289.318 200.773 290.142 200.811 290.914 201.064C291.683 201.303 292.349 201.774 292.912 202.477C293.476 203.179 293.881 204.145 294.129 205.373C294.374 206.589 294.38 207.635 294.149 208.511C293.915 209.375 293.491 210.072 292.877 210.604C292.264 211.136 291.506 211.492 290.604 211.674ZM290.475 209.517C291.063 209.398 291.56 209.162 291.965 208.809C292.383 208.452 292.679 207.998 292.853 207.446C293.041 206.892 293.067 206.281 292.933 205.614C292.796 204.935 292.535 204.382 292.15 203.957C291.775 203.515 291.326 203.211 290.803 203.045C290.293 202.875 289.744 202.85 289.156 202.969C288.567 203.087 288.064 203.325 287.647 203.681C287.242 204.034 286.946 204.488 286.758 205.043C286.581 205.582 286.561 206.191 286.698 206.871C286.832 207.538 287.087 208.092 287.462 208.533C287.849 208.972 288.298 209.276 288.808 209.445C289.331 209.611 289.887 209.635 290.475 209.517ZM294.047 210.837L293.549 208.367L293.086 205.563L292.329 202.819L291.017 196.31L293.448 195.82L296.38 210.367L294.047 210.837ZM299.605 209.717L297.495 199.248L299.946 198.754L302.056 209.223L299.605 209.717ZM298.383 197.273C297.925 197.366 297.517 197.298 297.159 197.071C296.813 196.842 296.6 196.524 296.518 196.119C296.434 195.701 296.508 195.325 296.74 194.993C296.983 194.645 297.333 194.425 297.79 194.332C298.248 194.24 298.648 194.302 298.991 194.519C299.344 194.72 299.561 195.023 299.643 195.428C299.73 195.859 299.66 196.254 299.433 196.613C299.203 196.958 298.853 197.179 298.383 197.273ZM311.104 207.543C310.215 207.722 309.384 207.685 308.613 207.433C307.841 207.18 307.173 206.702 306.61 206C306.057 205.282 305.659 204.315 305.414 203.099C305.166 201.871 305.166 200.823 305.413 199.957C305.673 199.089 306.111 198.395 306.728 197.877C307.354 197.342 308.093 196.989 308.942 196.818C309.975 196.61 310.928 196.649 311.802 196.936C312.689 197.219 313.441 197.714 314.059 198.419C314.691 199.121 315.115 200.015 315.334 201.1C315.553 202.185 315.507 203.173 315.197 204.065C314.9 204.955 314.4 205.709 313.694 206.327C313 206.929 312.136 207.334 311.104 207.543ZM305.273 208.575L302.341 194.027L304.791 193.534L306.103 200.043L306.468 202.866L307.108 205.634L307.606 208.105L305.273 208.575ZM310.406 205.5C310.994 205.382 311.491 205.145 311.896 204.792C312.314 204.436 312.61 203.982 312.784 203.43C312.958 202.878 312.978 202.268 312.844 201.602C312.707 200.922 312.453 200.368 312.081 199.94C311.706 199.498 311.257 199.194 310.734 199.028C310.224 198.859 309.675 198.833 309.087 198.952C308.498 199.07 307.995 199.308 307.578 199.664C307.16 200.02 306.864 200.474 306.689 201.026C306.512 201.565 306.492 202.175 306.629 202.854C306.763 203.521 307.018 204.075 307.392 204.516C307.767 204.957 308.216 205.261 308.739 205.428C309.262 205.595 309.818 205.619 310.406 205.5ZM318.713 205.866L316.603 195.397L319.054 194.903L321.164 205.372L318.713 205.866ZM317.491 193.422C317.033 193.515 316.625 193.447 316.267 193.22C315.921 192.991 315.708 192.673 315.626 192.268C315.542 191.85 315.616 191.474 315.848 191.142C316.091 190.794 316.441 190.574 316.898 190.482C317.356 190.389 317.756 190.451 318.099 190.668C318.452 190.869 318.669 191.172 318.751 191.577C318.838 192.008 318.768 192.403 318.541 192.762C318.311 193.107 317.961 193.328 317.491 193.422ZM324.381 204.724L321.449 190.176L323.899 189.683L326.831 204.23L324.381 204.724ZM330.048 203.582L327.938 193.112L330.389 192.618L332.499 203.088L330.048 203.582ZM328.825 191.138C328.368 191.23 327.96 191.163 327.601 190.936C327.256 190.706 327.042 190.389 326.961 189.984C326.876 189.565 326.95 189.19 327.182 188.858C327.425 188.51 327.775 188.289 328.233 188.197C328.69 188.105 329.09 188.167 329.433 188.384C329.786 188.585 330.004 188.888 330.086 189.293C330.173 189.724 330.103 190.119 329.876 190.478C329.646 190.823 329.296 191.043 328.825 191.138ZM339.684 201.783C338.533 202.014 337.585 201.9 336.839 201.438C336.091 200.963 335.599 200.144 335.365 198.981L333.472 189.589L335.923 189.096L337.804 198.428C337.904 198.925 338.106 199.285 338.409 199.51C338.726 199.731 339.113 199.796 339.571 199.704C340.12 199.593 340.548 199.357 340.856 198.996L341.894 200.603C341.654 200.896 341.337 201.143 340.942 201.345C340.547 201.547 340.128 201.693 339.684 201.783ZM332.624 194.29L332.229 192.329L339.209 190.922L339.604 192.883L332.624 194.29ZM345.49 204.57C344.98 204.673 344.453 204.691 343.909 204.624C343.365 204.557 342.893 204.407 342.493 204.175L343.11 202.174C343.403 202.346 343.719 202.465 344.059 202.533C344.399 202.6 344.733 202.601 345.06 202.535C345.504 202.446 345.841 202.262 346.071 201.985C346.3 201.707 346.48 201.283 346.61 200.713L346.941 199.218L347.078 198.885L349.173 188.833L351.526 188.358L348.905 200.659C348.736 201.509 348.495 202.203 348.182 202.743C347.882 203.279 347.502 203.689 347.042 203.972C346.596 204.252 346.078 204.452 345.49 204.57ZM346.928 200.568L340.018 190.678L342.566 190.164L348.231 198.428L346.928 200.568Z" fill="#010610"/>
<rect x="140" y="276.823" width="294" height="64" rx="10" fill="white"/>
<path d="M220.878 316.023C219.811 316.023 218.818 315.849 217.898 315.503C216.991 315.143 216.198 314.643 215.518 314.003C214.851 313.349 214.331 312.583 213.958 311.703C213.584 310.823 213.398 309.863 213.398 308.823C213.398 307.783 213.584 306.823 213.958 305.943C214.331 305.063 214.858 304.303 215.538 303.663C216.218 303.009 217.011 302.509 217.918 302.163C218.824 301.803 219.818 301.623 220.898 301.623C222.044 301.623 223.091 301.823 224.038 302.223C224.984 302.609 225.784 303.189 226.438 303.963L224.758 305.543C224.251 304.996 223.684 304.589 223.058 304.323C222.431 304.043 221.751 303.903 221.018 303.903C220.284 303.903 219.611 304.023 218.998 304.263C218.398 304.503 217.871 304.843 217.418 305.283C216.978 305.723 216.631 306.243 216.378 306.843C216.138 307.443 216.018 308.103 216.018 308.823C216.018 309.543 216.138 310.203 216.378 310.803C216.631 311.403 216.978 311.923 217.418 312.363C217.871 312.803 218.398 313.143 218.998 313.383C219.611 313.623 220.284 313.743 221.018 313.743C221.751 313.743 222.431 313.609 223.058 313.343C223.684 313.063 224.251 312.643 224.758 312.083L226.438 313.683C225.784 314.443 224.984 315.023 224.038 315.423C223.091 315.823 222.038 316.023 220.878 316.023ZM228.689 315.823V305.143H231.069V308.083L230.789 307.223C231.109 306.503 231.609 305.956 232.289 305.583C232.982 305.209 233.842 305.023 234.869 305.023V307.403C234.762 307.376 234.662 307.363 234.569 307.363C234.475 307.349 234.382 307.343 234.289 307.343C233.342 307.343 232.589 307.623 232.029 308.183C231.469 308.729 231.189 309.549 231.189 310.643V315.823H228.689ZM241.692 315.963C240.599 315.963 239.625 315.729 238.772 315.263C237.919 314.783 237.245 314.129 236.752 313.303C236.259 312.476 236.012 311.536 236.012 310.483C236.012 309.416 236.259 308.476 236.752 307.663C237.245 306.836 237.919 306.189 238.772 305.723C239.625 305.256 240.599 305.023 241.692 305.023C242.799 305.023 243.779 305.256 244.632 305.723C245.499 306.189 246.172 306.829 246.652 307.643C247.145 308.456 247.392 309.403 247.392 310.483C247.392 311.536 247.145 312.476 246.652 313.303C246.172 314.129 245.499 314.783 244.632 315.263C243.779 315.729 242.799 315.963 241.692 315.963ZM241.692 313.823C242.305 313.823 242.852 313.689 243.332 313.423C243.812 313.156 244.185 312.769 244.452 312.263C244.732 311.756 244.872 311.163 244.872 310.483C244.872 309.789 244.732 309.196 244.452 308.703C244.185 308.196 243.812 307.809 243.332 307.543C242.852 307.276 242.312 307.143 241.712 307.143C241.099 307.143 240.552 307.276 240.072 307.543C239.605 307.809 239.232 308.196 238.952 308.703C238.672 309.196 238.532 309.789 238.532 310.483C238.532 311.163 238.672 311.756 238.952 312.263C239.232 312.769 239.605 313.156 240.072 313.423C240.552 313.689 241.092 313.823 241.692 313.823ZM251.85 315.823L247.93 305.143H250.29L253.65 314.563H252.53L256.05 305.143H258.15L261.57 314.563H260.47L263.93 305.143H266.15L262.21 315.823H259.81L256.69 307.483H257.43L254.25 315.823H251.85ZM272.096 315.963C271.069 315.963 270.142 315.736 269.316 315.283C268.502 314.816 267.862 314.176 267.396 313.363C266.929 312.549 266.696 311.589 266.696 310.483C266.696 309.376 266.929 308.416 267.396 307.603C267.862 306.789 268.502 306.156 269.316 305.703C270.142 305.249 271.069 305.023 272.096 305.023C272.989 305.023 273.789 305.223 274.496 305.623C275.202 306.009 275.762 306.603 276.176 307.403C276.589 308.203 276.796 309.229 276.796 310.483C276.796 311.723 276.596 312.749 276.196 313.563C275.796 314.363 275.242 314.963 274.536 315.363C273.829 315.763 273.016 315.963 272.096 315.963ZM272.396 313.823C272.996 313.823 273.529 313.689 273.996 313.423C274.476 313.156 274.856 312.769 275.136 312.263C275.429 311.756 275.576 311.163 275.576 310.483C275.576 309.789 275.429 309.196 275.136 308.703C274.856 308.196 274.476 307.809 273.996 307.543C273.529 307.276 272.996 307.143 272.396 307.143C271.796 307.143 271.256 307.276 270.776 307.543C270.309 307.809 269.929 308.196 269.636 308.703C269.356 309.196 269.216 309.789 269.216 310.483C269.216 311.163 269.356 311.756 269.636 312.263C269.929 312.769 270.309 313.156 270.776 313.423C271.256 313.689 271.796 313.823 272.396 313.823ZM275.636 315.823V313.303L275.736 310.463L275.536 307.623V300.983H278.016V315.823H275.636ZM281.646 315.823V304.543C281.646 303.423 281.973 302.529 282.626 301.863C283.293 301.183 284.239 300.843 285.466 300.843C285.906 300.843 286.319 300.889 286.706 300.983C287.106 301.076 287.439 301.223 287.706 301.423L287.026 303.303C286.839 303.156 286.626 303.049 286.386 302.983C286.146 302.903 285.899 302.863 285.646 302.863C285.126 302.863 284.733 303.009 284.466 303.303C284.199 303.583 284.066 304.009 284.066 304.583V305.783L284.146 306.903V315.823H281.646ZM279.886 307.223V305.223H287.006V307.223H279.886ZM293.209 315.963C292.302 315.963 291.502 315.796 290.809 315.463C290.115 315.116 289.575 314.596 289.189 313.903C288.802 313.196 288.609 312.309 288.609 311.243V305.143H291.109V310.903C291.109 311.863 291.322 312.583 291.749 313.063C292.189 313.529 292.809 313.763 293.609 313.763C294.195 313.763 294.702 313.643 295.129 313.403C295.569 313.163 295.909 312.803 296.149 312.323C296.402 311.843 296.529 311.249 296.529 310.543V305.143H299.029V315.823H296.649V312.943L297.069 313.823C296.709 314.516 296.182 315.049 295.489 315.423C294.795 315.783 294.035 315.963 293.209 315.963ZM308.362 305.023C309.215 305.023 309.975 305.189 310.642 305.523C311.322 305.856 311.855 306.369 312.242 307.063C312.629 307.743 312.822 308.623 312.822 309.703V315.823H310.322V310.023C310.322 309.076 310.095 308.369 309.642 307.903C309.202 307.436 308.582 307.203 307.782 307.203C307.195 307.203 306.675 307.323 306.222 307.563C305.769 307.803 305.415 308.163 305.162 308.643C304.922 309.109 304.802 309.703 304.802 310.423V315.823H302.302V305.143H304.682V308.023L304.262 307.143C304.635 306.463 305.175 305.943 305.882 305.583C306.602 305.209 307.429 305.023 308.362 305.023ZM320.533 315.963C319.506 315.963 318.58 315.736 317.753 315.283C316.94 314.816 316.3 314.176 315.833 313.363C315.366 312.549 315.133 311.589 315.133 310.483C315.133 309.376 315.366 308.416 315.833 307.603C316.3 306.789 316.94 306.156 317.753 305.703C318.58 305.249 319.506 305.023 320.533 305.023C321.426 305.023 322.226 305.223 322.933 305.623C323.64 306.009 324.2 306.603 324.613 307.403C325.026 308.203 325.233 309.229 325.233 310.483C325.233 311.723 325.033 312.749 324.633 313.563C324.233 314.363 323.68 314.963 322.973 315.363C322.266 315.763 321.453 315.963 320.533 315.963ZM320.833 313.823C321.433 313.823 321.966 313.689 322.433 313.423C322.913 313.156 323.293 312.769 323.573 312.263C323.866 311.756 324.013 311.163 324.013 310.483C324.013 309.789 323.866 309.196 323.573 308.703C323.293 308.196 322.913 307.809 322.433 307.543C321.966 307.276 321.433 307.143 320.833 307.143C320.233 307.143 319.693 307.276 319.213 307.543C318.746 307.809 318.366 308.196 318.073 308.703C317.793 309.196 317.653 309.789 317.653 310.483C317.653 311.163 317.793 311.756 318.073 312.263C318.366 312.769 318.746 313.156 319.213 313.423C319.693 313.689 320.233 313.823 320.833 313.823ZM324.073 315.823V313.303L324.173 310.463L323.973 307.623V300.983H326.453V315.823H324.073ZM329.744 315.823V305.143H332.244V315.823H329.744ZM331.004 303.383C330.537 303.383 330.15 303.236 329.844 302.943C329.55 302.649 329.404 302.296 329.404 301.883C329.404 301.456 329.55 301.103 329.844 300.823C330.15 300.529 330.537 300.383 331.004 300.383C331.47 300.383 331.85 300.523 332.144 300.803C332.45 301.069 332.604 301.409 332.604 301.823C332.604 302.263 332.457 302.636 332.164 302.943C331.87 303.236 331.484 303.383 331.004 303.383ZM341.585 305.023C342.438 305.023 343.198 305.189 343.865 305.523C344.545 305.856 345.078 306.369 345.465 307.063C345.851 307.743 346.045 308.623 346.045 309.703V315.823H343.545V310.023C343.545 309.076 343.318 308.369 342.865 307.903C342.425 307.436 341.805 307.203 341.005 307.203C340.418 307.203 339.898 307.323 339.445 307.563C338.991 307.803 338.638 308.163 338.385 308.643C338.145 309.109 338.025 309.703 338.025 310.423V315.823H335.525V305.143H337.905V308.023L337.485 307.143C337.858 306.463 338.398 305.943 339.105 305.583C339.825 305.209 340.651 305.023 341.585 305.023ZM354.076 319.843C353.089 319.843 352.122 319.709 351.176 319.443C350.242 319.189 349.476 318.816 348.876 318.323L349.996 316.443C350.462 316.829 351.049 317.136 351.756 317.363C352.476 317.603 353.202 317.723 353.936 317.723C355.109 317.723 355.969 317.449 356.516 316.903C357.062 316.369 357.336 315.563 357.336 314.483V312.583L357.536 310.163L357.456 307.743V305.143H359.836V314.203C359.836 316.136 359.342 317.556 358.356 318.463C357.369 319.383 355.942 319.843 354.076 319.843ZM353.756 315.343C352.742 315.343 351.822 315.129 350.996 314.703C350.182 314.263 349.536 313.656 349.056 312.883C348.589 312.109 348.356 311.203 348.356 310.163C348.356 309.136 348.589 308.236 349.056 307.463C349.536 306.689 350.182 306.089 350.996 305.663C351.822 305.236 352.742 305.023 353.756 305.023C354.662 305.023 355.476 305.203 356.196 305.563C356.916 305.923 357.489 306.483 357.916 307.243C358.356 308.003 358.576 308.976 358.576 310.163C358.576 311.349 358.356 312.329 357.916 313.103C357.489 313.863 356.916 314.429 356.196 314.803C355.476 315.163 354.662 315.343 353.756 315.343ZM354.136 313.223C354.762 313.223 355.322 313.096 355.816 312.843C356.309 312.576 356.689 312.216 356.956 311.763C357.236 311.296 357.376 310.763 357.376 310.163C357.376 309.563 357.236 309.036 356.956 308.583C356.689 308.116 356.309 307.763 355.816 307.523C355.322 307.269 354.762 307.143 354.136 307.143C353.509 307.143 352.942 307.269 352.436 307.523C351.942 307.763 351.556 308.116 351.276 308.583C351.009 309.036 350.876 309.563 350.876 310.163C350.876 310.763 351.009 311.296 351.276 311.763C351.556 312.216 351.942 312.576 352.436 312.843C352.942 313.096 353.509 313.223 354.136 313.223Z" fill="#010610"/>
<rect x="160" y="354.823" width="294" height="64" rx="10" fill="white"/>
<path d="M232.134 393.823L238.434 379.823H240.994L247.314 393.823H244.594L239.174 381.203H240.214L234.814 393.823H232.134ZM235.034 390.583L235.734 388.543H243.294L243.994 390.583H235.034ZM253.657 393.963C252.537 393.963 251.537 393.729 250.657 393.263C249.791 392.783 249.111 392.129 248.617 391.303C248.124 390.476 247.877 389.536 247.877 388.483C247.877 387.416 248.124 386.476 248.617 385.663C249.111 384.836 249.791 384.189 250.657 383.723C251.537 383.256 252.537 383.023 253.657 383.023C254.697 383.023 255.611 383.236 256.397 383.663C257.197 384.076 257.804 384.689 258.217 385.503L256.297 386.623C255.977 386.116 255.584 385.743 255.117 385.503C254.664 385.263 254.171 385.143 253.637 385.143C253.024 385.143 252.471 385.276 251.977 385.543C251.484 385.809 251.097 386.196 250.817 386.703C250.537 387.196 250.397 387.789 250.397 388.483C250.397 389.176 250.537 389.776 250.817 390.283C251.097 390.776 251.484 391.156 251.977 391.423C252.471 391.689 253.024 391.823 253.637 391.823C254.171 391.823 254.664 391.703 255.117 391.463C255.584 391.223 255.977 390.849 256.297 390.343L258.217 391.463C257.804 392.263 257.197 392.883 256.397 393.323C255.611 393.749 254.697 393.963 253.657 393.963ZM265.122 393.963C264.002 393.963 263.002 393.729 262.122 393.263C261.255 392.783 260.575 392.129 260.082 391.303C259.589 390.476 259.342 389.536 259.342 388.483C259.342 387.416 259.589 386.476 260.082 385.663C260.575 384.836 261.255 384.189 262.122 383.723C263.002 383.256 264.002 383.023 265.122 383.023C266.162 383.023 267.075 383.236 267.862 383.663C268.662 384.076 269.269 384.689 269.682 385.503L267.762 386.623C267.442 386.116 267.049 385.743 266.582 385.503C266.129 385.263 265.635 385.143 265.102 385.143C264.489 385.143 263.935 385.276 263.442 385.543C262.949 385.809 262.562 386.196 262.282 386.703C262.002 387.196 261.862 387.789 261.862 388.483C261.862 389.176 262.002 389.776 262.282 390.283C262.562 390.776 262.949 391.156 263.442 391.423C263.935 391.689 264.489 391.823 265.102 391.823C265.635 391.823 266.129 391.703 266.582 391.463C267.049 391.223 267.442 390.849 267.762 390.343L269.682 391.463C269.269 392.263 268.662 392.883 267.862 393.323C267.075 393.749 266.162 393.963 265.122 393.963ZM276.487 393.963C275.394 393.963 274.42 393.729 273.567 393.263C272.714 392.783 272.04 392.129 271.547 391.303C271.054 390.476 270.807 389.536 270.807 388.483C270.807 387.416 271.054 386.476 271.547 385.663C272.04 384.836 272.714 384.189 273.567 383.723C274.42 383.256 275.394 383.023 276.487 383.023C277.594 383.023 278.574 383.256 279.427 383.723C280.294 384.189 280.967 384.829 281.447 385.643C281.94 386.456 282.187 387.403 282.187 388.483C282.187 389.536 281.94 390.476 281.447 391.303C280.967 392.129 280.294 392.783 279.427 393.263C278.574 393.729 277.594 393.963 276.487 393.963ZM276.487 391.823C277.1 391.823 277.647 391.689 278.127 391.423C278.607 391.156 278.98 390.769 279.247 390.263C279.527 389.756 279.667 389.163 279.667 388.483C279.667 387.789 279.527 387.196 279.247 386.703C278.98 386.196 278.607 385.809 278.127 385.543C277.647 385.276 277.107 385.143 276.507 385.143C275.894 385.143 275.347 385.276 274.867 385.543C274.4 385.809 274.027 386.196 273.747 386.703C273.467 387.196 273.327 387.789 273.327 388.483C273.327 389.163 273.467 389.756 273.747 390.263C274.027 390.769 274.4 391.156 274.867 391.423C275.347 391.689 275.887 391.823 276.487 391.823ZM289.098 393.963C288.191 393.963 287.391 393.796 286.698 393.463C286.004 393.116 285.464 392.596 285.078 391.903C284.691 391.196 284.498 390.309 284.498 389.243V383.143H286.998V388.903C286.998 389.863 287.211 390.583 287.638 391.063C288.078 391.529 288.698 391.763 289.498 391.763C290.084 391.763 290.591 391.643 291.018 391.403C291.458 391.163 291.798 390.803 292.038 390.323C292.291 389.843 292.418 389.249 292.418 388.543V383.143H294.918V393.823H292.538V390.943L292.958 391.823C292.598 392.516 292.071 393.049 291.378 393.423C290.684 393.783 289.924 393.963 289.098 393.963ZM304.251 383.023C305.104 383.023 305.864 383.189 306.531 383.523C307.211 383.856 307.744 384.369 308.131 385.063C308.517 385.743 308.711 386.623 308.711 387.703V393.823H306.211V388.023C306.211 387.076 305.984 386.369 305.531 385.903C305.091 385.436 304.471 385.203 303.671 385.203C303.084 385.203 302.564 385.323 302.111 385.563C301.657 385.803 301.304 386.163 301.051 386.643C300.811 387.109 300.691 387.703 300.691 388.423V393.823H298.191V383.143H300.571V386.023L300.151 385.143C300.524 384.463 301.064 383.943 301.771 383.583C302.491 383.209 303.317 383.023 304.251 383.023ZM315.902 393.963C314.729 393.963 313.822 393.663 313.182 393.063C312.542 392.449 312.222 391.549 312.222 390.363V380.783H314.722V390.303C314.722 390.809 314.849 391.203 315.102 391.483C315.369 391.763 315.736 391.903 316.202 391.903C316.762 391.903 317.229 391.756 317.602 391.463L318.302 393.243C318.009 393.483 317.649 393.663 317.222 393.783C316.796 393.903 316.356 393.963 315.902 393.963ZM310.462 385.223V383.223H317.582V385.223H310.462ZM326.939 393.823V391.663L326.799 391.203V387.423C326.799 386.689 326.579 386.123 326.139 385.723C325.699 385.309 325.032 385.103 324.139 385.103C323.539 385.103 322.945 385.196 322.359 385.383C321.785 385.569 321.299 385.829 320.899 386.163L319.919 384.343C320.492 383.903 321.172 383.576 321.959 383.363C322.759 383.136 323.585 383.023 324.439 383.023C325.985 383.023 327.179 383.396 328.019 384.143C328.872 384.876 329.299 386.016 329.299 387.563V393.823H326.939ZM323.579 393.963C322.779 393.963 322.079 393.829 321.479 393.563C320.879 393.283 320.412 392.903 320.079 392.423C319.759 391.929 319.599 391.376 319.599 390.763C319.599 390.163 319.739 389.623 320.019 389.143C320.312 388.663 320.785 388.283 321.439 388.003C322.092 387.723 322.959 387.583 324.039 387.583H327.139V389.243H324.219C323.365 389.243 322.792 389.383 322.499 389.663C322.205 389.929 322.059 390.263 322.059 390.663C322.059 391.116 322.239 391.476 322.599 391.743C322.959 392.009 323.459 392.143 324.099 392.143C324.712 392.143 325.259 392.003 325.739 391.723C326.232 391.443 326.585 391.029 326.799 390.483L327.219 391.983C326.979 392.609 326.545 393.096 325.919 393.443C325.305 393.789 324.525 393.963 323.579 393.963ZM338.427 393.963C337.521 393.963 336.714 393.763 336.007 393.363C335.301 392.963 334.741 392.363 334.327 391.563C333.927 390.749 333.727 389.723 333.727 388.483C333.727 387.229 333.934 386.203 334.347 385.403C334.774 384.603 335.341 384.009 336.047 383.623C336.767 383.223 337.561 383.023 338.427 383.023C339.481 383.023 340.407 383.249 341.207 383.703C342.021 384.156 342.661 384.789 343.127 385.603C343.607 386.416 343.847 387.376 343.847 388.483C343.847 389.589 343.607 390.549 343.127 391.363C342.661 392.176 342.021 392.816 341.207 393.283C340.407 393.736 339.481 393.963 338.427 393.963ZM332.507 393.823V378.983H335.007V385.623L334.807 388.463L334.887 391.303V393.823H332.507ZM338.147 391.823C338.747 391.823 339.281 391.689 339.747 391.423C340.227 391.156 340.607 390.769 340.887 390.263C341.167 389.756 341.307 389.163 341.307 388.483C341.307 387.789 341.167 387.196 340.887 386.703C340.607 386.196 340.227 385.809 339.747 385.543C339.281 385.276 338.747 385.143 338.147 385.143C337.547 385.143 337.007 385.276 336.527 385.543C336.047 385.809 335.667 386.196 335.387 386.703C335.107 387.196 334.967 387.789 334.967 388.483C334.967 389.163 335.107 389.756 335.387 390.263C335.667 390.769 336.047 391.156 336.527 391.423C337.007 391.689 337.547 391.823 338.147 391.823ZM346.218 393.823V383.143H348.718V393.823H346.218ZM347.478 381.383C347.011 381.383 346.625 381.236 346.318 380.943C346.025 380.649 345.878 380.296 345.878 379.883C345.878 379.456 346.025 379.103 346.318 378.823C346.625 378.529 347.011 378.383 347.478 378.383C347.945 378.383 348.325 378.523 348.618 378.803C348.925 379.069 349.078 379.409 349.078 379.823C349.078 380.263 348.931 380.636 348.638 380.943C348.345 381.236 347.958 381.383 347.478 381.383ZM351.999 393.823V378.983H354.499V393.823H351.999ZM357.781 393.823V383.143H360.281V393.823H357.781ZM359.041 381.383C358.574 381.383 358.187 381.236 357.881 380.943C357.587 380.649 357.441 380.296 357.441 379.883C357.441 379.456 357.587 379.103 357.881 378.823C358.187 378.529 358.574 378.383 359.041 378.383C359.507 378.383 359.887 378.523 360.181 378.803C360.487 379.069 360.641 379.409 360.641 379.823C360.641 380.263 360.494 380.636 360.201 380.943C359.907 381.236 359.521 381.383 359.041 381.383ZM367.582 393.963C366.409 393.963 365.502 393.663 364.862 393.063C364.222 392.449 363.902 391.549 363.902 390.363V380.783H366.402V390.303C366.402 390.809 366.529 391.203 366.782 391.483C367.049 391.763 367.415 391.903 367.882 391.903C368.442 391.903 368.909 391.756 369.282 391.463L369.982 393.243C369.689 393.483 369.329 393.663 368.902 393.783C368.475 393.903 368.035 393.963 367.582 393.963ZM362.142 385.223V383.223H369.262V385.223H362.142ZM372.723 397.843C372.203 397.843 371.683 397.756 371.163 397.583C370.643 397.409 370.21 397.169 369.863 396.863L370.863 395.023C371.116 395.249 371.403 395.429 371.723 395.563C372.043 395.696 372.37 395.763 372.703 395.763C373.156 395.763 373.523 395.649 373.803 395.423C374.083 395.196 374.343 394.816 374.583 394.283L375.203 392.883L375.403 392.583L379.443 383.143H381.843L376.843 394.683C376.51 395.483 376.136 396.116 375.723 396.583C375.323 397.049 374.87 397.376 374.363 397.563C373.87 397.749 373.323 397.843 372.723 397.843ZM374.923 394.203L370.103 383.143H372.703L376.623 392.363L374.923 394.203Z" fill="#010610"/>
<rect x="140" y="432.823" width="294" height="64" rx="10" fill="white"/>
<path d="M242.044 471.823V457.823H244.644V471.823H242.044ZM254.251 461.023C255.104 461.023 255.864 461.189 256.531 461.523C257.211 461.856 257.744 462.369 258.131 463.063C258.517 463.743 258.711 464.623 258.711 465.703V471.823H256.211V466.023C256.211 465.076 255.984 464.369 255.531 463.903C255.091 463.436 254.471 463.203 253.671 463.203C253.084 463.203 252.564 463.323 252.111 463.563C251.657 463.803 251.304 464.163 251.051 464.643C250.811 465.109 250.691 465.703 250.691 466.423V471.823H248.191V461.143H250.571V464.023L250.151 463.143C250.524 462.463 251.064 461.943 251.771 461.583C252.491 461.209 253.317 461.023 254.251 461.023ZM266.802 471.963C265.682 471.963 264.682 471.729 263.802 471.263C262.935 470.783 262.255 470.129 261.762 469.303C261.268 468.476 261.022 467.536 261.022 466.483C261.022 465.416 261.268 464.476 261.762 463.663C262.255 462.836 262.935 462.189 263.802 461.723C264.682 461.256 265.682 461.023 266.802 461.023C267.842 461.023 268.755 461.236 269.542 461.663C270.342 462.076 270.948 462.689 271.362 463.503L269.442 464.623C269.122 464.116 268.728 463.743 268.262 463.503C267.808 463.263 267.315 463.143 266.782 463.143C266.168 463.143 265.615 463.276 265.122 463.543C264.628 463.809 264.242 464.196 263.962 464.703C263.682 465.196 263.542 465.789 263.542 466.483C263.542 467.176 263.682 467.776 263.962 468.283C264.242 468.776 264.628 469.156 265.122 469.423C265.615 469.689 266.168 469.823 266.782 469.823C267.315 469.823 267.808 469.703 268.262 469.463C268.728 469.223 269.122 468.849 269.442 468.343L271.362 469.463C270.948 470.263 270.342 470.883 269.542 471.323C268.755 471.749 267.842 471.963 266.802 471.963ZM273.425 471.823V456.983H275.925V471.823H273.425ZM283.726 471.963C282.82 471.963 282.02 471.796 281.326 471.463C280.633 471.116 280.093 470.596 279.706 469.903C279.32 469.196 279.126 468.309 279.126 467.243V461.143H281.626V466.903C281.626 467.863 281.84 468.583 282.266 469.063C282.706 469.529 283.326 469.763 284.126 469.763C284.713 469.763 285.22 469.643 285.646 469.403C286.086 469.163 286.426 468.803 286.666 468.323C286.92 467.843 287.046 467.249 287.046 466.543V461.143H289.546V471.823H287.166V468.943L287.586 469.823C287.226 470.516 286.7 471.049 286.006 471.423C285.313 471.783 284.553 471.963 283.726 471.963ZM296.12 471.963C295.226 471.963 294.366 471.849 293.54 471.623C292.726 471.383 292.08 471.096 291.6 470.763L292.56 468.863C293.04 469.169 293.613 469.423 294.28 469.623C294.946 469.823 295.613 469.923 296.28 469.923C297.066 469.923 297.633 469.816 297.98 469.603C298.34 469.389 298.52 469.103 298.52 468.743C298.52 468.449 298.4 468.229 298.16 468.083C297.92 467.923 297.606 467.803 297.22 467.723C296.833 467.643 296.4 467.569 295.92 467.503C295.453 467.436 294.98 467.349 294.5 467.243C294.033 467.123 293.606 466.956 293.22 466.743C292.833 466.516 292.52 466.216 292.28 465.843C292.04 465.469 291.92 464.976 291.92 464.363C291.92 463.683 292.113 463.096 292.5 462.603C292.886 462.096 293.426 461.709 294.12 461.443C294.826 461.163 295.66 461.023 296.62 461.023C297.34 461.023 298.066 461.103 298.8 461.263C299.533 461.423 300.14 461.649 300.62 461.943L299.66 463.843C299.153 463.536 298.64 463.329 298.12 463.223C297.613 463.103 297.106 463.043 296.6 463.043C295.84 463.043 295.273 463.156 294.9 463.383C294.54 463.609 294.36 463.896 294.36 464.243C294.36 464.563 294.48 464.803 294.72 464.963C294.96 465.123 295.273 465.249 295.66 465.343C296.046 465.436 296.473 465.516 296.94 465.583C297.42 465.636 297.893 465.723 298.36 465.843C298.826 465.963 299.253 466.129 299.64 466.343C300.04 466.543 300.36 466.829 300.6 467.203C300.84 467.576 300.96 468.063 300.96 468.663C300.96 469.329 300.76 469.909 300.36 470.403C299.973 470.896 299.42 471.283 298.7 471.563C297.98 471.829 297.12 471.963 296.12 471.963ZM303.113 471.823V461.143H305.613V471.823H303.113ZM304.373 459.383C303.906 459.383 303.519 459.236 303.213 458.943C302.919 458.649 302.773 458.296 302.773 457.883C302.773 457.456 302.919 457.103 303.213 456.823C303.519 456.529 303.906 456.383 304.373 456.383C304.839 456.383 305.219 456.523 305.513 456.803C305.819 457.069 305.973 457.409 305.973 457.823C305.973 458.263 305.826 458.636 305.533 458.943C305.239 459.236 304.853 459.383 304.373 459.383ZM313.694 471.963C312.601 471.963 311.627 471.729 310.774 471.263C309.921 470.783 309.247 470.129 308.754 469.303C308.261 468.476 308.014 467.536 308.014 466.483C308.014 465.416 308.261 464.476 308.754 463.663C309.247 462.836 309.921 462.189 310.774 461.723C311.627 461.256 312.601 461.023 313.694 461.023C314.801 461.023 315.781 461.256 316.634 461.723C317.501 462.189 318.174 462.829 318.654 463.643C319.147 464.456 319.394 465.403 319.394 466.483C319.394 467.536 319.147 468.476 318.654 469.303C318.174 470.129 317.501 470.783 316.634 471.263C315.781 471.729 314.801 471.963 313.694 471.963ZM313.694 469.823C314.307 469.823 314.854 469.689 315.334 469.423C315.814 469.156 316.187 468.769 316.454 468.263C316.734 467.756 316.874 467.163 316.874 466.483C316.874 465.789 316.734 465.196 316.454 464.703C316.187 464.196 315.814 463.809 315.334 463.543C314.854 463.276 314.314 463.143 313.714 463.143C313.101 463.143 312.554 463.276 312.074 463.543C311.607 463.809 311.234 464.196 310.954 464.703C310.674 465.196 310.534 465.789 310.534 466.483C310.534 467.163 310.674 467.756 310.954 468.263C311.234 468.769 311.607 469.156 312.074 469.423C312.554 469.689 313.094 469.823 313.694 469.823ZM327.845 461.023C328.698 461.023 329.458 461.189 330.125 461.523C330.805 461.856 331.338 462.369 331.725 463.063C332.111 463.743 332.305 464.623 332.305 465.703V471.823H329.805V466.023C329.805 465.076 329.578 464.369 329.125 463.903C328.685 463.436 328.065 463.203 327.265 463.203C326.678 463.203 326.158 463.323 325.705 463.563C325.251 463.803 324.898 464.163 324.645 464.643C324.405 465.109 324.285 465.703 324.285 466.423V471.823H321.785V461.143H324.165V464.023L323.745 463.143C324.118 462.463 324.658 461.943 325.365 461.583C326.085 461.209 326.911 461.023 327.845 461.023Z" fill="#010610"/>
<rect x="148.751" y="517.222" width="294" height="64" rx="10" transform="rotate(-2.48338 148.751 517.222)" fill="white"/>
<path d="M244.696 552.298C243.63 552.344 242.631 552.214 241.696 551.907C240.775 551.587 239.961 551.122 239.254 550.512C238.559 549.888 238.007 549.145 237.595 548.282C237.184 547.419 236.956 546.468 236.911 545.429C236.866 544.39 237.011 543.422 237.346 542.527C237.681 541.632 238.174 540.85 238.826 540.181C239.477 539.499 240.248 538.965 241.138 538.579C242.029 538.18 243.013 537.957 244.092 537.91C245.238 537.861 246.292 538.015 247.255 538.374C248.218 538.719 249.042 539.264 249.728 540.008L248.118 541.659C247.588 541.135 247.005 540.753 246.367 540.514C245.729 540.262 245.043 540.151 244.311 540.183C243.578 540.215 242.911 540.364 242.308 540.63C241.719 540.896 241.208 541.258 240.774 541.718C240.353 542.176 240.03 542.711 239.803 543.321C239.589 543.931 239.497 544.596 239.529 545.315C239.56 546.034 239.708 546.689 239.974 547.278C240.253 547.866 240.622 548.371 241.081 548.791C241.553 549.211 242.094 549.528 242.703 549.742C243.327 549.955 244.005 550.046 244.737 550.014C245.47 549.982 246.143 549.819 246.758 549.526C247.372 549.219 247.92 548.775 248.402 548.193L250.149 549.719C249.53 550.507 248.756 551.121 247.827 551.561C246.899 552.002 245.855 552.247 244.696 552.298ZM256.883 551.709C255.791 551.756 254.808 551.566 253.936 551.136C253.062 550.694 252.361 550.07 251.832 549.266C251.304 548.461 251.017 547.533 250.971 546.48C250.925 545.415 251.13 544.465 251.588 543.631C252.045 542.784 252.69 542.108 253.522 541.605C254.354 541.102 255.317 540.827 256.409 540.779C257.515 540.731 258.504 540.922 259.377 541.351C260.263 541.78 260.963 542.39 261.478 543.182C262.006 543.973 262.294 544.908 262.34 545.987C262.386 547.04 262.18 547.989 261.723 548.837C261.279 549.683 260.635 550.365 259.79 550.882C258.958 551.386 257.989 551.661 256.883 551.709ZM256.79 549.571C257.403 549.545 257.944 549.388 258.412 549.1C258.88 548.813 259.236 548.411 259.48 547.893C259.738 547.375 259.852 546.776 259.823 546.096C259.793 545.404 259.627 544.817 259.326 544.336C259.038 543.842 258.648 543.472 258.157 543.226C257.666 542.98 257.12 542.871 256.521 542.897C255.908 542.923 255.368 543.08 254.9 543.367C254.445 543.654 254.089 544.056 253.831 544.575C253.573 545.08 253.459 545.678 253.489 546.371C253.518 547.051 253.684 547.637 253.985 548.131C254.287 548.625 254.677 548.995 255.155 549.242C255.646 549.487 256.191 549.597 256.79 549.571ZM277.959 539.845C278.812 539.808 279.572 539.942 280.239 540.246C280.919 540.55 281.461 541.041 281.864 541.717C282.267 542.38 282.491 543.252 282.538 544.331L282.803 550.445L280.306 550.553L280.054 544.759C280.013 543.813 279.776 543.116 279.343 542.667C278.91 542.219 278.307 542.012 277.534 542.045C276.988 542.069 276.507 542.21 276.091 542.468C275.689 542.726 275.378 543.093 275.158 543.57C274.952 544.046 274.864 544.643 274.896 545.363L275.131 550.778L272.633 550.886L272.382 545.091C272.341 544.146 272.103 543.449 271.67 543C271.237 542.552 270.634 542.344 269.862 542.378C269.315 542.402 268.834 542.543 268.419 542.801C268.016 543.059 267.705 543.426 267.485 543.902C267.279 544.378 267.192 544.976 267.223 545.695L267.458 551.11L264.96 551.219L264.497 540.549L266.875 540.446L266.998 543.283L266.542 542.462C266.872 541.754 267.368 541.205 268.032 540.816C268.709 540.426 269.487 540.212 270.367 540.174C271.366 540.131 272.242 540.34 272.996 540.801C273.764 541.261 274.289 541.986 274.572 542.974L273.578 542.677C273.89 541.863 274.435 541.199 275.213 540.685C275.992 540.17 276.907 539.89 277.959 539.845ZM298.994 538.932C299.847 538.895 300.607 539.029 301.274 539.334C301.954 539.638 302.496 540.128 302.899 540.805C303.302 541.468 303.526 542.339 303.573 543.418L303.838 549.533L301.341 549.641L301.089 543.846C301.048 542.9 300.811 542.203 300.378 541.755C299.945 541.307 299.342 541.099 298.569 541.133C298.023 541.157 297.542 541.298 297.126 541.556C296.724 541.814 296.413 542.181 296.193 542.657C295.987 543.133 295.899 543.731 295.931 544.45L296.165 549.865L293.668 549.974L293.416 544.179C293.375 543.233 293.138 542.536 292.705 542.088C292.272 541.64 291.669 541.432 290.897 541.466C290.35 541.489 289.869 541.63 289.453 541.889C289.051 542.146 288.74 542.513 288.52 542.99C288.314 543.466 288.227 544.064 288.258 544.783L288.493 550.198L285.995 550.306L285.532 539.636L287.91 539.533L288.033 542.371L287.577 541.55C287.907 540.841 288.403 540.293 289.067 539.903C289.744 539.514 290.522 539.3 291.402 539.262C292.401 539.218 293.277 539.427 294.031 539.888C294.798 540.349 295.324 541.073 295.607 542.062L294.613 541.765C294.925 540.951 295.47 540.286 296.248 539.772C297.027 539.258 297.942 538.978 298.994 538.932ZM311.552 549.338C310.646 549.377 309.839 549.246 309.132 548.943C308.425 548.626 307.863 548.13 307.446 547.454C307.029 546.765 306.798 545.888 306.752 544.822L306.487 538.728L308.985 538.619L309.234 544.374C309.276 545.333 309.52 546.043 309.967 546.504C310.427 546.951 311.057 547.157 311.856 547.123C312.442 547.097 312.943 546.956 313.359 546.697C313.788 546.438 314.112 546.064 314.331 545.574C314.564 545.084 314.664 544.485 314.634 543.779L314.4 538.384L316.897 538.276L317.36 548.946L314.982 549.049L314.858 546.172L315.315 547.033C314.986 547.741 314.483 548.297 313.806 548.7C313.129 549.09 312.378 549.302 311.552 549.338ZM326.217 537.752C327.069 537.715 327.836 537.848 328.516 538.153C329.21 538.456 329.765 538.946 330.181 539.622C330.597 540.284 330.829 541.155 330.875 542.234L331.141 548.348L328.643 548.457L328.392 542.662C328.351 541.716 328.093 541.02 327.62 540.574C327.161 540.126 326.531 539.92 325.732 539.955C325.146 539.98 324.631 540.123 324.189 540.382C323.746 540.642 323.409 541.017 323.177 541.507C322.957 541.984 322.863 542.582 322.894 543.301L323.128 548.696L320.63 548.804L320.168 538.134L322.545 538.031L322.67 540.908L322.212 540.047C322.556 539.352 323.073 538.809 323.763 538.419C324.466 538.015 325.284 537.792 326.217 537.752ZM334.309 548.211L333.846 537.541L336.344 537.433L336.807 548.103L334.309 548.211ZM335.029 535.728C334.563 535.748 334.17 535.619 333.851 535.339C333.545 535.058 333.383 534.712 333.365 534.299C333.347 533.873 333.478 533.513 333.759 533.221C334.053 532.914 334.433 532.751 334.899 532.731C335.365 532.711 335.751 532.834 336.056 533.101C336.374 533.354 336.542 533.687 336.56 534.1C336.579 534.54 336.448 534.919 336.169 535.238C335.888 535.544 335.508 535.707 335.029 535.728ZM344.107 547.926C342.935 547.977 342.016 547.717 341.351 547.145C340.685 546.56 340.326 545.675 340.275 544.489L339.859 534.918L342.357 534.81L342.77 544.321C342.792 544.827 342.935 545.214 343.2 545.483C343.479 545.751 343.851 545.875 344.318 545.855C344.877 545.831 345.337 545.664 345.697 545.355L346.474 547.103C346.191 547.355 345.839 547.551 345.418 547.689C344.997 547.828 344.56 547.907 344.107 547.926ZM338.293 539.43L338.207 537.432L345.32 537.123L345.407 539.122L338.293 539.43ZM349.412 551.58C348.892 551.602 348.369 551.538 347.842 551.388C347.315 551.237 346.871 551.016 346.512 550.725L347.431 548.843C347.694 549.058 347.988 549.226 348.314 549.345C348.639 549.465 348.968 549.517 349.301 549.503C349.754 549.483 350.116 549.354 350.386 549.115C350.656 548.877 350.899 548.486 351.116 547.943L351.674 546.517L351.861 546.209L355.488 536.602L357.886 536.498L353.391 548.244C353.092 549.058 352.747 549.707 352.354 550.191C351.975 550.675 351.536 551.021 351.038 551.229C350.553 551.437 350.011 551.554 349.412 551.58ZM351.452 547.848L346.157 537.007L348.755 536.894L353.07 545.936L351.452 547.848Z" fill="#010610"/>
<rect x="150.869" y="585.062" width="294" height="64" rx="10" transform="rotate(1.46983 150.869 585.062)" fill="white"/>
<path d="M207.47 625.528L207.829 611.532L213.587 611.68C214.827 611.712 215.881 611.939 216.751 612.361C217.634 612.784 218.305 613.375 218.766 614.134C219.227 614.892 219.444 615.785 219.418 616.811C219.391 617.838 219.129 618.718 218.63 619.452C218.131 620.173 217.43 620.722 216.527 621.098C215.637 621.462 214.572 621.629 213.333 621.597L209.014 621.486L210.204 620.336L210.069 625.594L207.47 625.528ZM216.627 625.763L213.219 620.593L215.998 620.665L219.426 625.834L216.627 625.763ZM210.197 620.616L209.069 619.347L213.268 619.454C214.414 619.484 215.28 619.259 215.866 618.781C216.465 618.303 216.776 617.624 216.798 616.744C216.821 615.851 216.546 615.157 215.972 614.662C215.411 614.168 214.557 613.906 213.411 613.876L209.212 613.768L210.405 612.519L210.197 620.616ZM226.869 626.165C225.683 626.135 224.649 625.875 223.768 625.386C222.901 624.883 222.231 624.212 221.759 623.373C221.3 622.535 221.084 621.589 221.112 620.536C221.139 619.47 221.396 618.536 221.884 617.735C222.385 616.921 223.054 616.291 223.893 615.846C224.744 615.401 225.703 615.192 226.77 615.219C227.809 615.246 228.73 615.496 229.531 615.97C230.333 616.444 230.956 617.101 231.402 617.939C231.847 618.777 232.055 619.756 232.026 620.876C232.024 620.983 232.014 621.102 231.997 621.235C231.994 621.369 231.984 621.495 231.967 621.615L223.07 621.386L223.113 619.727L230.69 619.921L229.697 620.416C229.726 619.803 229.614 619.26 229.359 618.787C229.104 618.314 228.747 617.938 228.288 617.659C227.841 617.381 227.318 617.234 226.718 617.219C226.105 617.203 225.562 617.322 225.089 617.577C224.629 617.832 224.259 618.196 223.98 618.669C223.715 619.129 223.574 619.679 223.558 620.319L223.548 620.718C223.531 621.358 223.663 621.928 223.944 622.429C224.224 622.93 224.628 623.32 225.154 623.601C225.681 623.881 226.29 624.03 226.983 624.048C227.583 624.063 228.125 623.984 228.61 623.809C229.095 623.635 229.529 623.353 229.912 622.962L231.212 624.536C230.718 625.084 230.1 625.501 229.359 625.789C228.632 626.064 227.802 626.189 226.869 626.165ZM236.456 626.271L232.811 615.494L235.17 615.555L238.287 625.058L237.168 625.029L240.928 615.703L243.027 615.756L246.205 625.261L245.105 625.233L248.806 615.905L251.025 615.962L246.812 626.537L244.413 626.476L241.508 618.058L242.248 618.077L238.855 626.333L236.456 626.271ZM258.715 626.843L258.77 624.683L258.642 624.22L258.739 620.441C258.758 619.708 258.553 619.136 258.123 618.725C257.694 618.3 257.033 618.076 256.14 618.054C255.54 618.038 254.944 618.116 254.353 618.288C253.775 618.46 253.282 618.707 252.874 619.03L251.941 617.186C252.525 616.76 253.213 616.451 254.005 616.258C254.811 616.052 255.64 615.96 256.493 615.982C258.039 616.022 259.222 616.425 260.043 617.193C260.877 617.948 261.275 619.099 261.235 620.645L261.074 626.903L258.715 626.843ZM255.353 626.896C254.553 626.876 253.857 626.725 253.264 626.443C252.671 626.147 252.214 625.755 251.893 625.267C251.586 624.766 251.44 624.208 251.456 623.595C251.471 622.995 251.625 622.459 251.917 621.987C252.223 621.514 252.706 621.147 253.366 620.883C254.026 620.62 254.896 620.502 255.976 620.53L259.075 620.61L259.032 622.269L256.113 622.194C255.26 622.172 254.684 622.298 254.383 622.57C254.083 622.829 253.928 623.159 253.918 623.558C253.906 624.012 254.077 624.376 254.43 624.652C254.783 624.928 255.279 625.074 255.919 625.09C256.532 625.106 257.082 624.98 257.569 624.712C258.07 624.445 258.434 624.041 258.661 623.5L259.042 625.01C258.786 625.631 258.341 626.106 257.705 626.436C257.083 626.767 256.299 626.921 255.353 626.896ZM264.282 626.985L264.556 616.309L266.935 616.37L266.859 619.309L266.602 618.442C266.94 617.73 267.454 617.197 268.143 616.841C268.846 616.486 269.71 616.321 270.737 616.347L270.676 618.727C270.57 618.697 270.47 618.681 270.377 618.679C270.284 618.663 270.191 618.654 270.097 618.652C269.151 618.628 268.391 618.888 267.817 619.434C267.243 619.966 266.942 620.778 266.914 621.871L266.781 627.049L264.282 626.985ZM276.997 627.452C275.971 627.425 275.05 627.175 274.235 626.701C273.434 626.213 272.811 625.557 272.365 624.732C271.92 623.907 271.711 622.941 271.739 621.835C271.768 620.729 272.026 619.775 272.513 618.974C273 618.173 273.656 617.556 274.481 617.124C275.319 616.692 276.251 616.489 277.278 616.515C278.171 616.538 278.965 616.759 279.661 617.177C280.358 617.581 280.903 618.189 281.295 618.999C281.688 619.809 281.868 620.841 281.836 622.094C281.804 623.334 281.578 624.355 281.157 625.158C280.737 625.947 280.168 626.533 279.452 626.914C278.735 627.296 277.917 627.475 276.997 627.452ZM277.352 625.32C277.952 625.335 278.488 625.216 278.962 624.961C279.448 624.707 279.838 624.33 280.131 623.831C280.437 623.332 280.599 622.743 280.616 622.063C280.634 621.37 280.503 620.773 280.222 620.272C279.955 619.758 279.585 619.362 279.112 619.083C278.653 618.805 278.123 618.658 277.523 618.642C276.923 618.627 276.38 618.746 275.893 619.001C275.42 619.255 275.03 619.632 274.724 620.131C274.431 620.617 274.276 621.206 274.259 621.9C274.241 622.579 274.366 623.176 274.633 623.69C274.913 624.204 275.283 624.6 275.743 624.879C276.216 625.158 276.752 625.305 277.352 625.32ZM280.539 627.403L280.604 624.883L280.777 622.047L280.65 619.203L280.82 612.565L283.299 612.628L282.919 627.464L280.539 627.403ZM286.208 627.548L286.482 616.871L288.981 616.936L288.707 627.612L286.208 627.548ZM287.787 615.144C287.32 615.132 286.937 614.976 286.638 614.675C286.353 614.374 286.215 614.017 286.226 613.604C286.237 613.177 286.392 612.828 286.693 612.555C287.007 612.27 287.397 612.133 287.864 612.145C288.33 612.157 288.706 612.307 288.993 612.594C289.292 612.869 289.437 613.213 289.426 613.626C289.415 614.066 289.259 614.435 288.958 614.734C288.657 615.02 288.267 615.157 287.787 615.144ZM298.322 617.055C299.175 617.077 299.931 617.263 300.589 617.614C301.26 617.964 301.78 618.491 302.149 619.194C302.518 619.884 302.689 620.768 302.661 621.848L302.504 627.966L300.005 627.902L300.154 622.104C300.178 621.158 299.969 620.445 299.528 619.967C299.1 619.489 298.486 619.24 297.687 619.22C297.1 619.205 296.577 619.311 296.118 619.54C295.659 619.768 295.296 620.119 295.031 620.592C294.779 621.052 294.644 621.642 294.625 622.362L294.487 627.76L291.987 627.696L292.261 617.02L294.641 617.081L294.567 619.96L294.169 619.069C294.56 618.399 295.113 617.893 295.829 617.551C296.558 617.197 297.389 617.031 298.322 617.055ZM310.429 632.191C309.443 632.165 308.48 632.007 307.54 631.717C306.614 631.439 305.857 631.046 305.27 630.538L306.438 628.687C306.894 629.086 307.473 629.407 308.174 629.652C308.887 629.91 309.61 630.049 310.344 630.068C311.516 630.098 312.383 629.847 312.944 629.314C313.504 628.795 313.798 627.996 313.826 626.916L313.874 625.017L314.136 622.603L314.118 620.181L314.185 617.582L316.564 617.643L316.332 626.7C316.282 628.633 315.753 630.04 314.743 630.921C313.733 631.815 312.295 632.239 310.429 632.191ZM310.225 627.684C309.212 627.658 308.297 627.421 307.482 626.973C306.68 626.513 306.049 625.89 305.589 625.104C305.143 624.319 304.933 623.407 304.959 622.367C304.986 621.341 305.242 620.447 305.728 619.686C306.228 618.925 306.89 618.342 307.714 617.936C308.551 617.531 309.476 617.341 310.489 617.367C311.396 617.391 312.204 617.592 312.915 617.97C313.625 618.348 314.184 618.923 314.591 619.693C315.011 620.464 315.206 621.443 315.176 622.629C315.146 623.816 314.9 624.79 314.441 625.551C313.995 626.3 313.407 626.852 312.678 627.207C311.949 627.548 311.131 627.707 310.225 627.684ZM310.659 625.574C311.285 625.591 311.848 625.478 312.348 625.238C312.848 624.984 313.237 624.634 313.515 624.187C313.807 623.728 313.961 623.198 313.976 622.599C313.992 621.999 313.865 621.469 313.597 621.008C313.342 620.535 312.972 620.172 312.485 619.919C311.998 619.654 311.441 619.513 310.815 619.496C310.188 619.48 309.619 619.593 309.106 619.833C308.606 620.06 308.211 620.403 307.919 620.863C307.641 621.309 307.494 621.832 307.478 622.432C307.463 623.032 307.583 623.568 307.837 624.042C308.106 624.502 308.483 624.872 308.969 625.151C309.469 625.417 310.032 625.558 310.659 625.574ZM329.837 632.689C328.85 632.663 327.888 632.505 326.948 632.215C326.021 631.937 325.265 631.544 324.677 631.036L325.845 629.185C326.302 629.584 326.881 629.905 327.581 630.15C328.295 630.408 329.018 630.547 329.751 630.566C330.924 630.596 331.791 630.345 332.351 629.812C332.912 629.293 333.206 628.494 333.233 627.414L333.282 625.515L333.544 623.101L333.526 620.679L333.593 618.08L335.972 618.141L335.74 627.198C335.69 629.131 335.16 630.538 334.151 631.419C333.141 632.313 331.703 632.737 329.837 632.689ZM329.632 628.182C328.619 628.156 327.705 627.919 326.89 627.471C326.088 627.011 325.457 626.388 324.997 625.602C324.55 624.817 324.34 623.905 324.367 622.865C324.393 621.839 324.65 620.945 325.136 620.184C325.636 619.423 326.298 618.84 327.122 618.434C327.959 618.029 328.884 617.839 329.897 617.865C330.803 617.889 331.612 618.089 332.322 618.468C333.033 618.846 333.592 619.421 333.999 620.191C334.419 620.962 334.614 621.941 334.584 623.127C334.553 624.314 334.308 625.288 333.848 626.049C333.402 626.798 332.815 627.35 332.085 627.705C331.356 628.046 330.539 628.205 329.632 628.182ZM330.067 626.072C330.693 626.089 331.256 625.976 331.756 625.736C332.256 625.482 332.645 625.132 332.923 624.685C333.215 624.226 333.369 623.696 333.384 623.097C333.399 622.497 333.273 621.967 333.005 621.506C332.75 621.033 332.379 620.67 331.892 620.417C331.406 620.152 330.849 620.011 330.223 619.994C329.596 619.978 329.026 620.09 328.513 620.331C328.014 620.558 327.618 620.901 327.327 621.361C327.048 621.807 326.902 622.33 326.886 622.93C326.871 623.53 326.99 624.066 327.245 624.54C327.513 625 327.891 625.37 328.377 625.649C328.877 625.915 329.44 626.056 330.067 626.072ZM338.984 628.902L339.258 618.226L341.757 618.29L341.483 628.966L338.984 628.902ZM340.562 616.499C340.096 616.487 339.713 616.33 339.414 616.029C339.128 615.728 338.991 615.371 339.001 614.958C339.012 614.531 339.168 614.182 339.468 613.91C339.782 613.624 340.173 613.488 340.639 613.5C341.106 613.512 341.482 613.661 341.768 613.949C342.068 614.223 342.212 614.567 342.202 614.98C342.191 615.42 342.034 615.789 341.733 616.088C341.432 616.374 341.042 616.511 340.562 616.499ZM347.602 629.123L343.298 618.329L345.897 618.396L349.594 627.914L348.314 627.881L352.634 618.569L355.034 618.63L350.181 629.189L347.602 629.123ZM356.322 629.347L356.596 618.671L359.095 618.735L358.821 629.411L356.322 629.347ZM357.9 616.943C357.434 616.931 357.051 616.775 356.752 616.474C356.466 616.173 356.329 615.816 356.339 615.403C356.35 614.976 356.506 614.627 356.806 614.355C357.121 614.069 357.511 613.932 357.977 613.944C358.444 613.956 358.82 614.106 359.106 614.394C359.406 614.668 359.55 615.012 359.54 615.425C359.529 615.865 359.372 616.234 359.071 616.533C358.771 616.819 358.38 616.956 357.9 616.943ZM368.436 618.854C369.289 618.876 370.045 619.062 370.703 619.413C371.374 619.763 371.894 620.29 372.262 620.993C372.632 621.683 372.802 622.568 372.775 623.647L372.618 629.765L370.118 629.701L370.267 623.903C370.291 622.957 370.083 622.244 369.642 621.766C369.214 621.288 368.6 621.039 367.8 621.019C367.214 621.004 366.691 621.11 366.232 621.339C365.772 621.567 365.41 621.918 365.144 622.391C364.892 622.851 364.757 623.441 364.739 624.161L364.6 629.559L362.101 629.495L362.375 618.819L364.754 618.88L364.68 621.759L364.283 620.868C364.674 620.198 365.227 619.692 365.943 619.35C366.672 618.996 367.503 618.83 368.436 618.854ZM380.543 633.99C379.556 633.965 378.593 633.806 377.654 633.516C376.727 633.238 375.971 632.845 375.383 632.337L376.551 630.486C377.008 630.885 377.587 631.206 378.287 631.451C379.001 631.71 379.724 631.848 380.457 631.867C381.63 631.897 382.497 631.646 383.057 631.113C383.618 630.594 383.911 629.795 383.939 628.715L383.988 626.816L384.25 624.402L384.232 621.98L384.299 619.381L386.678 619.442L386.446 628.499C386.396 630.432 385.866 631.839 384.857 632.72C383.847 633.614 382.409 634.038 380.543 633.99ZM380.338 629.483C379.325 629.457 378.411 629.22 377.596 628.773C376.794 628.312 376.163 627.689 375.703 626.903C375.256 626.118 375.046 625.206 375.073 624.166C375.099 623.14 375.356 622.246 375.842 621.485C376.342 620.724 377.003 620.141 377.828 619.735C378.665 619.33 379.59 619.14 380.603 619.166C381.509 619.19 382.318 619.391 383.028 619.769C383.739 620.147 384.298 620.722 384.705 621.492C385.125 622.263 385.32 623.242 385.29 624.428C385.259 625.615 385.014 626.589 384.554 627.351C384.108 628.099 383.521 628.651 382.791 629.006C382.062 629.347 381.245 629.506 380.338 629.483ZM380.773 627.374C381.399 627.39 381.962 627.277 382.462 627.037C382.962 626.783 383.351 626.433 383.629 625.986C383.921 625.527 384.075 624.997 384.09 624.398C384.105 623.798 383.979 623.268 383.711 622.807C383.456 622.334 383.085 621.971 382.598 621.719C382.112 621.453 381.555 621.312 380.929 621.296C380.302 621.279 379.732 621.392 379.219 621.632C378.72 621.859 378.324 622.202 378.033 622.662C377.754 623.108 377.608 623.631 377.592 624.231C377.577 624.831 377.696 625.367 377.951 625.841C378.219 626.301 378.597 626.671 379.083 626.95C379.583 627.216 380.146 627.357 380.773 627.374Z" fill="#010610"/>
<g clip-path="url(#clip0_27_366)">
<path d="M96.5591 65.4944C76.017 77.0095 60.8483 94.0962 52.2886 113.153C56.1054 108.845 60.4444 104.877 65.2193 101.311C68.512 98.8543 72.0046 96.5835 75.6383 94.537C86.5631 88.3747 98.898 84.0765 111.67 81.9075C145.41 76.1787 182.548 84.9547 209.215 112.871L191.266 126.865L235.34 136.313L245.234 84.7886L226.414 99.462C225.505 97.3155 224.494 95.1979 223.333 93.127C200.09 51.6635 143.188 39.3563 96.5603 65.4937L96.5591 65.4944ZM78.1731 98.9267C75.0329 100.699 72.0468 102.641 69.2368 104.74C58.0314 113.108 49.4165 124.091 45.1573 137.5C42.679 154.706 45.4327 172.271 54.2101 187.93C56.3318 191.715 58.9114 195.06 61.5579 198.354C49.3342 163.159 66.6806 121.217 104.258 100.153C118.037 92.4288 132.78 88.5146 147.091 88.0732C134.535 85.7846 121.875 85.822 109.991 87.8402C98.3977 89.8087 87.5929 93.6078 78.1724 98.9265L78.1731 98.9267Z" fill="#6DAC39"/>
</g>
<defs>
<clipPath id="clip0_27_366">
<rect width="233" height="139" fill="white" transform="translate(0 113.931) rotate(-29.2733)"/>
</clipPath>
</defs>
</svg>
